<?xml version="1.0" encoding="iso-8859-1"?>
<!-- Generator: Adobe Illustrator 16.0.0, SVG Export Plug-In . SVG Version: 6.00 Build 0)  -->
<!DOCTYPE svg PUBLIC "-//W3C//DTD SVG 1.1//EN" "http://www.w3.org/Graphics/SVG/1.1/DTD/svg11.dtd">
<svg version="1.1" id="&#x421;&#x43B;&#x43E;&#x439;_1"
	 xmlns="http://www.w3.org/2000/svg" xmlns:xlink="http://www.w3.org/1999/xlink" x="0px" y="0px" width="576.762px"
	 height="138.423px" viewBox="0 0 576.762 138.423" enable-background="new 0 0 576.762 138.423" xml:space="preserve">
<path fill-rule="evenodd" clip-rule="evenodd" fill="#59B2E1" d="M539.098,68.242c8.723,9.443,6.961,20.195,4.372,30.535
	c-1.693,6.766-7.967,9.387-14.558,9.465c-18.794,0.223-37.593,0.26-56.386-0.012c-8.792-0.126-14.114-5.266-15.284-14.205
	c-1.198-9.159-2.176-18.428,6.168-26.084c-6.686-5.656-6.314-13.223-6.043-20.736c0.395-10.962,5.592-16.878,16.574-17.133
	c18.358-0.428,36.739-0.361,55.1,0.018c8.938,0.186,13.954,5.415,15.398,14.282C545.991,53.893,544.68,59.893,539.098,68.242z
	 M500.889,93.719c6.602,0,13.201,0.008,19.801-0.002c6.704-0.01,7.802-4.119,7.766-9.795c-0.035-5.643-1.754-9.081-7.899-9.076
	c-12.986,0.008-25.975,0.016-38.963-0.006c-6.496-0.01-8.217,3.855-8.323,9.57c-0.111,5.98,2.142,9.359,8.457,9.33
	C488.115,93.709,494.502,93.733,500.889,93.719z M501.055,44.613c0-0.01,0-0.019,0-0.027c-6.609,0-13.221-0.071-19.828,0.021
	c-5.759,0.079-7.549,3.567-7.69,8.83c-0.142,5.236,1.396,9.141,7.144,9.24c13.423,0.232,26.855,0.245,40.278,0.018
	c6.669-0.113,7.483-4.826,7.307-10.332c-0.175-5.451-2.949-7.697-8.021-7.737C513.849,44.575,507.451,44.613,501.055,44.613z"/>
<path fill-rule="evenodd" clip-rule="evenodd" fill="#5CB4E1" d="M440.587,30.764c0.476,4.538,0.836,8.746-0.12,12.783
	c-2.421,2.031-5.091,1.381-7.586,1.391c-13.894,0.061-27.788-0.018-41.682,0.047c-12.304,0.055-15.543,3.746-14.32,16.341
	c4.012,1.618,8.307,0.726,12.478,0.774c11.969,0.141,23.942-0.08,35.909,0.094c12.411,0.18,17.934,5.549,18.829,17.824
	c0.047,0.641,0.061,1.282,0.08,1.923c0.68,21.726-3.91,26.452-25.692,26.449c-10.688-0.001-21.377,0.138-32.062-0.054
	c-17.442-0.311-25.082-7.186-26.755-24.387c-1.056-10.854-1.215-21.786,0.232-32.627c1.604-12.006,7.32-18.018,18.809-20.492
	C384.551,29.571,433.939,29.421,440.587,30.764z M377.21,74.748c-2.181,12.438,0.777,18.52,9.627,18.939
	c11.47,0.545,22.986,0.357,34.476,0.141c6.451-0.123,6.243-5.309,6.308-9.803c0.063-4.358,0.023-9.15-6.093-9.221
	C406.87,74.633,392.21,74.748,377.21,74.748z"/>
<path fill-rule="evenodd" clip-rule="evenodd" fill="#59B2E1" d="M106.016,89.632c-7.11-12.896-13.654-25.302-20.737-37.391
	c-3.685-6.287-12.462-5.703-16.311,0.813c-3.575,6.05-6.807,12.304-10.156,18.485c-3.205,5.914-6.367,11.853-9.685,18.037
	c3.102,0.666,6.307,1.074,10.307,0.056c1.432-2.674,3.264-6.08,4.021-7.407c8.495-0.008,19.578-0.003,27.815-0.003
	c0.86,1.58,2.955,5.506,3.978,7.41C98.152,90.225,102.147,90.615,106.016,89.632z M67.581,74.496
	c3.221-6.016,6.094-11.382,9.529-17.799c0.183,0,0.386,0,0.456,0c3.347,6.233,6.508,12.122,9.562,17.799
	C80.576,74.496,74.733,74.496,67.581,74.496z M354.08,108.222c-14.629,0-27.019,0.001-39.408,0
	c-84.645-0.005-169.29-0.008-253.935-0.016c-20.51-0.002-28.436-7.565-28.998-27.963c-0.229-8.329-0.315-16.683,0.028-25.003
	c0.656-15.881,8.391-23.781,24.188-25.194c2.125-0.19,4.271-0.167,6.408-0.168c95.119-0.018,190.237-0.026,285.356-0.038
	c1.476,0,2.952,0,6.734,0c-10.829,6.457-10.37,15.498-10.266,24.508c0.134,11.541,0.253,23.088,0.021,34.625
	C344.059,96.432,345.42,102.973,354.08,108.222z M120.341,77.637c4.304,0,12.267,0,17.18,0c1.026,0,1.999,0.479,2.622,1.295
	c2.321,3.037,5.075,6.632,8.241,10.699c3.628,0.833,7.211,1.111,10.731,0.087c-3.537-4.628-6.581-8.608-9.799-12.819
	c1.519-1.029,2.792-1.758,3.913-2.672c5.781-4.723,4.396-11.195,3.765-17.231c-0.498-4.753-3.813-7.768-8.546-8.222
	c-12.281-1.174-24.576-0.589-37.365-0.308c0,14.192,0,27.698,0,41.124c2.985,0.963,6.183,1.018,9.263-0.066
	C120.303,86.393,120.267,81.85,120.341,77.637z M206.511,48.4c-10.997-0.084-22.266-1.23-33.465,0.746
	c-6.065,1.07-9.216,5.219-9.44,11.273c-0.222,5.975-0.208,11.971,0.006,17.947c0.205,5.711,3.024,10.434,8.71,11.22
	c11.562,1.601,23.232,0.724,34.761,0.49c0.483-3.188,1.088-5.485-1.012-8.308c-8.478,0-17.421-0.019-26.364,0.007
	c-5.36,0.015-7.979-2.191-6.518-8.787c11.152,0,22.349,0,33.288,0c0.889-3.009,1.371-5.038-0.726-7.524c-10.585,0-21.62,0-32.776,0
	c-1.045-6.156,1.474-8.563,6.818-8.568c9.103-0.009,18.206-0.002,27.052-0.002C207.683,53.469,208.024,51.195,206.511,48.4z
	 M255.989,81.193c-0.485,0.137-1.05,0.063-1.455-0.203c-1.46-1.801-2.965-3.566-4.374-5.406
	c-6.101-7.973-12.196-15.949-18.249-23.957c-3.472-4.593-8.348-3.551-12.956-3.189c-2.3,0.181-4.025,1.689-4.036,4.227
	c-0.055,12.313-0.025,24.628-0.025,36.815c3.224,1.004,5.652,1.242,8.979-0.302c0-9.957,0-20.246,0-30.854
	c2.035-0.006,2.488,0.553,3.847,2.307c6.019,7.767,13.903,18.273,19.679,26.22c3.687,5.073,8.808,3.204,13.512,3.311
	c2.559,0.058,3.977-1.865,3.999-4.177c0.12-12.301,0.056-24.602,0.056-36.756c-3.348-1.262-5.948-1.719-8.977,0.541
	C255.989,59.846,255.989,70.826,255.989,81.193z M326.739,89.632c-7.11-12.896-13.654-25.302-20.737-37.391
	c-3.685-6.287-12.462-5.703-16.311,0.813c-3.575,6.05-6.807,12.304-10.156,18.485c-3.205,5.914-6.367,11.853-9.685,18.037
	c3.102,0.666,6.307,1.074,10.307,0.056c1.432-2.674,3.264-6.08,4.021-7.407c8.495-0.008,19.578-0.003,27.815-0.003
	c0.86,1.58,2.955,5.506,3.978,7.41C318.876,90.225,322.871,90.615,326.739,89.632z M120.345,69.801c0-4.283,0-8.449,0.044-12.949
	c7.84,0,15.588-0.104,23.195,0.043c3.937,0.075,4.733,2.98,4.796,6.246c0.069,3.607-1,6.573-5.167,6.617
	C135.47,69.84,128.253,69.801,120.345,69.801z M288.305,74.496c3.221-6.016,6.094-11.382,9.529-17.799c0.183,0,0.386,0,0.456,0
	c3.347,6.233,6.508,12.122,9.562,17.799C301.3,74.496,295.457,74.496,288.305,74.496z"/>
<path fill="#62B6E2" d="M576.762,101.714c0,20.241-16.467,36.708-36.708,36.708H36.708C16.467,138.423,0,121.956,0,101.714V36.708
	C0,16.467,16.467,0,36.708,0h503.345c20.241,0,36.708,16.467,36.708,36.708V101.714z M36.708,11C22.533,11,11,22.533,11,36.708
	v65.006c0,14.176,11.533,25.708,25.708,25.708h503.345c14.176,0,25.708-11.533,25.708-25.708V36.708
	c0-14.176-11.532-25.708-25.708-25.708H36.708z"/>
</svg>
