<?xml version="1.0" encoding="utf-8"?>
<!-- Generator: Adobe Illustrator 27.0.0, SVG Export Plug-In . SVG Version: 6.00 Build 0)  -->
<svg version="1.1" id="Layer_1" xmlns="http://www.w3.org/2000/svg" xmlns:xlink="http://www.w3.org/1999/xlink" x="0px" y="0px"
	 viewBox="0 0 32 20" style="enable-background:new 0 0 32 20;" xml:space="preserve">
<style type="text/css">
	.st0{fill:#FFFFFF;}
	.st1{fill:#D53832;}
	.st2{fill:#24487C;}
</style>
<g>
	<path class="st0" d="M32.1,21.1C32.1,21.2,32.1,21.2,32.1,21.1c-0.1,0-0.1,0-0.2,0c-11.1,0-22.3,0-33.3,0c-0.1,0-0.2,0-0.2-0.2
		c0-7.4,0-14.8,0-22.2c0-0.1,0-0.2,0.2-0.2c11.1,0,22.3,0,33.3,0c0.1,0,0.2,0,0.2,0.2c0,3.7,0,7.4,0,11.1c-0.1,0-0.1,0-0.2,0
		c-1.7,0-3.5,0-5.2,0c-3.8,0-7.6,0-11.4,0c-1.5-0.9-3-1.9-4.3-3c-4.2-2.5-8.3-5.3-12.4-8c-0.1,0-0.1-0.1-0.2-0.1c0,0.1,0,0.1,0,0.2
		c0,7.4,0,14.7,0,22c0,0.1,0,0.1,0,0.2c0.1,0,0.1,0,0.2,0c11.1,0,22.2,0,33.2,0C31.9,21.2,32,21.1,32.1,21.1z"/>
	<path class="st1" d="M15.3,9.9c3.8,0,7.6,0,11.4,0c1.7,0,3.5,0,5.2,0c0.1,0,0.1,0,0.2,0c0,3.7,0,7.5,0,11.2c-0.1,0-0.1,0-0.2,0
		c-11.1,0-22.2,0-33.2,0c-0.1,0-0.1,0-0.2,0c0.1,0,0.1-0.1,0.2-0.1c1.9-1.3,3.8-2.5,5.7-3.8C8,14.8,11.6,12.3,15.3,9.9z"/>
	<path class="st2" d="M15.3,9.9c-3.7,2.4-7.3,4.9-11,7.3c-1.9,1.3-3.8,2.5-5.7,3.8c-0.1,0-0.1,0.1-0.2,0.1c-0.1,0,0-0.1,0-0.2
		c0-7.4,0-14.7,0-22c0-0.1,0-0.1,0-0.2c0.1,0.1,0.1,0.2,0.2,0.2c4.1,2.7,8.2,5.5,12.2,8.2C12.3,8,13.8,9,15.3,9.9z"/>
</g>
</svg>
