<?xml version="1.0" encoding="utf-8"?>
<!-- Generator: Adobe Illustrator 27.0.0, SVG Export Plug-In . SVG Version: 6.00 Build 0)  -->
<svg version="1.1" id="Layer_1" xmlns="http://www.w3.org/2000/svg" xmlns:xlink="http://www.w3.org/1999/xlink" x="0px" y="0px"
	 viewBox="0 0 32 20" style="enable-background:new 0 0 32 20;" xml:space="preserve">
<style type="text/css">
	.st0{fill:#0E9252;}
	.st1{fill:#D53832;}
	.st2{fill:#264697;}
</style>
<path class="st0" d="M0,6.6c0-2.3,0-4.5,0-6.8c0-0.3,0-0.4,0.4-0.4c10.5,0,21,0,31.5,0c0.3,0,0.4,0.1,0.4,0.4c0,2.3,0,4.5,0,6.8
	c-0.2,0-0.4,0-0.6,0c-10.4,0-20.7,0-31.1,0C0.4,6.5,0.2,6.6,0,6.6z"/>
<path class="st1" d="M0,20.8c0-2.4,0-4.8,0-7.2c10.7,0,21.5,0,32.2,0c0,2.4,0,4.8,0,7.2c-0.2,0-0.4,0-0.6,0c-10.4,0-20.7,0-31.1,0
	C0.4,20.8,0.2,20.8,0,20.8z"/>
<path class="st2" d="M32.2,13.6c-10.7,0-21.5,0-32.2,0c0-2.3,0-4.7,0-7c0.2,0,0.4,0,0.6,0c10.4,0,20.7,0,31.1,0c0.2,0,0.4,0,0.6,0
	C32.2,8.9,32.2,11.3,32.2,13.6z"/>
<path class="st2" d="M0,20.8c0.2,0,0.4,0,0.6,0c10.4,0,20.7,0,31.1,0c0.2,0,0.4,0,0.6,0c0,0.3-0.2,0.1-0.3,0.1
	c-10.6,0-21.1,0-31.7,0C0.2,20.9,0,21,0,20.8z"/>
</svg>
