<?xml version="1.0" encoding="UTF-8"?>
<svg id="Layer_1" data-name="Layer 1" xmlns="http://www.w3.org/2000/svg" viewBox="0 0 32 20">
  <defs>
    <style>
      .cls-1 {
        fill: #02abc2;
      }

      .cls-2, .cls-3 {
        fill: #fceb4b;
      }

      .cls-3 {
        stroke: #fceb4b;
        stroke-miterlimit: 2;
        stroke-width: 0px;
      }
    </style>
  </defs>
  <path class="cls-1" d="M-.05,0H39.94V20H-.05V0Z"/>
  <g>
    <g>
      <circle class="cls-2" cx="21.55" cy="8.4" r="2.69"/>
      <g id="A">
        <g id="B">
          <path id="C" class="cls-2" d="M21.55,5.34c.16,0,.22-.1,.22-.22,0-.16-.22-.92-.22-.92,0,0-.22,.76-.22,.92,0,.12,.06,.22,.22,.22Z"/>
          <path id="C-2" data-name="C" class="cls-2" d="M24.61,8.4c0,.16,.1,.22,.22,.22,.16,0,.92-.22,.92-.22,0,0-.76-.22-.92-.22-.12,0-.22,.06-.22,.22Z"/>
          <path id="C-3" data-name="C" class="cls-2" d="M21.55,11.46c-.16,0-.22,.1-.22,.22,0,.16,.22,.92,.22,.92,0,0,.22-.76,.22-.92,0-.12-.06-.22-.22-.22Z"/>
          <path id="C-4" data-name="C" class="cls-2" d="M18.49,8.4c0-.16-.1-.22-.22-.22-.16,0-.92,.22-.92,.22,0,0,.76,.22,.92,.22,.12,0,.22-.06,.22-.22Z"/>
        </g>
        <g id="B-2" data-name="B">
          <path id="C-5" data-name="C" class="cls-2" d="M22.72,5.58c.15,.06,.24-.01,.29-.12,.06-.15,.15-.94,.15-.94,0,0-.49,.62-.56,.77-.05,.11-.03,.23,.12,.29Z"/>
          <path id="C-6" data-name="C" class="cls-2" d="M24.38,9.57c-.06,.15,.01,.24,.12,.29,.15,.06,.94,.15,.94,.15,0,0-.62-.49-.77-.56-.11-.05-.23-.03-.29,.12Z"/>
          <path id="C-7" data-name="C" class="cls-2" d="M20.38,11.22c-.15-.06-.24,.01-.29,.12-.06,.15-.15,.94-.15,.94,0,0,.49-.62,.56-.77,.05-.11,.03-.23-.12-.29Z"/>
          <path id="C-8" data-name="C" class="cls-2" d="M18.73,7.23c.06-.15-.01-.24-.12-.29-.15-.06-.94-.15-.94-.15,0,0,.62,.49,.77,.56,.11,.05,.23,.03,.29-.12Z"/>
        </g>
        <g id="B-3" data-name="B">
          <path id="C-9" data-name="C" class="cls-2" d="M23.71,6.24c.11,.11,.23,.08,.31,0,.11-.11,.5-.81,.5-.81,0,0-.69,.38-.81,.5-.08,.08-.11,.2,0,.31Z"/>
          <path id="C-10" data-name="C" class="cls-2" d="M23.71,10.56c-.11,.11-.08,.23,0,.31,.11,.11,.81,.5,.81,.5,0,0-.38-.69-.5-.81-.08-.08-.2-.11-.31,0Z"/>
          <path id="C-11" data-name="C" class="cls-2" d="M19.39,10.56c-.11-.11-.23-.08-.31,0-.11,.11-.5,.81-.5,.81,0,0,.69-.38,.81-.5,.08-.08,.11-.2,0-.31Z"/>
          <path id="C-12" data-name="C" class="cls-2" d="M19.39,6.24c.11-.11,.08-.23,0-.31-.11-.11-.81-.5-.81-.5,0,0,.38,.69,.5,.81,.08,.08,.2,.11,.31,0Z"/>
        </g>
        <g id="B-4" data-name="B">
          <path id="C-13" data-name="C" class="cls-2" d="M24.38,7.23c.06,.15,.18,.16,.29,.12,.15-.06,.77-.56,.77-.56,0,0-.79,.09-.94,.15-.11,.05-.18,.14-.12,.29Z"/>
          <path id="C-14" data-name="C" class="cls-2" d="M22.72,11.22c-.15,.06-.16,.18-.12,.29,.06,.15,.56,.77,.56,.77,0,0-.09-.79-.15-.94-.05-.11-.14-.18-.29-.12Z"/>
          <path id="C-15" data-name="C" class="cls-2" d="M18.73,9.57c-.06-.15-.18-.16-.29-.12-.15,.06-.77,.56-.77,.56,0,0,.79-.09,.94-.15,.11-.05,.18-.14,.12-.29Z"/>
          <path id="C-16" data-name="C" class="cls-2" d="M20.38,5.58c.15-.06,.16-.18,.12-.29-.06-.15-.56-.77-.56-.77,0,0,.09,.79,.15,.94,.05,.11,.14,.18,.29,.12Z"/>
        </g>
      </g>
      <g id="A-2" data-name="A">
        <g id="B-5" data-name="B">
          <path id="C-17" data-name="C" class="cls-2" d="M22.15,5.4c.16,.03,.24-.06,.26-.17,.03-.16-.04-.95-.04-.95,0,0-.36,.7-.4,.86-.02,.12,.02,.23,.17,.26Z"/>
          <path id="C-18" data-name="C" class="cls-2" d="M24.55,9c-.03,.16,.06,.24,.17,.26,.16,.03,.95-.04,.95-.04,0,0-.7-.36-.86-.4-.12-.02-.23,.02-.26,.17Z"/>
          <path id="C-19" data-name="C" class="cls-2" d="M20.95,11.4c-.16-.03-.24,.06-.26,.17-.03,.16,.04,.95,.04,.95,0,0,.36-.7,.4-.86,.02-.12-.02-.23-.17-.26Z"/>
          <path id="C-20" data-name="C" class="cls-2" d="M18.55,7.8c.03-.16-.06-.24-.17-.26-.16-.03-.95,.04-.95,.04,0,0,.7,.36,.86,.4,.12,.02,.23-.02,.26-.17Z"/>
        </g>
        <g id="B-6" data-name="B">
          <path id="C-21" data-name="C" class="cls-2" d="M23.25,5.86c.13,.09,.24,.04,.31-.06,.09-.13,.33-.89,.33-.89,0,0-.61,.51-.7,.64-.07,.1-.07,.22,.06,.31Z"/>
          <path id="C-22" data-name="C" class="cls-2" d="M24.09,10.1c-.09,.13-.04,.24,.06,.31,.13,.09,.89,.33,.89,.33,0,0-.51-.61-.64-.7-.1-.07-.22-.07-.31,.06Z"/>
          <path id="C-23" data-name="C" class="cls-2" d="M19.85,10.94c-.13-.09-.24-.04-.31,.06-.09,.13-.33,.89-.33,.89,0,0,.61-.51,.7-.64,.07-.1,.07-.22-.06-.31Z"/>
          <path id="C-24" data-name="C" class="cls-2" d="M19.01,6.7c.09-.13,.04-.24-.06-.31-.13-.09-.89-.33-.89-.33,0,0,.51,.61,.64,.7,.1,.07,.22,.07,.31-.06Z"/>
        </g>
        <g id="B-7" data-name="B">
          <path id="C-25" data-name="C" class="cls-2" d="M24.09,6.7c.09,.13,.21,.13,.31,.06,.13-.09,.64-.7,.64-.7,0,0-.76,.24-.89,.33-.1,.07-.15,.17-.06,.31Z"/>
          <path id="C-26" data-name="C" class="cls-2" d="M23.25,10.94c-.13,.09-.13,.21-.06,.31,.09,.13,.7,.64,.7,.64,0,0-.24-.76-.33-.89-.07-.1-.17-.15-.31-.06Z"/>
          <path id="C-27" data-name="C" class="cls-2" d="M19.01,10.1c-.09-.13-.21-.13-.31-.06-.13,.09-.64,.7-.64,.7,0,0,.76-.24,.89-.33,.1-.07,.15-.17,.06-.31Z"/>
          <path id="C-28" data-name="C" class="cls-2" d="M19.85,5.86c.13-.09,.13-.21,.06-.31-.09-.13-.7-.64-.7-.64,0,0,.24,.76,.33,.89,.07,.1,.17,.15,.31,.06Z"/>
        </g>
        <g id="B-8" data-name="B">
          <path id="C-29" data-name="C" class="cls-2" d="M24.55,7.8c.03,.16,.14,.2,.26,.17,.16-.03,.86-.4,.86-.4,0,0-.79-.07-.95-.04-.12,.02-.21,.1-.17,.26Z"/>
          <path id="C-30" data-name="C" class="cls-2" d="M22.15,11.4c-.16,.03-.2,.14-.17,.26,.03,.16,.4,.86,.4,.86,0,0,.07-.79,.04-.95-.02-.12-.1-.21-.26-.17Z"/>
          <path id="C-31" data-name="C" class="cls-2" d="M18.55,9c-.03-.16-.14-.2-.26-.17-.16,.03-.86,.4-.86,.4,0,0,.79,.07,.95,.04,.12-.02,.21-.1,.17-.26Z"/>
          <path id="C-32" data-name="C" class="cls-2" d="M20.95,5.4c.16-.03,.2-.14,.17-.26-.03-.16-.4-.86-.4-.86,0,0-.07,.79-.04,.95,.02,.12,.1,.21,.26,.17Z"/>
        </g>
      </g>
    </g>
    <g>
      <path class="cls-2" d="M21.07,14.23c-.07,0-.14,.01-.21,.04-.09,.01-.18,.05-.28,.06h-.04s-.06,.01-.06,.01c0,.02,0,.03,0,.05s0,.04,0,.05c0,.01-.02,.03-.03,.04-.01,.01-.03,.03-.04,.04-.02,0-.03,.01-.05,.01-.02,0-.04,0-.05,0-.02,0-.03-.02-.05-.03-.02,0-.04,0-.06,0-.02,0-.04,0-.05,0-.02,0-.04-.01-.06-.02-.02,0-.04-.02-.05-.03-.07,.04-.14,.08-.19,.15-.02,.03-.03,.07-.03,.11,0,.05,0,.1,.03,.14,0,.01,.01-.05,.04-.05,.04-.03,.09-.05,.13-.07,.04-.02,.04,0,.02,.03,0,.02-.03,.08,0,.05,.14-.06,.29-.07,.43-.08,.21-.02,.42-.03,.64-.03h.6c.1,.02,.19,.04,.29,.02,.02,0,.06,0,.07-.02-.04-.02-.09-.03-.14-.03h-.38c-.11-.01-.22-.01-.32-.05-.03-.01-.05-.04-.08,0-.04,.01-.08,.02-.12,.03-.07,0-.14,0-.2-.04,.05-.06,.1-.12,.15-.18-.04,0-.08-.02-.12-.03,.07-.05,.14-.11,.21-.16h0Z"/>
      <path class="cls-2" d="M24.18,14.92c-.14,.09-.26-.07-.38-.11-.09,.05-.09,.2-.18,.28-.1,.11-.22-.03-.21-.14-.12,.1-.17,.32-.36,.29-.09-.07-.15-.22-.22-.05-.06,.08-.2,.2-.28,.08-.02-.11-.08-.24-.14-.07-.04,.13-.18,.22-.31,.16-.07-.06,.06-.27-.03-.26-.14,.09-.22,.31-.4,.3-.07-.08,.04-.22-.04-.31-.1,.12-.2,.3-.37,.31-.08-.06,0-.25-.05-.28-.17,.1-.35,.28-.56,.23,.08-.32,.43-.43,.72-.45,.5-.06,1.03,.05,1.51-.13,.08-.05,.27-.11,.2-.22-.06-.09,.16-.05,.18-.15-.01-.13,.1-.11,.21-.12,.49-.02,.97,.08,1.45,.1,.04,.24-.23,.4-.44,.33-.1,.02-.25-.23-.22-.05-.02,.09,0,.22-.09,.28m-4.15-.48c.11,.1,.19-.02,.3-.06,.35-.12,.66-.33,.97-.55,.18-.15,.34-.35,.59-.4,.48-.15,1-.13,1.48-.26,.37-.51,1-.69,1.52-.98,.12-.04,.16-.13,.2-.24,.2-.32,.47-.6,.8-.79,.15-.08,.34-.13,.51-.09-.01,.21-.13,.39-.27,.53,.12,0,.22-.08,.34-.07,.04,.21-.19,.32-.31,.45,.07,.02,.33,.04,.19,.1-.18,.12-.39,.21-.55,.36,.15,.03,.17,.06,.01,.12-.08,.06-.25,.08-.26,.19,.12,.07-.05,.14-.12,.17-.12,.03-.26,.08-.09,.18-.06,.09-.2,.11-.31,.11,.03,.11,.08,.23-.06,.27-.31,.24-.68,.41-1.07,.45,.49,.04,1-.05,1.42-.32,.06-.07,.35-.14,.18-.19-.08-.03-.24-.07-.25-.13,.23-.14,.51-.09,.76-.17,0-.08-.19-.06-.26-.08-.17-.01-.16-.06,0-.07,.21-.06,.44-.07,.62-.2-.14-.07-.32,0-.47-.06,.26-.11,.56-.12,.79-.29,.11-.12-.14-.08-.21-.08-.14,.02-.21-.04-.05-.1,.28-.2,.63-.34,.82-.63,.05-.07,.11-.27-.04-.19-.19,.06-.36,.28-.58,.21,.43-.34,.85-.72,1.15-1.19,.02-.13-.2-.15-.25-.04-.28,.27-.53,.59-.89,.76,.34-.33,.63-.72,.87-1.13,.05-.12,.2-.27,.12-.4-.12-.1-.28,0-.34,.11-.22,.28-.38,.61-.66,.84,.24-.47,.5-.96,.5-1.5,0-.11-.02-.27-.17-.25-.12,.02-.09,.2-.14,.29-.11,.37-.16,.77-.38,1.09,.05-.3,.14-.61,.07-.91-.03-.13-.25-.08-.22,.06-.26,1.32-1.14,2.47-2.3,3.13-.53,.3-1.12,.49-1.72,.58-.16,.04-.34,.01-.49,.07-.37,.29-.6,.77-1.08,.92-.21,.11-.49,.13-.64,.32-.01,.03-.02,.05-.02,.08"/>
      <path class="cls-2" d="M21.46,13.1c-.07,.13-.11,.27-.2,.39-.27-.25-.66-.24-1.01-.25-.28-.02-.59-.04-.81-.24-.23-.19-.42-.43-.68-.59-.24-.06-.47-.14-.66-.31-.4-.33-.64-.82-1.03-1.16-.08-.07-.16-.13-.25-.19-.08,.02-.04,.19-.14,.1-.05-.04-.19-.04-.2,.01,.12,.16,.24,.34,.26,.54-.08,0-.23-.02-.27,.01,.11,.16,.25,.31,.41,.43-.08,.01-.23,0-.26,.04,.16,.13,.33,.26,.53,.29,.04,.06-.06,.16,.03,.21,.05,.02,.22,.06,.1,.11-.08,.05-.05,.18,.05,.18,.06,.03,.21,.04,.22,.1-.06,.06-.23,.13-.08,.18,.14,.08,.3,.13,.46,.13-.08,.07-.18,.11-.26,.17,.37,.22,.78,.36,1.19,.5,.16,.05,.33,.1,.49,.14-.49-.03-.96-.17-1.4-.37-.23-.1-.46-.2-.7-.29,.1-.05,.22-.07,.33-.11-.22-.04-.47-.06-.66-.18,.03-.05,.14-.06,.21-.08,.12-.03,.19-.06,.02-.07-.17-.05-.36-.03-.51-.13,0-.06,.16-.04,.23-.07,.08-.01,.17-.03,.23-.08-.26-.11-.6-.03-.8-.26-.05-.09,.15-.02,.2-.03,.14,0,.29,.04,.42-.01-.38-.17-.78-.32-1.07-.63-.03-.05-.13-.18-.05-.2,.22,.03,.39,.27,.63,.24,.03-.04-.14-.11-.18-.18-.35-.3-.69-.63-.94-1.02-.02-.13,.19-.15,.24-.05,.27,.26,.51,.56,.84,.74,.12,.06-.07-.07-.09-.11-.31-.36-.6-.74-.82-1.16-.04-.08-.1-.21,.01-.25,.12-.06,.23,.02,.29,.12,.23,.29,.39,.63,.68,.86-.24-.47-.5-.96-.5-1.5,0-.1,.01-.26,.15-.26,.12-.02,.1,.13,.14,.21,.12,.39,.17,.82,.4,1.17-.05-.29-.13-.59-.08-.89,.01-.1,.12-.13,.19-.07,.06,.14,.07,.32,.12,.47,.3,1.03,.98,1.94,1.86,2.54,.73,.5,1.59,.79,2.47,.85,.08,0,.16,0,.24,.01"/>
      <circle class="cls-2" cx="20.34" cy="14.42" r=".05"/>
      <circle class="cls-3" cx="20.34" cy="14.41" r=".02"/>
      <g id="D">
        <g id="E">
          <path class="cls-2" d="M2.35,1.46s-.19-.16-.26-.08c-.1,.13,.32,.78,.32,1.01,0,.38-.25,.48-.56,.53-.21,.04-.55-.02-.55-.02,.06-.09,.1-.11,.21-.12-.12-.06-.24-.2-.24-.41,0-.32,.13-.46,.13-.82,0-.2-.17-.46-.17-.46,.29,.03,.44,.3,.36,.52,.05,0,.09,0,.13-.04,.02,.06-.01,.13-.06,.19,.04,.02,.06,0,.12,0,0,.06-.04,.13-.13,.19,.26-.07,.42,.11,.42,.31,0,.14-.1,.25-.2,.25-.03,0-.08-.01-.11-.03-.02,.04,0,.09,.01,.13-.07-.02-.12-.06-.09-.15-.06,0-.1-.02-.13-.06,.03-.04,.08-.06,.13-.06-.04-.08,0-.13,.07-.17,0,0-.04,.17,.07,.17,.05,0,.09-.02,.09-.09,0-.06-.05-.15-.18-.14s-.23,.09-.23,.29c0,.18,.15,.28,.34,.28,.18,0,.31-.09,.31-.27,0-.24-.35-.8-.35-1.01,0-.16,.15-.25,.29-.25,.18,0,.34,.18,.34,.18l-.11,.14h0Z"/>
          <path id="F" class="cls-2" d="M2.39,5.84c0,.41-.36,.61-.65,.61-.39,0-.59-.23-.59-.53,0-.17,.03-.28,.11-.44l.88-1.83c.03-.06,.04-.14,.04-.24,0-.16-.16-.3-.33-.3-.15,0-.32,.14-.32,.31,0,.2,.1,.29,.21,.29,.13,0,.18-.05,.18-.15,0-.06-.03-.09-.08-.09-.11,0-.08,.15-.08,.15-.06-.01-.1-.07-.08-.14-.04,0-.08-.03-.11-.07,.03-.03,.07-.05,.11-.06-.03-.09,0-.13,.09-.15-.02,.03-.02,.06-.01,.09,.12-.03,.31,.02,.31,.23s-.14,.38-.41,.34c.06,.03,.1,.09,.1,.16-.05-.02-.1-.02-.1-.02,.03,.06,.08,.1,.07,.21-.05-.02-.1-.06-.16-.04,.1,.2-.02,.47-.34,.53,.12-.13,.17-.28,.17-.43,0-.47-.13-.55-.13-.88,0-.14,.07-.28,.21-.38h0c-.09-.02-.15-.06-.18-.13,.21-.06,.52-.06,.68,0,.19,.02,.32,.17,.36,.24s.11,.34,0,.58l-.9,1.9c-.04,.08-.06,.17-.06,.27,0,.24,.22,.32,.35,.32,.15,0,.3-.11,.3-.26,0-.09-.05-.14-.12-.14-.17,0-.16,.14-.13,.23-.11-.05-.17-.13-.15-.22-.06,0-.12-.04-.17-.1,.04-.05,.09-.09,.17-.09-.03-.14,.06-.2,.15-.23-.03,.1-.05,.22,.13,.22,.13,0,.23,.02,.28,.1v-.54c.02-.16-.2-.16-.35-.11,.05-.19,.16-.29,.42-.26-.06-.03-.13-.08-.13-.2,0-.15,.12-.32,.2-.37l.04,1.58h0Z"/>
          <path id="F-2" data-name="F" class="cls-2" d="M2.39,7.06c0-.41-.36-.61-.65-.61-.39,0-.59,.23-.59,.53,0,.17,.03,.28,.11,.44l.88,1.83c.03,.06,.04,.14,.04,.24,0,.16-.16,.3-.33,.3-.15,0-.32-.14-.32-.31,0-.2,.1-.29,.21-.29,.13,0,.18,.05,.18,.15,0,.06-.03,.09-.08,.09-.11,0-.08-.15-.08-.15-.06,.01-.1,.07-.08,.14-.04,0-.08,.03-.11,.07,.03,.03,.07,.05,.11,.06-.03,.09,0,.13,.09,.15-.02-.03-.02-.06-.01-.09,.12,.03,.31-.02,.31-.23s-.14-.38-.41-.34c.06-.03,.1-.09,.1-.16-.05,.02-.1,.02-.1,.02,.03-.06,.08-.1,.07-.21-.05,.02-.1,.06-.16,.04,.1-.2-.02-.47-.34-.53,.12,.13,.17,.28,.17,.43,0,.47-.13,.55-.13,.88,0,.14,.07,.28,.21,.38h0c-.09,.02-.15,.06-.18,.13,.21,.06,.52,.06,.68,0,.19-.02,.32-.17,.36-.24s.11-.34,0-.58l-.9-1.9c-.04-.08-.06-.17-.06-.27,0-.24,.22-.32,.35-.32,.15,0,.3,.11,.3,.26,0,.09-.05,.14-.12,.14-.17,0-.16-.14-.13-.23-.11,.05-.17,.13-.15,.22-.06,0-.12,.04-.17,.1,.04,.05,.09,.09,.17,.09-.03,.14,.06,.2,.15,.23-.03-.1-.05-.22,.13-.22,.13,0,.23-.02,.28-.1v.54c.02,.16-.2,.16-.35,.11,.05,.19,.16,.29,.42,.26-.06,.03-.13,.08-.13,.2,0,.15,.12,.32,.2,.37l.04-1.58h0Z"/>
        </g>
        <g id="E-2" data-name="E">
          <path class="cls-2" d="M2.35,1.46s.19-.16,.26-.08c.1,.13-.32,.78-.32,1.01,0,.38,.25,.48,.56,.53,.21,.04,.55-.02,.55-.02-.06-.09-.1-.11-.21-.12,.12-.06,.24-.2,.24-.41,0-.32-.13-.46-.13-.82,0-.2,.17-.46,.17-.46-.29,.03-.44,.3-.36,.52-.05,0-.09,0-.13-.04-.02,.06,.01,.13,.06,.19-.04,.02-.06,0-.12,0,0,.06,.04,.13,.13,.19-.26-.07-.42,.11-.42,.31,0,.14,.1,.25,.2,.25,.03,0,.08-.01,.11-.03,.02,.04,0,.09-.01,.13,.07-.02,.12-.06,.09-.15,.06,0,.1-.02,.13-.06-.03-.04-.08-.06-.13-.06,.04-.08,0-.13-.07-.17,0,0,.04,.17-.07,.17-.05,0-.09-.02-.09-.09,0-.06,.05-.15,.18-.14s.23,.09,.23,.29c0,.18-.15,.28-.34,.28-.18,0-.31-.09-.31-.27,0-.24,.35-.8,.35-1.01,0-.16-.15-.25-.29-.25-.18,0-.34,.18-.34,.18l.11,.14h0Z"/>
          <path id="F-3" data-name="F" class="cls-2" d="M2.3,5.84c0,.41,.36,.61,.65,.61,.39,0,.59-.23,.59-.53,0-.17-.03-.28-.11-.44l-.88-1.83c-.03-.06-.04-.14-.04-.24,0-.16,.16-.3,.33-.3,.15,0,.32,.14,.32,.31,0,.2-.1,.29-.21,.29-.13,0-.18-.05-.18-.15,0-.06,.03-.09,.08-.09,.11,0,.08,.15,.08,.15,.06-.01,.1-.07,.08-.14,.04,0,.08-.03,.11-.07-.03-.03-.07-.05-.11-.06,.03-.09,0-.13-.09-.15,.02,.03,.02,.06,.01,.09-.12-.03-.31,.02-.31,.23s.14,.38,.41,.34c-.06,.03-.1,.09-.1,.16,.05-.02,.1-.02,.1-.02-.03,.06-.08,.1-.07,.21,.05-.02,.1-.06,.16-.04-.1,.2,.02,.47,.34,.53-.12-.13-.17-.28-.17-.43,0-.47,.13-.55,.13-.88,0-.14-.07-.28-.21-.38h0c.09-.02,.15-.06,.18-.13-.21-.06-.52-.06-.68,0-.19,.02-.32,.17-.36,.24s-.11,.34,0,.58l.9,1.9c.04,.08,.06,.17,.06,.27,0,.24-.22,.32-.35,.32-.15,0-.3-.11-.3-.26,0-.09,.05-.14,.12-.14,.17,0,.16,.14,.13,.23,.11-.05,.17-.13,.15-.22,.06,0,.12-.04,.17-.1-.04-.05-.09-.09-.17-.09,.03-.14-.06-.2-.15-.23,.03,.1,.05,.22-.13,.22-.13,0-.23,.02-.28,.1v-.54c-.02-.16,.2-.16,.35-.11-.05-.19-.16-.29-.42-.26,.06-.03,.13-.08,.13-.2,0-.15-.12-.32-.2-.37l-.04,1.58h0Z"/>
          <path id="F-4" data-name="F" class="cls-2" d="M2.3,7.06c0-.41,.36-.61,.65-.61,.39,0,.59,.23,.59,.53,0,.17-.03,.28-.11,.44l-.88,1.83c-.03,.06-.04,.14-.04,.24,0,.16,.16,.3,.33,.3,.15,0,.32-.14,.32-.31,0-.2-.1-.29-.21-.29-.13,0-.18,.05-.18,.15,0,.06,.03,.09,.08,.09,.11,0,.08-.15,.08-.15,.06,.01,.1,.07,.08,.14,.04,0,.08,.03,.11,.07-.03,.03-.07,.05-.11,.06,.03,.09,0,.13-.09,.15,.02-.03,.02-.06,.01-.09-.12,.03-.31-.02-.31-.23s.14-.38,.41-.34c-.06-.03-.1-.09-.1-.16,.05,.02,.1,.02,.1,.02-.03-.06-.08-.1-.07-.21,.05,.02,.1,.06,.16,.04-.1-.2,.02-.47,.34-.53-.12,.13-.17,.28-.17,.43,0,.47,.13,.55,.13,.88,0,.14-.07,.28-.21,.38h0c.09,.02,.15,.06,.18,.13-.21,.06-.52,.06-.68,0-.19-.02-.32-.17-.36-.24s-.11-.34,0-.58l.9-1.9c.04-.08,.06-.17,.06-.27,0-.24-.22-.32-.35-.32-.15,0-.3,.11-.3,.26,0,.09,.05,.14,.12,.14,.17,0,.16-.14,.13-.23,.11,.05,.17,.13,.15,.22,.06,0,.12,.04,.17,.1-.04,.05-.09,.09-.17,.09,.03,.14-.06,.2-.15,.23,.03-.1,.05-.22-.13-.22-.13,0-.23-.02-.28-.1v.54c-.02,.16,.2,.16,.35,.11-.05,.19-.16,.29-.42,.26,.06,.03,.13,.08,.13,.2,0,.15-.12,.32-.2,.37l-.04-1.58h0Z"/>
        </g>
      </g>
      <g id="D-2" data-name="D">
        <g id="E-3" data-name="E">
          <path class="cls-2" d="M2.35,18.54s-.19,.16-.26,.08c-.1-.13,.32-.78,.32-1.01,0-.38-.25-.48-.56-.53-.21-.04-.55,.02-.55,.02,.06,.09,.1,.11,.21,.12-.12,.06-.24,.2-.24,.41,0,.32,.13,.46,.13,.82,0,.2-.17,.46-.17,.46,.29-.03,.44-.3,.36-.52,.05,0,.09,0,.13,.04,.02-.06-.01-.13-.06-.19,.04-.02,.06,0,.12,0,0-.06-.04-.13-.13-.19,.26,.07,.42-.11,.42-.31,0-.14-.1-.25-.2-.25-.03,0-.08,.01-.11,.03-.02-.04,0-.09,.01-.13-.07,.02-.12,.06-.09,.15-.06,0-.1,.02-.13,.06,.03,.04,.08,.06,.13,.06-.04,.08,0,.13,.07,.17,0,0-.04-.17,.07-.17,.05,0,.09,.02,.09,.09,0,.06-.05,.15-.18,.14s-.23-.09-.23-.29c0-.18,.15-.28,.34-.28,.18,0,.31,.09,.31,.27,0,.24-.35,.8-.35,1.01,0,.16,.15,.25,.29,.25,.18,0,.34-.18,.34-.18l-.11-.14h0Z"/>
          <path id="F-5" data-name="F" class="cls-2" d="M2.39,14.16c0-.41-.36-.61-.65-.61-.39,0-.59,.23-.59,.53,0,.17,.03,.28,.11,.44l.88,1.83c.03,.06,.04,.14,.04,.24,0,.16-.16,.3-.33,.3-.15,0-.32-.14-.32-.31,0-.2,.1-.29,.21-.29,.13,0,.18,.05,.18,.15,0,.06-.03,.09-.08,.09-.11,0-.08-.15-.08-.15-.06,.01-.1,.07-.08,.14-.04,0-.08,.03-.11,.07,.03,.03,.07,.05,.11,.06-.03,.09,0,.13,.09,.15-.02-.03-.02-.06-.01-.09,.12,.03,.31-.02,.31-.23s-.14-.38-.41-.34c.06-.03,.1-.09,.1-.16-.05,.02-.1,.02-.1,.02,.03-.06,.08-.1,.07-.21-.05,.02-.1,.06-.16,.04,.1-.2-.02-.47-.34-.53,.12,.13,.17,.28,.17,.43,0,.47-.13,.55-.13,.88,0,.14,.07,.28,.21,.38h0c-.09,.02-.15,.06-.18,.13,.21,.06,.52,.06,.68,0,.19-.02,.32-.17,.36-.24s.11-.34,0-.58l-.9-1.9c-.04-.08-.06-.17-.06-.27,0-.24,.22-.32,.35-.32,.15,0,.3,.11,.3,.26,0,.09-.05,.14-.12,.14-.17,0-.16-.14-.13-.23-.11,.05-.17,.13-.15,.22-.06,0-.12,.04-.17,.1,.04,.05,.09,.09,.17,.09-.03,.14,.06,.2,.15,.23-.03-.1-.05-.22,.13-.22,.13,0,.23-.02,.28-.1v.54c.02,.16-.2,.16-.35,.11,.05,.19,.16,.29,.42,.26-.06,.03-.13,.08-.13,.2,0,.15,.12,.32,.2,.37l.04-1.58h0Z"/>
          <path id="F-6" data-name="F" class="cls-2" d="M2.39,12.94c0,.41-.36,.61-.65,.61-.39,0-.59-.23-.59-.53,0-.17,.03-.28,.11-.44l.88-1.83c.03-.06,.04-.14,.04-.24,0-.16-.16-.3-.33-.3-.15,0-.32,.14-.32,.31,0,.2,.1,.29,.21,.29,.13,0,.18-.05,.18-.15,0-.06-.03-.09-.08-.09-.11,0-.08,.15-.08,.15-.06-.01-.1-.07-.08-.14-.04,0-.08-.03-.11-.07,.03-.03,.07-.05,.11-.06-.03-.09,0-.13,.09-.15-.02,.03-.02,.06-.01,.09,.12-.03,.31,.02,.31,.23s-.14,.38-.41,.34c.06,.03,.1,.09,.1,.16-.05-.02-.1-.02-.1-.02,.03,.06,.08,.1,.07,.21-.05-.02-.1-.06-.16-.04,.1,.2-.02,.47-.34,.53,.12-.13,.17-.28,.17-.43,0-.47-.13-.55-.13-.88,0-.14,.07-.28,.21-.38h0c-.09-.02-.15-.06-.18-.13,.21-.06,.52-.06,.68,0,.19,.02,.32,.17,.36,.24s.11,.34,0,.58l-.9,1.9c-.04,.08-.06,.17-.06,.27,0,.24,.22,.32,.35,.32,.15,0,.3-.11,.3-.26,0-.09-.05-.14-.12-.14-.17,0-.16,.14-.13,.23-.11-.05-.17-.13-.15-.22-.06,0-.12-.04-.17-.1,.04-.05,.09-.09,.17-.09-.03-.14,.06-.2,.15-.23-.03,.1-.05,.22,.13,.22,.13,0,.23,.02,.28,.1v-.54c.02-.16-.2-.16-.35-.11,.05-.19,.16-.29,.42-.26-.06-.03-.13-.08-.13-.2,0-.15,.12-.32,.2-.37l.04,1.58h0Z"/>
        </g>
        <g id="E-4" data-name="E">
          <path class="cls-2" d="M2.35,18.54s.19,.16,.26,.08c.1-.13-.32-.78-.32-1.01,0-.38,.25-.48,.56-.53,.21-.04,.55,.02,.55,.02-.06,.09-.1,.11-.21,.12,.12,.06,.24,.2,.24,.41,0,.32-.13,.46-.13,.82,0,.2,.17,.46,.17,.46-.29-.03-.44-.3-.36-.52-.05,0-.09,0-.13,.04-.02-.06,.01-.13,.06-.19-.04-.02-.06,0-.12,0,0-.06,.04-.13,.13-.19-.26,.07-.42-.11-.42-.31,0-.14,.1-.25,.2-.25,.03,0,.08,.01,.11,.03,.02-.04,0-.09-.01-.13,.07,.02,.12,.06,.09,.15,.06,0,.1,.02,.13,.06-.03,.04-.08,.06-.13,.06,.04,.08,0,.13-.07,.17,0,0,.04-.17-.07-.17-.05,0-.09,.02-.09,.09,0,.06,.05,.15,.18,.14s.23-.09,.23-.29c0-.18-.15-.28-.34-.28-.18,0-.31,.09-.31,.27,0,.24,.35,.8,.35,1.01,0,.16-.15,.25-.29,.25-.18,0-.34-.18-.34-.18l.11-.14h0Z"/>
          <path id="F-7" data-name="F" class="cls-2" d="M2.3,14.16c0-.41,.36-.61,.65-.61,.39,0,.59,.23,.59,.53,0,.17-.03,.28-.11,.44l-.88,1.83c-.03,.06-.04,.14-.04,.24,0,.16,.16,.3,.33,.3,.15,0,.32-.14,.32-.31,0-.2-.1-.29-.21-.29-.13,0-.18,.05-.18,.15,0,.06,.03,.09,.08,.09,.11,0,.08-.15,.08-.15,.06,.01,.1,.07,.08,.14,.04,0,.08,.03,.11,.07-.03,.03-.07,.05-.11,.06,.03,.09,0,.13-.09,.15,.02-.03,.02-.06,.01-.09-.12,.03-.31-.02-.31-.23s.14-.38,.41-.34c-.06-.03-.1-.09-.1-.16,.05,.02,.1,.02,.1,.02-.03-.06-.08-.1-.07-.21,.05,.02,.1,.06,.16,.04-.1-.2,.02-.47,.34-.53-.12,.13-.17,.28-.17,.43,0,.47,.13,.55,.13,.88,0,.14-.07,.28-.21,.38h0c.09,.02,.15,.06,.18,.13-.21,.06-.52,.06-.68,0-.19-.02-.32-.17-.36-.24s-.11-.34,0-.58l.9-1.9c.04-.08,.06-.17,.06-.27,0-.24-.22-.32-.35-.32-.15,0-.3,.11-.3,.26,0,.09,.05,.14,.12,.14,.17,0,.16-.14,.13-.23,.11,.05,.17,.13,.15,.22,.06,0,.12,.04,.17,.1-.04,.05-.09,.09-.17,.09,.03,.14-.06,.2-.15,.23,.03-.1,.05-.22-.13-.22-.13,0-.23-.02-.28-.1v.54c-.02,.16,.2,.16,.35,.11-.05,.19-.16,.29-.42,.26,.06,.03,.13,.08,.13,.2,0,.15-.12,.32-.2,.37l-.04-1.58h0Z"/>
          <path id="F-8" data-name="F" class="cls-2" d="M2.3,12.94c0,.41,.36,.61,.65,.61,.39,0,.59-.23,.59-.53,0-.17-.03-.28-.11-.44l-.88-1.83c-.03-.06-.04-.14-.04-.24,0-.16,.16-.3,.33-.3,.15,0,.32,.14,.32,.31,0,.2-.1,.29-.21,.29-.13,0-.18-.05-.18-.15,0-.06,.03-.09,.08-.09,.11,0,.08,.15,.08,.15,.06-.01,.1-.07,.08-.14,.04,0,.08-.03,.11-.07-.03-.03-.07-.05-.11-.06,.03-.09,0-.13-.09-.15,.02,.03,.02,.06,.01,.09-.12-.03-.31,.02-.31,.23s.14,.38,.41,.34c-.06,.03-.1,.09-.1,.16,.05-.02,.1-.02,.1-.02-.03,.06-.08,.1-.07,.21,.05-.02,.1-.06,.16-.04-.1,.2,.02,.47,.34,.53-.12-.13-.17-.28-.17-.43,0-.47,.13-.55,.13-.88,0-.14-.07-.28-.21-.38h0c.09-.02,.15-.06,.18-.13-.21-.06-.52-.06-.68,0-.19,.02-.32,.17-.36,.24s-.11,.34,0,.58l.9,1.9c.04,.08,.06,.17,.06,.27,0,.24-.22,.32-.35,.32-.15,0-.3-.11-.3-.26,0-.09,.05-.14,.12-.14,.17,0,.16,.14,.13,.23,.11-.05,.17-.13,.15-.22,.06,0,.12-.04,.17-.1-.04-.05-.09-.09-.17-.09,.03-.14-.06-.2-.15-.23,.03,.1,.05,.22-.13,.22-.13,0-.23,.02-.28,.1v-.54c-.02-.16,.2-.16,.35-.11-.05-.19-.16-.29-.42-.26,.06-.03,.13-.08,.13-.2,0-.15-.12-.32-.2-.37l-.04,1.58h0Z"/>
        </g>
      </g>
    </g>
  </g>
</svg>