<?xml version="1.0" encoding="UTF-8"?>
<svg id="Layer_1" data-name="Layer 1" xmlns="http://www.w3.org/2000/svg" viewBox="0 0 431.62 103.8">
  <defs>
    <style>
      .cls-1 {
        fill: #fff;
      }
    </style>
  </defs>
  <path class="cls-1" d="M112.12,51.49c.49-18.43,14.26-29.44,30.92-29.5,16.78-.06,30.74,11.62,30.64,29.92-.1,18.53-13.75,29.99-30.96,29.9-16.67-.08-30.28-11.2-30.6-30.32Zm30.82,15.85c8.73,0,15.66-6.84,15.71-15.48,.04-8.46-7.12-15.55-15.72-15.56-8.42,0-15.7,7.09-15.73,15.35-.03,8.74,6.95,15.71,15.74,15.7Z"/>
  <path class="cls-1" d="M43.27,49.55c1.92,.88,3.63,1.55,5.24,2.41,2.3,1.24,3.38,3.45,4.3,5.78,3.35,8.56-1.13,18.05-9.92,20.51-2.62,.73-5.41,1.14-8.13,1.21-7.08,.17-14.16,.04-21.24,.11-1.83,.02-2.43-.58-2.42-2.47,.07-16.85,.06-33.7,0-50.54,0-2.02,.58-2.74,2.69-2.69,6.41,.13,12.82-.01,19.23,.08,3.75,.05,7.23,.86,10.58,2.94,5.91,3.69,7.06,17.69,.4,21.87-.23,.14-.38,.41-.72,.79Zm-12.82,6.87s0,.06-.01,.08c-.89,0-1.78,.01-2.67,0-1.29-.02-1.93,.62-1.92,1.9,0,2.68-.08,5.36,.12,8.02,.05,.64,1.11,1.73,1.66,1.7,2.64-.12,5.35-.28,7.89-.94,2.64-.69,3.8-2.74,3.61-5.18-.21-2.71-1.74-4.51-4.49-5.08-1.37-.28-2.79-.35-4.19-.52Zm-4.57-16.05c0,5.63,1.15,6.57,5.91,4.84,.21-.08,.41-.17,.62-.26,2.83-1.27,3.83-5.02,2.03-7.56-1.32-1.86-5.43-3.26-7.5-2.3-2,.93-.73,2.91-1.05,4.39-.06,.29,0,.59,0,.89Z"/>
  <path class="cls-1" d="M232.2,51.82c0-8.42,.04-16.85-.03-25.27-.02-1.99,.57-2.84,2.69-2.74,3.12,.15,6.26,.15,9.39,0,1.95-.09,2.49,.74,2.47,2.49-.06,5.44,.04,10.88-.1,16.32-.06,2.17,.68,2.89,2.82,2.84,5.22-.11,10.44-.12,15.65,0,1.93,.04,2.48-.72,2.46-2.49-.07-5.51,0-11.03-.1-16.55-.03-1.92,.63-2.68,2.59-2.62,3.2,.11,6.41,.07,9.61,0,1.7-.04,2.43,.62,2.42,2.36-.03,17.07-.04,34.14,0,51.21,0,1.72-.77,2.21-2.31,2.19-3.28-.04-6.56-.07-9.84,0-1.79,.04-2.5-.56-2.47-2.46,.11-5.96,0-11.93,.08-17.89,.03-1.81-.48-2.53-2.41-2.49-5.21,.11-10.43,.09-15.65,0-2.05-.03-2.92,.52-2.85,2.8,.17,5.96,.03,11.92,.1,17.89,.02,1.52-.44,2.19-2.03,2.15-3.35-.08-6.71-.12-10.06-.02-1.88,.06-2.46-.64-2.45-2.48,.07-8.42,.03-16.85,.03-25.27h-.01Z"/>
  <path class="cls-1" d="M421.23,79.24c-.56,.11-1.15,.34-1.74,.34-4.32,0-8.65-.13-12.97-.01-1.95,.05-3.24-.56-4.25-2.2-3.53-5.69-7.13-11.34-10.71-17-.19-.29-.44-.55-1.07-1.33-.21,1.39-.45,2.25-.45,3.12-.03,5-.07,9.99,.04,14.99,.04,1.75-.54,2.46-2.27,2.44-3.35-.04-6.71-.02-10.06,0-1.53,0-2.25-.55-2.25-2.26,.05-17,.04-34,0-51,0-1.86,.75-2.48,2.54-2.46,6.78,.07,13.57,0,20.36,.08,4.71,.06,9.18,.91,12.76,4.4,9.27,9,5.92,24.51-4.53,27.8-1.99,.63-2.03,1.14-.71,2.82,5.09,6.5,10.16,13.02,15.22,19.54,.08,.1,.04,.28,.09,.76Zm-31.24-37.26s.03,0,.04,0c0,.59,0,1.19,0,1.78,0,5.41,.67,6,5.98,4.83,2.58-.57,4.38-2.26,5.23-4.71,.86-2.46,.18-4.78-1.62-6.57-2.3-2.28-5.33-2.46-8.33-2.19-.49,.04-1.16,1.24-1.25,1.97-.19,1.61-.06,3.26-.06,4.9Z"/>
  <path class="cls-1" d="M108.94,79.4c-.76,.07-1.39,.18-2.03,.18-4.4,0-8.8-.09-13.19,0-1.61,.03-2.66-.53-3.5-1.86-3.37-5.35-6.77-10.67-10.18-15.99-.55-.86-1.19-1.65-2.21-3.06-.16,1.26-.31,1.85-.31,2.44,.04,5.37,.07,10.73,.19,16.1,.04,1.73-.56,2.42-2.34,2.37-3.35-.1-6.71-.09-10.06,0-1.58,.04-2.1-.56-2.09-2.09,.03-17.07,.02-34.15,0-51.22,0-1.63,.47-2.41,2.32-2.39,6.86,.1,13.72,0,20.58,.07,4.47,.05,8.66,.91,12.26,3.96,8.61,7.29,7.92,24.17-4.13,28.24-1.66,.56-1.89,1.26-.72,2.73,5.18,6.52,10.25,13.13,15.35,19.71,.08,.1,.03,.28,.09,.83Zm-31.28-37.53s0,0,.01,0c0,.67,0,1.34,0,2.01,0,5.12,1.22,6.01,6.32,4.63,.21-.06,.43-.11,.64-.19,3.72-1.42,5.41-5.14,4.02-8.89-1.18-3.17-6.96-5.68-9.99-4.22-.5,.24-.9,1.14-.95,1.76-.13,1.63-.04,3.27-.04,4.91Z"/>
  <path class="cls-1" d="M222.85,61.54c.08,1.17,.15,1.8,.15,2.44,.02,4.03-.04,8.05,.08,12.08,.04,1.48-.59,2.14-1.84,2.64-13.64,5.45-30.03-.18-37.32-12.85-5.73-9.95-4.06-24.33,3.58-33.03,5.77-6.57,13.16-9.86,21.59-10.22,4.17-.18,8.44,1.44,12.62,2.43,.57,.14,1.26,1.31,1.28,2.03,.12,4.4,.08,8.8,.04,13.19,0,.42-.39,.84-.6,1.27-.44-.22-.96-.36-1.31-.68-4.36-4.15-9.54-5.1-15.12-3.46-5.64,1.65-8.99,5.58-10.05,11.4-2.58,14.19,10.95,20.91,20.33,16.98,1.62-.68,3.04-1.81,4.54-2.76,.57-.36,1.1-.78,2.02-1.44Z"/>
  <path class="cls-1" d="M308.31,52.05c0,8.27-.05,16.53,.04,24.8,.02,2.03-.58,2.82-2.68,2.72-2.97-.15-5.96-.05-8.93-.04-2.91,.01-2.91,.02-2.91-2.79,0-15.71,0-31.42,0-47.14,0-1.34-.2-2.72,.08-4,.15-.67,1.09-1.64,1.71-1.67,3.57-.16,7.14-.07,10.72-.1,2-.02,1.98,1.34,1.98,2.75,0,8.49,0,16.98,0,25.47h0Z"/>
  <path class="cls-1" d="M341.41,57.22c-6.11,0-12.22-.04-18.33,.03-1.87,.02-2.75-.51-2.59-2.55,.16-2.07,.17-4.18,0-6.25-.19-2.29,1-2.54,2.84-2.53,11.1,.05,22.21,.04,33.32,.04q5.95,0,5.96,5.98,0,5.28-5.31,5.27c-5.29,0-10.58,0-15.88,0v.02Z"/>
  <path class="cls-1" d="M341.63,23.69c6.26,0,12.51,.05,18.77-.03,1.64-.02,2.31,.47,2.24,2.16-.1,2.38-.07,4.77,0,7.15,.04,1.45-.57,2.01-1.98,2.01-12.66-.02-25.32-.03-37.98-.01-1.64,0-2.26-.64-2.19-2.28,.1-2.23,.1-4.47,0-6.7-.09-1.79,.67-2.33,2.37-2.31,6.26,.06,12.51,.02,18.77,.02Z"/>
  <path class="cls-1" d="M341.69,68.18c6.19,0,12.38,.05,18.57-.03,1.71-.02,2.48,.47,2.38,2.29-.12,2.31-.07,4.62-.03,6.93,.03,1.54-.63,2.08-2.16,2.07-12.53-.04-25.06-.05-37.58,.01-1.92,0-2.49-.74-2.39-2.53,.11-1.93,.04-3.88,.03-5.82-.01-2.82,.09-2.94,2.83-2.94,6.11,0,12.23,0,18.34,0Z"/>
  <path class="cls-1" d="M10.4,78.6V24.98c.08,0,.15,0,.23,0v53.66c-.08-.01-.15-.03-.23-.04Z"/>
</svg>