<?xml version="1.0" encoding="UTF-8"?>
<svg id="Layer_1" data-name="Layer 1" xmlns="http://www.w3.org/2000/svg" viewBox="0 0 3470.78 709.52">
  <defs>
    <style>
      .cls-1 {
        fill: #fff;
      }
    </style>
  </defs>
  <g>
    <path class="cls-1" d="M815.48,266.62c1.16,46.5-.21,102.54-15.28,157.24-39.75,144.3-133.64,234.65-277.76,270.49-110.08,27.38-218.49,18.63-320.59-33.94-103.19-53.14-164.3-139.27-190.11-251.43C2.74,369.8-.21,329.98,.01,289.84c.19-34.16-.02-68.32,.06-102.48,.04-15.14,4.74-20.01,19.39-20.09,20.82-.11,41.64-.17,62.45,.02,20.04,.18,31.61,10.14,33.5,30.35,3.57,38.27,5.99,76.63,7.41,115.06,1.98,53.74,13.49,104.97,42.42,151.12,35.48,56.58,86.67,92.41,150.63,109.27,82.09,21.64,162.64,17.68,239.18-21.83,73.02-37.7,114-99.51,130.89-178.74,8.08-37.91,6.19-76.54,9.16-114.81,1.39-17.99,1.62-36.06,2.77-54.07,1.57-24.62,13.94-36.27,38.24-36.38,20.03-.09,40.06-.1,60.1,0,14.24,.07,19.16,4.84,19.24,18.95,.15,23.56,.04,47.12,.04,80.41Z"/>
    <path class="cls-1" d="M331.79,101.05c31.46-13.16,64.61-17.06,97.88-12.99,78.11,9.55,137.04,49.24,170.63,120.69,38,80.85,26.91,157.73-27.47,228.36-4.24,5.5-7.85,11.81-14.17,15.5-3.38-4.1-5.37,.03-7.77,1.36-38.04,21.12-79.09,30.96-122.09,26.37-55.24-5.9-102.21-29.58-138.37-73.01-46.7-56.08-58.39-119.8-40.38-189.19,12.23-47.16,39.93-84.31,80.09-112.06,1.77-1.22,4.74-2.16,1.65-5.03Zm168,141.95c21.37,2.9,39.24-16.46,38.07-37.46-1.5-26.82-20.42-48.45-51.69-55.52-23.48-5.31-47.73,15.52-45.12,39.31,3.09,28.04,31.45,56.46,58.73,53.67Z"/>
    <path class="cls-1" d="M331.79,101.05c3.08,2.86,.12,3.81-1.65,5.03-40.15,27.75-67.85,64.9-80.09,112.06-18,69.39-6.31,133.11,40.38,189.19,36.16,43.43,83.13,67.11,138.37,73.01,43,4.59,84.05-5.25,122.09-26.37,2.4-1.33,4.38-5.46,7.77-1.36-33.82,34.69-75.16,55.39-122.89,60.73-84.63,9.48-154.1-20.13-203.38-89.61-80.67-113.75-32.44-269.91,95.92-322.08,1.06-.43,2.31-.41,3.47-.6Z"/>
    <path class="cls-1" d="M598.84,0c30.33,.06,54.19,24.18,54.04,54.61-.15,29.39-25.5,53.98-55.49,53.84-29.2-.14-53.02-24.71-53-54.65C544.4,22.77,567.52-.06,598.84,0Z"/>
  </g>
  <g>
    <path class="cls-1" d="M2501.07,299.44c57.77-43.49,145.6-36.68,192.09,3.49,31.23,26.98,48.96,61.1,55.17,101.41,7.25,47.08,3.51,92.87-21.36,134.63-31.36,52.66-78.61,80.32-139.65,84.23-43,2.76-82.43-6.53-115.15-36.37-4.75-4.33-7.62-2.59-11.39,.92-9.1,8.47-18.44,16.68-27.73,24.96-3.05,2.72-5.8,5.48-10.46,6.04-18.91,2.28-20.46,1.09-20.46-17.86,0-150.89,.19-301.78-.34-452.67-.05-13.04,3.66-15.91,15.88-15.4,23.6,.98,47.28,.89,70.89,.02,10.81-.4,12.84,3.29,12.73,13.27-.53,46.42-.23,92.85-.23,139.28,0,4.03,0,8.07,0,14.06Zm-1.75,136.11c0,16.17-.13,32.33,.04,48.5,.18,17.76,5,33.34,20.35,44.4,38.62,27.83,102.19,10.8,120.49-33.02,12.61-30.18,13.15-61.21,2.83-92.24-5.72-17.19-16.1-31.45-32.58-39.09-33.72-15.63-67.46-14.03-100.24,3.61-7.54,4.05-11.19,10.42-10.99,19.35,.36,16.16,.1,32.33,.11,48.49Z"/>
    <path class="cls-1" d="M2173.47,623.53c-67.81-.66-124.94-23.75-160.09-84.36-57.62-99.36-13.53-246.95,127.26-266.95,49.81-7.08,97.96-1.72,140.89,26.58,58.65,38.65,81.87,95.59,76.36,163.61-6.78,83.73-57.23,139.16-138.67,156.92-15.01,3.27-30.27,4.69-45.75,4.21Zm83.78-180.29c.54-5.38-1.21-14.38-2.96-23.3-6.89-35.14-31.64-59.07-66.56-64.73-34.45-5.58-67.49,9.09-83.87,38.3-13.52,24.11-15.9,50.34-10.74,77.09,6.19,32.04,23.1,56.48,55.78,64.96,33.86,8.79,65.22,3.36,88.71-25.7,14.75-18.25,19.01-39.99,19.63-66.63Z"/>
    <path class="cls-1" d="M2959.24,623.62c-62.93-.37-115.84-20.7-152.93-72.31-65.1-90.6-34.31-255.05,117.54-278.88,45.62-7.16,90.33-3.11,131.51,19.69,52.86,29.27,82.22,74.81,87.45,134.76,4.57,52.31-6.44,100.45-43.6,140.3-38.21,40.97-86.41,56.37-139.97,56.44Zm81.91-176.2c0-5.79,.63-11.67-.1-17.36-4.23-32.6-18.4-59.01-50.99-70.21-32.29-11.1-63.07-7.56-88.53,17.78-23.54,23.42-26.84,53.11-24.48,84.1,3.24,42.47,33.5,74.29,72.53,76.9,47.73,3.19,79.46-19.98,89.93-65.3,1.99-8.61,1.78-17.25,1.64-25.9Z"/>
    <path class="cls-1" d="M3142.18,277c34.39,0,68.67,.05,102.94-.04,5.95-.02,7.34,4.71,9.51,8.5,14.65,25.5,29.15,51.07,43.76,76.6,1.98,3.47,4.24,6.78,7.34,11.7,14.27-25.26,29.32-48.18,40.48-72.86,8.9-19.67,20.91-26.03,41.88-24.4,25.53,1.98,51.32,.47,76.96,.47,1.87,5.45-2.14,8.21-4.09,11.41-29.42,48.04-58.87,96.06-88.79,143.79-4.41,7.03-4.32,11.82,.01,18.83,32.03,51.78,63.41,103.96,95.42,155.75,5.45,8.82,4.13,10.86-5.93,10.73-28.6-.38-57.22-.47-85.82,.07-8.63,.16-13.51-2.66-17.61-10.18-15.49-28.35-31.57-56.37-47.44-84.5-2.21-3.92-4.5-7.81-8.08-13.99-7.42,12.9-13.94,24.15-20.37,35.45-12.08,21.24-24.38,42.36-36,63.85-3.64,6.72-7.87,9.42-15.57,9.31-28.19-.4-56.38-.1-84.58-.23-3.49-.02-8.48,1.85-9.94-2.39-.77-2.23,2.06-5.97,3.75-8.72,31.27-50.79,62.41-101.66,94.13-152.18,5.27-8.4,5.85-14.36,.34-23.12-29.55-46.98-58.35-94.43-87.33-141.77-2.08-3.4-5.2-6.46-5-12.09Z"/>
    <path class="cls-1" d="M1702,366.87c-28.99-8.35-56.2-15.51-84.25-18.56-16.91-1.84-33.91-3.3-50.61,1.51-10.35,2.98-17.89,9.18-18.8,20.6-.94,11.77,5.23,19.67,15.56,24.47,20.15,9.37,42.17,11.7,63.46,16.84,26.84,6.48,52.48,15.5,71.71,36.99,34.94,39.06,31.74,122.39-33.23,155.03-21.47,10.78-44.21,16.9-67.84,18.71-47.08,3.6-93.5-.69-138.96-14.21-8.34-2.48-12.07-6.16-11.65-15.58,.85-19.04,.67-38.15,.08-57.21-.31-10.08,1.51-12.96,12.26-9.18,36.92,12.99,74.74,21.77,114.35,19.91,10.44-.49,20.67-1.99,30.31-6.05,10.85-4.57,17.46-12.74,17.64-24.79,.18-11.63-6.13-19.33-16.48-24.07-17.94-8.22-37.38-10.58-56.42-14.34-12.25-2.42-24.16-5.67-35.81-10.03-42.54-15.9-62.9-44.1-64.33-89.18-1.28-40.04,21.6-76.26,58.87-93.1,38.44-17.37,79.09-16.38,119.76-13.61,22.3,1.52,44.37,5.33,66,11.33,4.62,1.28,8.55,2.21,8.49,8.49-.23,24.84-.09,49.69-.09,76.02Z"/>
    <path class="cls-1" d="M1123.57,623.47c-66.62-.23-122.04-23.61-157.52-82.1-51.33-84.61-27.14-239.08,112.78-267.48,53.67-10.89,105.74-4.99,151.46,29.24,9.66,7.23,17.74,16.16,25.76,25.14,4.42,4.94,3.75,8.19-1.4,12.03-18.62,13.86-37.17,27.82-55.42,42.15-6.28,4.93-9.36,1.25-13.24-2.87-19.8-21.03-44.79-27.71-72.54-24.39-34.19,4.08-58.06,26.19-66.31,60.1-5.09,20.9-4.91,41.92,.51,62.69,15.93,61.04,94.62,82.87,140.28,38.48,8.09-7.87,12.85-8.09,21.1-1.23,15.28,12.72,31.03,24.97,47.4,36.23,8.49,5.84,7.02,9.64,1.44,16.2-25.35,29.76-57.85,46.33-95.87,52.87-12.66,2.18-25.45,3.53-38.42,2.94Z"/>
    <path class="cls-1" d="M1789.99,452.83c-.02-27.76-.25-55.53,.13-83.28,.11-7.91-2.08-11.83-10.44-10.66-1.22,.17-2.48,.02-3.73,.02q-29.26-.12-29.26-28.78c0-14.92,.26-29.84-.11-44.75-.16-6.57,2.25-8.81,8.65-8.5,8.27,.39,16.6-.3,24.86,.2,7.57,.46,10.15-2.32,10.02-9.93-.39-22.78,.23-45.59-.32-68.36-.21-8.73,2.5-11.3,11.19-11.13,26.1,.53,52.23,.45,78.33,.03,7.56-.12,10.07,2,9.92,9.75-.46,23.19,.07,46.41-.3,69.61-.12,7.58,2.44,10.21,10.02,10.05,18.64-.39,37.31,.17,55.95-.27,7.45-.17,10.3,1.99,10.14,9.76-.42,20.71-.46,41.44,.01,62.15,.2,8.53-3.32,10.51-11.08,10.33-18.23-.43-36.48,.1-54.71-.25-7.09-.14-10.4,1.41-10.35,9.51,.32,48.89,0,97.79,.28,146.68,.09,15.4,7.6,22.56,22.87,23.74,11.81,.91,23.19-1.16,33.96-5.79,6.1-2.62,8.71-1.46,10.66,5.02,6.19,20.6,12.74,41.09,19.69,61.44,1.98,5.78,.51,8.03-4.77,10.1-40.6,15.88-82.22,19.73-124.13,7.56-37.89-11.01-56.69-40.04-57.38-84.68-.41-26.51-.07-53.04-.09-79.55Z"/>
    <path class="cls-1" d="M1296.4,446.32c0-52.6,.23-105.19-.21-157.79-.08-9.27,2.39-12.05,11.76-11.81,25.25,.64,50.54,.48,75.8,.07,8.12-.13,11.7,1.51,11.68,10.76-.3,106.43-.27,212.87-.04,319.3,.02,8.24-2.77,10.75-10.77,10.63-26.09-.37-52.2-.47-78.29,.05-8.68,.17-10.1-3.32-10.07-10.94,.27-53.42,.14-106.85,.14-160.27Z"/>
    <path class="cls-1" d="M1229.57,138.14c-24.81,32.72-47.83,63.03-70.76,93.4-2.99,3.97-6.51,5.73-11.59,5.67-18.23-.23-36.46-.1-54.69-.08-3.36,0-6.58-.06-8.96-3.1-24.36-31.23-48.75-62.44-74.84-95.83,22.22,0,41.86,.02,61.49-.01,4.35,0,6.49,3.33,9,5.94,10.91,11.35,21.91,22.61,32.43,34.31,4.94,5.49,8.39,6.16,13.85,.41,11.4-12.01,23.51-23.35,35.34-34.95,2.94-2.88,5.62-5.86,10.44-5.81,18.53,.17,37.06,.07,58.28,.07Z"/>
    <path class="cls-1" d="M1346.14,237.85c-41.38,.07-66.78-31.04-54.94-67.28,7.1-21.72,30.68-35.76,57.68-34.34,38.25,2.01,61.12,30.72,51.89,65.13-5.94,22.12-27.38,36.45-54.63,36.49Z"/>
  </g>
</svg>