<?xml version="1.0" encoding="UTF-8"?>
<svg id="Layer_1" data-name="Layer 1" xmlns="http://www.w3.org/2000/svg" viewBox="0 0 432.6 103.8">
  <defs>
    <style>
      .cls-1 {
        fill: #fff;
      }
    </style>
  </defs>
  <path class="cls-1" d="M282.69,93.91V9.7c1.86-.1,3.5-.27,5.13-.27,24.85-.02,49.71,.05,74.56-.08,3.24-.02,5.25,.86,7.02,3.65,4.39,6.94,9.13,13.65,14.31,21.31,4.8-7.12,9.37-13.48,13.46-20.13,2.18-3.55,4.64-5.1,8.94-4.87,7.07,.39,14.17,.11,22.7,.11-10.8,13.61-20.95,26.39-31.31,39.45,10.58,14.74,21.07,29.34,32.35,45.05-6.39,0-11.94-.65-17.26,.14-10.46,1.56-17.01-2-20.97-11.97-2.51-6.32-6.74-11.96-10.61-18.62-5.46,8.87-10.79,17.01-15.54,25.47-2.21,3.95-4.82,5.13-9.24,5.08-22.31-.23-44.63-.11-66.95-.11-2.01,0-4.03,0-6.59,0Zm61.99-50.37c0,4.64-.17,8.8,.05,12.93,.18,3.34-1.15,4.43-4.4,4.36-7.43-.16-14.86-.05-22.3-.04-11.94,0-11.82,0-11.73,12.14,.02,3.45,1,4.75,4.59,4.69,10.47-.18,20.95,.09,31.41-.2,1.98-.06,4.49-1.43,5.75-3,4.55-5.62,8.64-11.6,12.95-17.42,5.31-7.18,5.35-7.19,.15-14.21-3.9-5.27-6.86-12.51-12.12-15.13-5.45-2.71-13.18-.98-19.91-1.06-7.39-.09-14.78-.02-22.75-.02,0,4.36,.25,8.03-.07,11.65-.37,4.18,1.1,5.51,5.36,5.4,10.77-.28,21.54-.09,33.01-.09Z"/>
  <path class="cls-1" d="M174.76,9.28c11.9,0,23.54-.11,35.16,.18,1.13,.03,2.83,2.41,3.21,3.96,3.73,15.37,7.24,30.8,10.83,46.21,.25,1.09,.65,2.15,2.05,3.33,4.14-17.82,8.28-35.64,12.44-53.52h36.73V93.57h-19.76V26.75c-.4-.07-.79-.14-1.19-.21-.51,1.62-1.08,3.23-1.53,4.87-5.24,19.16-10.57,38.29-15.6,57.5-1.05,4.02-2.79,5.52-6.95,5.13-5.52-.51-12.53,1.46-16.21-1.25-3.43-2.53-3.4-9.77-4.78-14.97-4.13-15.62-8.19-31.26-12.29-46.89-.37-1.4-.82-2.78-2.15-4.06V93.53h-19.98V9.28Z"/>
  <path class="cls-1" d="M99.99,9.32c5.26,0,9.78-.08,14.29,.02,11.64,.24,23.39-.29,34.91,1.04,15.94,1.84,23.33,15.7,17.46,30.65-2.54,6.46-7.79,9.38-14.8,10.81,11.28,3.27,12.22,4.58,13.53,15.76,1.01,8.63,2.37,17.22,3.65,26.35-6.08,0-12.14,.15-18.17-.15-1-.05-2.54-2-2.75-3.25-1.08-6.46-1.74-12.98-2.66-19.47-.94-6.59-3.15-8.87-9.81-9.32-5.17-.34-10.39-.07-16.11-.07v32.21c-6.16,0-11.83,.2-17.45-.22-.81-.06-1.98-3.08-1.99-4.74-.13-23.37-.09-46.74-.09-70.11,0-2.97,0-5.94,0-9.49Zm19.66,36.41c7.26-.38,13.99-.44,20.65-1.17,4.81-.53,7.31-3.85,7.51-8.7,.2-4.94-2.24-8.74-7.28-9.38-6.79-.86-13.7-.8-20.88-1.15v20.41Z"/>
  <path class="cls-1" d="M91.97,9.32V93.53h-23.89v-16.05c-9.88,0-19.44-.11-29,.14-1.24,.03-3.02,1.71-3.56,3.03-4.92,12.01-14.08,15.43-26.21,13.36-1.76-.3-3.62-.04-6.55-.04,4.32-5.91,8.01-11.01,11.76-16.08C30.42,56.36,46.4,34.88,62.2,13.27c2.1-2.88,4.24-4.19,7.89-4.04,7.06,.3,14.14,.09,21.87,.09Zm-20.57,21.16c-.43-.13-.86-.27-1.3-.4-6.73,9.99-13.46,19.99-20.58,30.57h19.44c.83-10.25,1.63-20.21,2.44-30.18Z"/>
</svg>