<?xml version="1.0" encoding="UTF-8"?>
<svg id="Layer_1" data-name="Layer 1" xmlns="http://www.w3.org/2000/svg" viewBox="0 0 431.62 103.8">
  <defs>
    <style>
      .cls-1, .cls-2 {
        fill: #fff;
      }

      .cls-3 {
        letter-spacing: 0em;
      }

      .cls-2 {
        font-family: HelveticaCyr-Bold, 'Helvetica Cyrillic';
        font-size: 40.12px;
        font-weight: 700;
      }

      .cls-4 {
        letter-spacing: -.09em;
      }

      .cls-5 {
        letter-spacing: -.05em;
      }
    </style>
  </defs>
  <text class="cls-2" transform="translate(48.14 68.06)"><tspan class="cls-4" x="0" y="0">F</tspan><tspan x="20.7" y="0">ARMA MRSKLE</tspan><tspan class="cls-5" x="321.57" y="0">S</tspan><tspan class="cls-3" x="346.32" y="0">Y</tspan></text>
  <g>
    <path class="cls-1" d="M39.89,32.57c-1.05-.8-2.03-1.54-3-2.27,.08-.1,.16-.21,.24-.31,1.49,.58,2.98,1.15,4.49,1.74-.57,2.05-1.11,3.98-1.65,5.9-.23,.8-.64,1.32-1.6,1.36-3.03,.12-6.07,.33-9.1,.47-4.91,.23-9.83,.41-14.74,.67-1.04,.06-1.57-.24-1.86-1.26-.46-1.57-.98-3.13-1.61-4.63-.36-.85-.12-1.19,.63-1.53,1.26-.56,2.47-1.21,3.85-1.66-.83,1.01-1.67,2.02-2.68,3.23,1.03,.95,1.98,1.89,3.01,2.75,.29,.25,.78,.39,1.16,.38,6.07-.22,12.15-.46,18.22-.74,.5-.02,1.09-.31,1.46-.66,.97-.93,1.84-1.97,3.18-3.43Z"/>
    <path class="cls-1" d="M19.72,42.25c.35,.17,1.02,.36,1.52,.76,.41,.33,.85,.89,.89,1.39,.15,1.78,.12,3.57,.21,5.35,.02,.44,.15,.99,.44,1.29,1.14,1.17,2.37,2.25,3.77,3.55,1.28-1.34,2.55-2.62,3.75-3.97,.24-.27,.25-.8,.25-1.22,.02-1.5,.09-3-.06-4.49-.14-1.42,.34-2.28,1.66-2.76,.35-.13,.66-.34,1.12-.46-1.65,1.26-1.22,3.01-1.09,4.58,.28,3.14-.21,5.77-3.03,7.77-3.26,2.3-1.5,5.71-1.78,8.82,1.98-.86,1.75-2.36,1.75-3.79,0-.81-.32-1.78,.81-2.21,.81,3.89-.2,6.33-3.35,8.19-3.52-2.65-3.76-3.17-3.56-7.99q1.04,.52,1.05,2.09,0,2.67,1.6,3.63c0-2.16,.02-4.34-.02-6.53,0-.27-.3-.58-.53-.8-1.45-1.41-3.46-2.56-4.23-4.27-.77-1.71-.24-3.99-.42-6-.09-1.01-.5-1.98-.76-2.93Z"/>
    <path class="cls-1" d="M34.34,63.18c0-5.64,0-11.28,0-16.92,0-2.85-.01-2.85,2.5-4.9,0,3.97,0,7.8,0,11.63,0,1.83-.02,3.67-.02,5.5q0,2.67-2.03,4.75c-.15-.02-.3-.04-.44-.06Z"/>
    <path class="cls-1" d="M18.9,63.73c-1.85-1.19-2.66-2.48-2.64-4.6,.04-5.62-.24-11.24-.4-17.19,1.2,1.27,2.61,1.86,2.62,3.82,.04,5.92,.26,11.84,.42,17.97Z"/>
    <path class="cls-1" d="M28.42,69.95c.78,.59,1.81,.97,1.95,1.56,.29,1.18,.56,2.79-.01,3.66-.7,1.07-2.3,2.2-3.46,2.15-1.31-.05-2.78-1.19-3.76-2.24-.51-.55-.36-2.02-.08-2.93,.25-.82,1.1-1.45,1.79-2.28-1.58-1.55-3.35-3.27-5.12-5,.06-.08,.13-.17,.19-.25,1.91,1.05,3.84,2.06,5.7,3.19,.83,.5,1.43,.46,2.22-.03,1.82-1.13,3.71-2.16,5.67-3.12-1.7,1.77-3.4,3.54-5.09,5.31Zm1.05,3.65c-.04-2.33-.14-2.4-2.55-2.04-.13,.02-.29-.17-.44-.25-1.09-.63-1.98,.23-2.21,.86-.3,.84-.27,2.21,.25,2.81,.59,.69,1.97,1.24,2.83,1.04,1.04-.24,2.76-.64,2.12-2.42Z"/>
    <path class="cls-1" d="M26.17,39.84c.89,.84,1.72,1.62,2.55,2.41-1.97-1.43-3.62-.76-5.3,.6,.44-.5,.87-1,1.31-1.48,.45-.49,.91-.96,1.43-1.52Z"/>
    <path class="cls-1" d="M26.2,44.67c-.43-.65-.91-1.06-.88-1.42,.03-.37,.57-.7,.89-1.04,.35,.37,.9,.7,.98,1.12,.06,.3-.51,.73-1,1.35Z"/>
  </g>
</svg>