<?xml version="1.0" encoding="UTF-8"?>
<svg id="Layer_1" data-name="Layer 1" xmlns="http://www.w3.org/2000/svg" viewBox="0 0 279.95 103.8">
  <defs>
    <style>
      .cls-1 {
        fill: #fff;
      }
    </style>
  </defs>
  <path class="cls-1" d="M32.58,28.83h15.98c0,2.31,0,4.51,0,6.72,0,2.32-.04,4.65,.01,6.97,.01,.52,.34,1.04,.52,1.56,.33-.39,.71-.74,.97-1.17,2.1-3.45,4.19-6.91,6.28-10.36,.11-.18,.31-.33,.36-.52,.76-3.02,2.88-3.5,5.65-3.35,3.57,.2,7.17,.05,11.09,.05-1.08,1.87-2,3.52-2.98,5.13-2.29,3.79-4.63,7.55-6.9,11.36-.2,.33-.17,.99,.03,1.33,2,3.39,4.02,6.76,6.11,10.1,.74,1.19,1.61,1.11,2.37-.16,2.27-3.82,4.49-7.67,6.77-11.48,2.66-4.45,5.58-8.76,7.99-13.33,1.35-2.56,3.02-3.09,5.68-3.01,6.49,.2,12.99,.09,19.49,.04,1.28,0,1.51,.34,1.46,1.64-.2,5.17-.23,10.34-.27,15.52-.06,7.66-.08,15.31-.09,22.97,0,.88-.29,1.17-1.21,1.16-4.12-.06-8.24-.11-12.36-.02-1.55,.04-2.01-.49-1.97-1.98,.16-6.28,.24-12.56,.33-18.84,0-.69-.12-1.39-.18-2.08-.19-.07-.38-.13-.57-.2-.69,.93-1.44,1.83-2.06,2.8-1.26,1.99-2.45,4.02-3.68,6.03-.76,1.23-.47,2,.9,2.54,.3,.12,.68,.54,.69,.84,.07,1.95,.09,3.91,0,5.86-.01,.31-.61,.81-.96,.84-1.26,.1-2.54,.16-3.8,.02-1.9-.21-3.21,.59-3.97,2.21-.76,1.62-1.91,2.01-3.64,1.98-6.34-.11-12.68-.08-19.01,0-1.22,.01-1.97-.34-2.56-1.36-2.46-4.2-4.96-8.39-7.46-12.57-.56-.94-1.14-1.86-1.76-2.76-.15-.21-.6-.45-.75-.37-.32,.18-.7,.52-.77,.85-.17,.87-.24,1.78-.25,2.67-.09,4.12-.17,8.23-.18,12.35,0,.94-.37,1.19-1.21,1.18-4.23-.02-8.45-.06-12.68,0-1.46,.02-1.44-.8-1.44-1.83,.03-10.41,.04-20.81,.06-31.22,0-2.63,0-5.26,0-8.1Z"/>
  <path class="cls-1" d="M82.48,83.6v2.66c-.28,.06-.52,.16-.76,.16-21.03,0-42.06-.03-63.09,.01-1.54,0-1.95-.43-1.94-1.96,.06-20.55,.05-41.11,.11-61.66,0-.89,.42-1.99,1.01-2.64,2.06-2.25,4.26-4.38,6.49-6.47,.48-.45,1.29-.72,1.96-.75,2.22-.09,4.44-.04,6.66-.04,74.66,0,149.32,0,223.98,0,2.05,0,4.09,0,6.27,0,.03,.56,.08,1.07,.08,1.58,0,20.82,0,41.64,.01,62.45,0,.94-.19,1.55-1.03,2.21-2.48,1.95-4.87,4.03-7.18,6.19-.86,.8-1.7,1.09-2.81,1.09-17.01-.03-34.03-.03-51.04-.04-2.05,0-4.11,0-6.13,0-.72-2.44-.48-2.78,1.87-2.78,18.28,0,36.56,0,54.85-.04,.71,0,1.55-.32,2.11-.77,1.9-1.5,3.69-3.14,5.54-4.7,1-.84,1.41-1.87,1.41-3.19-.03-19.18-.02-38.36-.03-57.54,0-1.79-.46-2.24-2.26-2.26-2.11-.02-4.23,0-6.34,0-74.18,0-148.37,0-222.55-.06-2.3,0-4.02,.56-5.47,2.33-1.03,1.25-2.18,2.45-3.46,3.45-1.59,1.24-1.8,2.87-1.8,4.63,0,18.33,0,36.67,0,55,0,.32,.03,.63,.06,.95,.24,2.06,.4,2.21,2.44,2.21,4.49,0,8.98,0,13.47,0,15.27,0,30.54,0,45.81,0,.52,0,1.04,0,1.75,0Z"/>
  <path class="cls-1" d="M150.24,69.79c.05-.81,.01-1.49,.14-2.14,.53-2.76,1.16-5.51,1.63-8.29,.15-.91,.53-1.14,1.33-1.13,2.38,.01,4.76,.1,7.13-.07,.9-.06,1.86-.63,2.6-1.2,.28-.22,.25-1.25-.01-1.69-2.92-4.85-5.91-9.67-8.9-14.48-2.18-3.51-1.76-8.38,2.12-10.65,1.34-.78,3.03-1.32,4.57-1.35,7.23-.14,14.47-.05,21.71-.07,1.33,0,1.87,.03,1.56,1.84-.44,2.51-.1,5.15-.08,7.74,.03,2.94,.04,2.93-2.94,2.94-1.58,0-3.17,0-4.75,.02-2.24,.03-2.99,1.43-1.79,3.42,1.69,2.78,3.49,5.5,5.14,8.31,1.51,2.56,3.02,5.14,4.26,7.84,1.21,2.64-.47,6.84-3.12,8.06-1.24,.57-2.68,1.01-4.03,1.03-8.24,.08-16.48,.03-24.72,.01-.56,0-1.13-.08-1.84-.14Z"/>
  <path class="cls-1" d="M247.41,28.86c0,2.53,0,4.99,0,7.46,0,1.16-.08,2.32-.03,3.48,.05,1.08-.33,1.51-1.46,1.48-2.74-.07-5.49,.02-8.23-.07-1.35-.05-1.68,.46-1.67,1.75,.05,7.34,.01,14.68,0,22.02,0,.9-.05,1.79-.14,2.69-.22,2.3-.23,2.29-2.63,2.29-3.85,0-7.71-.03-11.56,.02-1.18,.02-1.71-.27-1.69-1.58,.12-8.02,.18-16.04,.25-24.06,0-.11,0-.21,.01-.32q.34-2.77-2.56-2.78c-2.43,0-4.86,0-7.29,.01-1.15,0-1.45-.37-1.37-1.63,.21-3.15,.17-6.31,.15-9.47,0-1.1,.35-1.46,1.46-1.45,11.77,.04,23.55,.03,35.32,.04,.41,0,.82,.06,1.45,.11Z"/>
  <path class="cls-1" d="M148.47,69.94c-3.26,0-5.99,0-8.73,0-2.48,0-4.97-.08-7.44,.04-1.4,.06-2.23-.46-2.92-1.62-2.9-4.82-5.86-9.6-8.8-14.4-.61-1-1.22-2.01-1.92-3.18,.55-.11,.88-.23,1.22-.24,2.48-.02,4.96-.04,7.44-.02,2.45,.02,4.92-1.8,5.51-4.09,.52-2.03-2.03-5.17-4.24-5.19-3.01-.03-6.02-.06-9.03,0-1.06,.02-1.56-.23-1.54-1.38,.05-3.22,.06-6.44,.02-9.66,0-1.03,.25-1.51,1.42-1.5,5.33,.06,10.68-.25,15.99,.11,5.16,.35,9.47,2.48,11.81,7.61,1.03,2.25,1.89,4.5,1.5,6.93-.77,4.79-3.17,8.56-7.6,10.84-1.31,.67-1.54,1.66-.76,2.9,2.27,3.59,4.48,7.22,6.73,10.83,.34,.54,.71,1.07,1.34,2.02Z"/>
  <path class="cls-1" d="M188.83,28.73c5.03,0,9.89,0,14.74,0,.85,0,1.08,.39,1.06,1.17-.09,4.27-.16,8.54-.2,12.82-.02,1.85,.13,3.69,.07,5.54-.21,6.16-.5,12.31-.71,18.46-.11,3.23-.05,3.23-3.32,3.23-3.38,0-6.76-.04-10.13,.03-1.27,.03-1.77-.3-1.76-1.66,.08-9.66,.09-19.32,.11-28.98,0-3.01,0-6.02,0-9.02,0-.47,.07-.93,.12-1.57Z"/>
  <path class="cls-1" d="M121.31,84.72c.12-2.96,2-6.05,6.51-6,4.09,.05,6.09,2.6,6.2,5.92,.13,3.63-2.78,6.42-6.55,6.15-3.64-.26-5.86-2-6.16-6.07Zm2.45-.05c-.23,2.64,2.08,4.2,3.97,4.13,2.36-.08,3.99-1.74,3.99-4.17,0-2.44-1.62-4.03-4.08-4-2.33,.03-3.88,1.65-3.88,4.04Z"/>
  <path class="cls-1" d="M108.98,86.93c0,.58,.09,1.18-.03,1.74-.1,.47-.33,1.07-.7,1.32-3.05,1.99-8.38,.56-9.95-2.58-1.59-3.18,.12-8.42,4.7-8.56,1.36-.04,2.75,.04,4.08,.3,.44,.09,.72,.92,1.08,1.42-.63,.18-1.37,.67-1.89,.49-1.7-.57-3.28-.72-4.78,.45-1.52,1.19-1.52,2.78-1.21,4.46,.51,2.81,3.91,3.4,5.83,2.46,.4-.19,.63-1.07,.62-1.63,0-.37-.55-.75-.9-1.09-.4-.39-.85-.74-1.27-1.11,.51-.26,1.01-.72,1.54-.75,2.9-.19,2.9-.15,2.89,3.08Z"/>
  <path class="cls-1" d="M120.08,89.91c-1.39,.76-2.33,.55-3.01-.72-.5-.92-.96-1.88-1.57-2.72-.26-.35-.91-.69-1.29-.61-.32,.07-.62,.74-.7,1.19-.12,.66,.09,1.4-.08,2.04-.13,.47-.63,.85-.97,1.26-.33-.38-.92-.76-.93-1.15-.07-3.05-.08-6.11,.02-9.17,.01-.38,.72-1.01,1.15-1.05,1.41-.12,2.85-.1,4.26,.03,1.55,.15,2.7,1.04,3.01,2.59,.27,1.36-.14,2.66-1.46,3.37-.84,.46-.83,.95-.39,1.65,.66,1.06,1.28,2.14,1.96,3.27Zm-4.7-9.19c-1.02-.06-1.93-.05-1.91,1.39,.01,1.18,.5,1.81,1.68,1.78,1.13-.03,2.44-.19,2.5-1.58,.06-1.35-1.17-1.54-2.27-1.59Z"/>
  <path class="cls-1" d="M136.02,83.47c0-1.11-.1-2.23,.05-3.32,.06-.44,.66-.8,1.02-1.19,.34,.43,.94,.85,.97,1.3,.12,1.84,0,3.69,.09,5.54,.06,1.31,.4,2.54,1.98,2.84,1.91,.36,3.11-.54,3.26-2.65,.13-1.79,.06-3.59,.07-5.38,0-.84,.02-1.65,1.18-1.63,1.17,.02,.96,.9,.97,1.6,.02,1.9,.02,3.8,0,5.7-.03,2.89-2.12,4.48-4.87,4.49-2.64,0-4.79-1.73-4.7-4.45,.03-.95,0-1.9,0-2.85h0Z"/>
  <path class="cls-1" d="M173.03,84.65c0-1.37,.05-2.75-.02-4.12-.06-1.2,.49-1.6,1.6-1.59,1.58,.02,3.17-.08,4.75,.04,.52,.04,1,.59,1.51,.91-.53,.3-1.04,.76-1.6,.86-.87,.15-1.79,.08-2.69,.04-1.09-.05-1.33,.58-1.35,1.49-.02,.99,.53,1.28,1.4,1.27,.9,0,1.81-.1,2.69,.04,.44,.07,.81,.6,1.21,.92-.39,.33-.75,.85-1.19,.95-.76,.17-1.58,.1-2.37,.07-1.13-.03-1.77,.32-1.77,1.62,0,1.29,.7,1.46,1.73,1.43,1.05-.04,2.12-.07,3.16,.05,.39,.05,.74,.53,1.1,.81-.35,.3-.69,.83-1.05,.85-1.95,.09-3.91,.07-5.86,.06-.93,0-1.28-.51-1.25-1.43,.04-1.42,.01-2.85,0-4.28Z"/>
  <path class="cls-1" d="M166.41,90.91c-.87-.25-1.79-.38-2.56-.78-.36-.19-.47-.89-.69-1.35,.52-.19,1.04-.55,1.56-.54,.85,.02,1.71,.42,2.55,.38,.39-.02,1.02-.69,1.04-1.09,.02-.5-.37-1.17-.79-1.49-.57-.43-1.33-.62-2.03-.85-1.94-.64-2.58-1.55-2.41-3.49,.14-1.53,1.19-2.62,2.92-2.79,1.09-.11,2.22-.06,3.29,.12,.38,.07,.66,.75,.98,1.15-.46,.27-.9,.71-1.37,.76-.71,.07-1.46-.3-2.16-.2-.44,.06-1.13,.61-1.15,.98-.03,.5,.35,1.19,.78,1.5,.57,.42,1.35,.57,2.04,.81,1.52,.55,2.53,1.45,2.44,3.24-.09,1.6-.87,2.62-2.57,3.15-.6,.19-1.21,.33-1.85,.5Z"/>
  <path class="cls-1" d="M148.16,84.49c0-1.43-.05-2.86,.03-4.28,.02-.42,.45-1.19,.65-1.18,2.07,.12,4.2,.13,6.16,.7,.74,.22,1.42,1.77,1.52,2.77,.12,1.1-.43,2.3-1.79,2.67-.86,.23-1.73,.6-2.59,.59-1.63-.03-2.2,.67-1.99,2.2,.06,.42,.13,.9-.03,1.25-.2,.44-.64,.76-.98,1.14-.33-.37-.93-.72-.95-1.11-.11-1.58-.05-3.17-.05-4.75h0Zm2.03-2.29c-.13,1.37,.6,1.85,1.8,1.77,1.05-.07,2.16-.38,2.17-1.58,.01-1.44-1.22-1.62-2.38-1.66-1.05-.04-1.79,.23-1.59,1.47Z"/>
</svg>