<?xml version="1.0" encoding="utf-8"?>
<!-- Generator: Adobe Illustrator 27.0.0, SVG Export Plug-In . SVG Version: 6.00 Build 0)  -->
<svg version="1.1" id="Layer_1" xmlns="http://www.w3.org/2000/svg" xmlns:xlink="http://www.w3.org/1999/xlink" x="0px" y="0px"
	 viewBox="0 0 431.6 103.8" style="enable-background:new 0 0 431.6 103.8;" xml:space="preserve">
<style type="text/css">
	.st0{fill:#FFFFFF;}
</style>
<g>
	<path class="st0" d="M337.8,13.6C332,21,326.5,27.9,320.9,35c-1.8-2.2-3.4-4.2-5.2-6.2c-0.5-0.6-1.3-1.3-2-1.3
		c-7.7-0.1-15.4-0.1-23.9-0.1c6.5,7.9,12.5,15.3,18.8,22.8c-5.1,6.5-10.2,12.9-15.3,19.3c-5,6.4-10,12.7-15.2,19
		c-0.8,0.9-2.3,1.7-3.4,1.7c-87.1,0.1-174.3,0.1-261.5,0.1c-2.2,0-2.9-0.5-2.9-2.8c0.1-23.8,0.1-47.6,0-71.4c0-2.3,0.7-2.8,2.9-2.8
		c106.4,0.1,212.8,0.1,319.2,0.1C334,13.5,335.5,13.5,337.8,13.6L337.8,13.6z M157.8,27.5v48.8h18.8V50.9c5.4,6.6,10.5,12.7,15.3,19
		c5,6.5,4.9,6.6,13.1,6.6c4.3,0,8.6,0,13,0V27.7h-19.2v25.2c-0.6-0.6-0.8-0.9-1-1.1c-5.9-7.6-11.8-15.2-17.7-22.7
		c-0.5-0.7-1.4-1.5-2.1-1.5C171.3,27.4,164.6,27.5,157.8,27.5L157.8,27.5z M94.7,76.2H152V63.3h-38.2v-5.2h29.6v-13h-29.6v-4.7
		c2,0,3.9,0,5.8,0c9.4,0,18.8,0.1,28.3,0c0.7,0,1.9-0.8,1.9-1.2c0.2-3.8,0.1-7.6,0.1-11.5H94.8L94.7,76.2L94.7,76.2z M48.6,76.4
		c0-4.7,0.1-8.8,0-12.9c-0.1-2.5,0.7-3.3,3.2-3.2c7.2,0.1,14.3,0,21.5-0.2c5.2-0.2,9.9-1.8,12.7-6.6c6.9-12.1,0-25.3-13.8-25.8
		c-13.5-0.5-27.1-0.1-40.7-0.2c-1.4,0-2.1,0.3-2.1,1.9c0,15.1,0,30.2,0.1,45.3c0,0.6,0.9,1.8,1.4,1.8C36.6,76.5,42.4,76.4,48.6,76.4
		L48.6,76.4z M285.8,76.4c-0.1-0.7-0.1-1.1-0.2-1.4c-6.1-15.3-12.2-30.6-18.5-45.8c-0.3-0.8-1.7-1.6-2.6-1.7
		c-6.8-0.1-13.6,0-20.4-0.1c-2.1,0-2.9,0.9-3.6,2.6c-4.5,11.5-9.2,22.9-13.7,34.3c-1.6,3.9-3,7.8-4.7,12.1c6.3,0,12-0.1,17.7,0
		c1.8,0,2.9-0.5,3.2-2.3c0.4-1.8,1.5-2.2,3.3-2.2c4.7,0.1,9.4,0.1,14.1,0c2-0.1,3.1,0.5,3.8,2.4c0.3,0.8,1.2,2,1.9,2
		C272.7,76.5,279.2,76.4,285.8,76.4L285.8,76.4z"/>
	<path class="st0" d="M368.5,90.3h-67.8c6.7-8.4,13.3-16.7,20-25.2c2.5,3.2,4.9,6.2,7.1,9.3c1.1,1.6,2.3,2.1,4.2,2.1
		c6.6-0.1,13.2-0.1,19.8-0.1c0.6,0,1.2-0.1,2.5-0.2c-7.3-9-14.2-17.6-21.3-26.5c2.6-3.4,5.3-6.8,8-10.1c6-7.5,12-15,17.9-22.6
		c3.2-4,3.9-4.2,9.5-3.2V90.3z"/>
	<path class="st0" d="M401.3,90.3h-25.4V13.7h25.4V90.3z"/>
	<path class="st0" d="M421.2,90.3h-13V13.7h13V90.3z"/>
	<path class="st0" d="M48.8,47.9v-8.8c5.2,0,10.2-0.2,15.2,0.1c2.4,0.1,3.8,1.8,3.6,4.5c-0.2,2.6-1.7,4.1-4.2,4.2
		C58.7,48,53.9,47.9,48.8,47.9L48.8,47.9z"/>
	<path class="st0" d="M259.2,59.1h-11.7c2-5.5,3.8-10.7,5.9-16.5C255.5,48.3,257.3,53.5,259.2,59.1z"/>
</g>
</svg>
