<?xml version="1.0" encoding="utf-8"?>
<!-- Generator: Adobe Illustrator 27.0.0, SVG Export Plug-In . SVG Version: 6.00 Build 0)  -->
<svg version="1.1" id="Layer_1" xmlns="http://www.w3.org/2000/svg" xmlns:xlink="http://www.w3.org/1999/xlink" x="0px" y="0px"
	 viewBox="0 0 32 20" style="enable-background:new 0 0 32 20;" xml:space="preserve">
<style type="text/css">
	.st0{fill:#02ABC2;}
	.st1{fill:#FCEB4B;}
	.st2{fill:#FCEB4B;stroke:#FCEB4B;stroke-width:7.618309e-03;stroke-miterlimit:2;}
</style>
<image style="overflow:visible;enable-background:new    ;" width="800" height="450" xlink:href="../../../dagestan-flag-redesign-v0-1xllsfcxsuvb1.png"  transform="matrix(4.475164e-02 0 0 4.475164e-02 -40.8462 -6.911981e-02)">
</image>
<g>
	<path class="st0" d="M-0.1,0h40v20h-40V0z"/>
	<g>
		<g transform="matrix(.5 0 0 .5 540.236 210)">
			<circle class="st1" cx="-1037.4" cy="-403.2" r="5.4"/>
			<g id="A">
				<g id="B">
					<path id="C" class="st1" d="M-1037.4-409.3c0.3,0,0.4-0.2,0.4-0.4c0-0.3-0.4-1.8-0.4-1.8s-0.4,1.5-0.4,1.8
						C-1037.8-409.5-1037.7-409.3-1037.4-409.3z"/>
					<g transform="rotate(90)">
						<path id="C_00000111873729109282222110000009248060214592240280_" class="st1" d="M-1031.3-403.2c0,0.3,0.2,0.4,0.4,0.4
							c0.3,0,1.8-0.4,1.8-0.4s-1.5-0.4-1.8-0.4C-1031.1-403.6-1031.3-403.5-1031.3-403.2z"/>
					</g>
					<g transform="scale(-1)">
						<path id="C_00000003826066873376068310000018346365957755142790_" class="st1" d="M-1037.4-397.1c-0.3,0-0.4,0.2-0.4,0.4
							c0,0.3,0.4,1.8,0.4,1.8s0.4-1.5,0.4-1.8C-1036.9-396.9-1037.1-397.1-1037.4-397.1z"/>
					</g>
					<g transform="rotate(270)">
						<path id="C_00000107575643173140623750000012496921147216296369_" class="st1" d="M-1043.5-403.2c0-0.3-0.2-0.4-0.4-0.4
							c-0.3,0-1.8,0.4-1.8,0.4s1.5,0.4,1.8,0.4C-1043.7-402.8-1043.5-402.9-1043.5-403.2z"/>
					</g>
				</g>
				<g transform="rotate(22.5)">
					<g id="B_00000093888358380696661980000004965980699956686508_">
						<path id="C_00000083078547815772749690000004541738502564739206_" class="st1" d="M-1035-408.8c0.3,0.1,0.5,0,0.6-0.2
							c0.1-0.3,0.3-1.9,0.3-1.9s-1,1.2-1.1,1.5C-1035.4-409.2-1035.3-409-1035-408.8z"/>
						<g transform="rotate(90)">
							<path id="C_00000077319941505393124600000015162883426317572022_" class="st1" d="M-1031.7-400.9c-0.1,0.3,0,0.5,0.2,0.6
								c0.3,0.1,1.9,0.3,1.9,0.3s-1.2-1-1.5-1.1C-1031.4-401.2-1031.6-401.2-1031.7-400.9z"/>
						</g>
						<g transform="scale(-1)">
							<path id="C_00000151514479299529558820000001703822122253596085_" class="st1" d="M-1039.7-397.6c-0.3-0.1-0.5,0-0.6,0.2
								c-0.1,0.3-0.3,1.9-0.3,1.9s1-1.2,1.1-1.5C-1039.4-397.2-1039.4-397.4-1039.7-397.6z"/>
						</g>
						<g transform="rotate(270)">
							<path id="C_00000084514521410289537820000004515043893421303735_" class="st1" d="M-1043-405.5c0.1-0.3,0-0.5-0.2-0.6
								c-0.3-0.1-1.9-0.3-1.9-0.3s1.2,1,1.5,1.1C-1043.4-405.2-1043.1-405.2-1043-405.5z"/>
						</g>
					</g>
				</g>
				<g transform="rotate(45)">
					<g id="B_00000149351827495971787970000001790015901604555680_">
						<path id="C_00000005957897991933311350000009880361567813393848_" class="st1" d="M-1033-407.5c0.2,0.2,0.5,0.2,0.6,0
							c0.2-0.2,1-1.6,1-1.6s-1.4,0.8-1.6,1C-1033.2-408-1033.3-407.7-1033-407.5z"/>
						<g transform="rotate(90)">
							<path id="C_00000181767435748735720250000013267794804487394944_" class="st1" d="M-1033-398.9c-0.2,0.2-0.2,0.5,0,0.6
								c0.2,0.2,1.6,1,1.6,1s-0.8-1.4-1-1.6C-1032.6-399-1032.8-399.1-1033-398.9z"/>
						</g>
						<g transform="scale(-1)">
							<path id="C_00000101105765753830052260000002611082522306371459_" class="st1" d="M-1041.7-398.9c-0.2-0.2-0.5-0.2-0.6,0
								c-0.2,0.2-1,1.6-1,1.6s1.4-0.8,1.6-1C-1041.5-398.4-1041.5-398.6-1041.7-398.9z"/>
						</g>
						<g transform="rotate(270)">
							<path id="C_00000044173819447041674140000000849075731121896382_" class="st1" d="M-1041.7-407.5c0.2-0.2,0.2-0.5,0-0.6
								c-0.2-0.2-1.6-1-1.6-1s0.8,1.4,1,1.6C-1042.2-407.4-1041.9-407.3-1041.7-407.5z"/>
						</g>
					</g>
				</g>
				<g transform="rotate(67.5)">
					<g id="B_00000143604833110345939180000005480258756485266067_">
						<path id="C_00000075131270084729058330000013135796269622089864_" class="st1" d="M-1031.7-405.5c0.1,0.3,0.4,0.3,0.6,0.2
							c0.3-0.1,1.5-1.1,1.5-1.1s-1.6,0.2-1.9,0.3C-1031.7-406-1031.8-405.8-1031.7-405.5z"/>
						<g transform="rotate(90)">
							<path id="C_00000006707598551134658430000004626516896437208708_" class="st1" d="M-1035-397.6c-0.3,0.1-0.3,0.4-0.2,0.6
								c0.1,0.3,1.1,1.5,1.1,1.5s-0.2-1.6-0.3-1.9C-1034.5-397.5-1034.7-397.7-1035-397.6z"/>
						</g>
						<g transform="scale(-1)">
							<path id="C_00000116205921081719212160000001903226351885825452_" class="st1" d="M-1043-400.9c-0.1-0.3-0.4-0.3-0.6-0.2
								c-0.3,0.1-1.5,1.1-1.5,1.1s1.6-0.2,1.9-0.3C-1043-400.4-1042.9-400.6-1043-400.9z"/>
						</g>
						<g transform="rotate(270)">
							<path id="C_00000150786185537942582990000015390768027434949294_" class="st1" d="M-1039.7-408.8c0.3-0.1,0.3-0.4,0.2-0.6
								c-0.1-0.3-1.1-1.5-1.1-1.5s0.2,1.6,0.3,1.9C-1040.2-408.9-1040-408.7-1039.7-408.8z"/>
						</g>
					</g>
				</g>
			</g>
			<g transform="rotate(11.25)">
				<g id="A_00000114765397942135916510000001750207182108242868_">
					<g id="B_00000074411757517621521480000013955998398644058805_">
						<path id="C_00000145052176331516156180000011329801463235557520_" class="st1" d="M-1036.2-409.2c0.3,0.1,0.5-0.1,0.5-0.3
							c0.1-0.3-0.1-1.9-0.1-1.9s-0.7,1.4-0.8,1.7C-1036.6-409.5-1036.5-409.3-1036.2-409.2z"/>
						<g transform="rotate(90)">
							<path id="C_00000148636967725881759870000008480715524407713705_" class="st1" d="M-1031.4-402c-0.1,0.3,0.1,0.5,0.3,0.5
								c0.3,0.1,1.9-0.1,1.9-0.1s-1.4-0.7-1.7-0.8C-1031.1-402.4-1031.3-402.3-1031.4-402z"/>
						</g>
						<g transform="scale(-1)">
							<path id="C_00000034785940405049209670000001594599446268769714_" class="st1" d="M-1038.6-397.2c-0.3-0.1-0.5,0.1-0.5,0.3
								c-0.1,0.3,0.1,1.9,0.1,1.9s0.7-1.4,0.8-1.7C-1038.2-396.9-1038.3-397.1-1038.6-397.2z"/>
						</g>
						<g transform="rotate(270)">
							<path id="C_00000124128774468898299010000015164042460730812347_" class="st1" d="M-1043.4-404.4c0.1-0.3-0.1-0.5-0.3-0.5
								c-0.3-0.1-1.9,0.1-1.9,0.1s1.4,0.7,1.7,0.8C-1043.7-404-1043.4-404.1-1043.4-404.4z"/>
						</g>
					</g>
					<g transform="rotate(22.5)">
						<g id="B_00000079464556676786299930000011516654251550063513_">
							<path id="C_00000154384386753464932520000004866750999387877793_" class="st1" d="M-1034-408.3c0.3,0.2,0.5,0.1,0.6-0.1
								c0.2-0.3,0.7-1.8,0.7-1.8s-1.2,1-1.4,1.3C-1034.2-408.7-1034.2-408.5-1034-408.3z"/>
							<g transform="rotate(90)">
								<path id="C_00000052075617959735434600000003424666600364255873_" class="st1" d="M-1032.3-399.8c-0.2,0.3-0.1,0.5,0.1,0.6
									c0.3,0.2,1.8,0.7,1.8,0.7s-1-1.2-1.3-1.4C-1031.9-400.1-1032.1-400.1-1032.3-399.8z"/>
							</g>
							<g transform="scale(-1)">
								<path id="C_00000036971700916497855440000002227433873715194298_" class="st1" d="M-1040.8-398.1c-0.3-0.2-0.5-0.1-0.6,0.1
									c-0.2,0.3-0.7,1.8-0.7,1.8s1.2-1,1.4-1.3C-1040.5-397.7-1040.5-397.9-1040.8-398.1z"/>
							</g>
							<g transform="rotate(270)">
								<path id="C_00000060728179470203274460000010841911179968688809_" class="st1" d="M-1042.5-406.6c0.2-0.3,0.1-0.5-0.1-0.6
									c-0.3-0.2-1.8-0.7-1.8-0.7s1,1.2,1.3,1.4C-1042.9-406.3-1042.6-406.3-1042.5-406.6z"/>
							</g>
						</g>
					</g>
					<g transform="rotate(45)">
						<g id="B_00000000932395709505402740000013861563400248741269_">
							<path id="C_00000073717338399225309260000013755301626522366636_" class="st1" d="M-1032.3-406.6c0.2,0.3,0.4,0.3,0.6,0.1
								c0.3-0.2,1.3-1.4,1.3-1.4s-1.5,0.5-1.8,0.7C-1032.4-407.1-1032.5-406.9-1032.3-406.6z"/>
							<g transform="rotate(90)">
								<path id="C_00000088126194011156217040000010406610155212592783_" class="st1" d="M-1034-398.1c-0.3,0.2-0.3,0.4-0.1,0.6
									c0.2,0.3,1.4,1.3,1.4,1.3s-0.5-1.5-0.7-1.8C-1033.5-398.2-1033.7-398.3-1034-398.1z"/>
							</g>
							<g transform="scale(-1)">
								<path id="C_00000101066642460535577210000015838269168768665996_" class="st1" d="M-1042.5-399.8c-0.2-0.3-0.4-0.3-0.6-0.1
									c-0.3,0.2-1.3,1.4-1.3,1.4s1.5-0.5,1.8-0.7C-1042.4-399.3-1042.3-399.5-1042.5-399.8z"/>
							</g>
							<g transform="rotate(270)">
								<path id="C_00000023974224138149243560000014608497114186136243_" class="st1" d="M-1040.8-408.3c0.3-0.2,0.3-0.4,0.1-0.6
									c-0.2-0.3-1.4-1.3-1.4-1.3s0.5,1.5,0.7,1.8C-1041.2-408.2-1041-408.1-1040.8-408.3z"/>
							</g>
						</g>
					</g>
					<g transform="rotate(67.5)">
						<g id="B_00000008858891483850176100000012899816280702606758_">
							<path id="C_00000123410613675470173050000000070667688540216756_" class="st1" d="M-1031.4-404.4c0.1,0.3,0.3,0.4,0.5,0.3
								c0.3-0.1,1.7-0.8,1.7-0.8s-1.6-0.1-1.9-0.1C-1031.3-404.9-1031.4-404.7-1031.4-404.4z"/>
							<g transform="rotate(90)">
								<path id="C_00000173843656503402843610000004901648958021944730_" class="st1" d="M-1036.2-397.2c-0.3,0.1-0.4,0.3-0.3,0.5
									c0.1,0.3,0.8,1.7,0.8,1.7s0.1-1.6,0.1-1.9C-1035.7-397.1-1035.9-397.3-1036.2-397.2z"/>
							</g>
							<g transform="scale(-1)">
								<path id="C_00000138534392829167100900000012519462073638112954_" class="st1" d="M-1043.4-402c-0.1-0.3-0.3-0.4-0.5-0.3
									c-0.3,0.1-1.7,0.8-1.7,0.8s1.6,0.1,1.9,0.1C-1043.5-401.5-1043.3-401.7-1043.4-402z"/>
							</g>
							<g transform="rotate(270)">
								<path id="C_00000176044686051962388560000008572409033698619283_" class="st1" d="M-1038.6-409.2c0.3-0.1,0.4-0.3,0.3-0.5
									c-0.1-0.3-0.8-1.7-0.8-1.7s-0.1,1.6-0.1,1.9C-1039-409.3-1038.9-409.1-1038.6-409.2z"/>
							</g>
						</g>
					</g>
				</g>
			</g>
		</g>
		<g transform="scale(.5)">
			<path class="st1" d="M42.1,28.5c-0.1,0-0.3,0-0.4,0.1c-0.2,0-0.4,0.1-0.6,0.1l-0.1,0l-0.1,0c0,0,0,0.1,0,0.1c0,0,0,0.1,0,0.1
				c0,0,0,0.1-0.1,0.1c0,0-0.1,0.1-0.1,0.1c0,0-0.1,0-0.1,0c0,0-0.1,0-0.1,0c0,0-0.1,0-0.1-0.1c0,0-0.1,0-0.1,0c0,0-0.1,0-0.1,0
				c0,0-0.1,0-0.1,0c0,0-0.1,0-0.1-0.1c-0.1,0.1-0.3,0.2-0.4,0.3c0,0.1-0.1,0.1-0.1,0.2c0,0.1,0,0.2,0.1,0.3c0,0,0-0.1,0.1-0.1
				c0.1-0.1,0.2-0.1,0.3-0.1c0.1,0,0.1,0,0,0.1c0,0-0.1,0.2,0,0.1c0.3-0.1,0.6-0.1,0.9-0.2c0.4,0,0.8-0.1,1.3-0.1l1.2,0
				c0.2,0,0.4,0,0.6,0c0,0,0.1,0,0.1,0c-0.1,0-0.2-0.1-0.3-0.1h-0.8c-0.2,0-0.4,0-0.6-0.1c-0.1,0-0.1-0.1-0.2,0
				c-0.1,0-0.2,0-0.2,0.1c-0.1,0-0.3,0-0.4-0.1c0.1-0.1,0.2-0.2,0.3-0.4c-0.1,0-0.2,0-0.2-0.1C41.9,28.7,42,28.6,42.1,28.5
				L42.1,28.5z"/>
			<path class="st1" d="M48.4,29.8c-0.3,0.2-0.5-0.1-0.8-0.2c-0.2,0.1-0.2,0.4-0.4,0.6c-0.2,0.2-0.4-0.1-0.4-0.3
				c-0.2,0.2-0.3,0.6-0.7,0.6c-0.2-0.1-0.3-0.4-0.4-0.1c-0.1,0.2-0.4,0.4-0.6,0.2c0-0.2-0.2-0.5-0.3-0.1c-0.1,0.3-0.4,0.4-0.6,0.3
				c-0.1-0.1,0.1-0.5-0.1-0.5c-0.3,0.2-0.4,0.6-0.8,0.6c-0.1-0.2,0.1-0.4-0.1-0.6c-0.2,0.2-0.4,0.6-0.7,0.6c-0.2-0.1,0-0.5-0.1-0.6
				c-0.3,0.2-0.7,0.6-1.1,0.5c0.2-0.6,0.9-0.9,1.4-0.9c1-0.1,2.1,0.1,3-0.3c0.2-0.1,0.5-0.2,0.4-0.4c-0.1-0.2,0.3-0.1,0.4-0.3
				c0-0.3,0.2-0.2,0.4-0.2c1,0,1.9,0.2,2.9,0.2c0.1,0.5-0.5,0.8-0.9,0.7c-0.2,0-0.5-0.5-0.4-0.1C48.5,29.5,48.5,29.7,48.4,29.8
				 M40.1,28.9c0.2,0.2,0.4,0,0.6-0.1c0.7-0.2,1.3-0.7,1.9-1.1c0.4-0.3,0.7-0.7,1.2-0.8c1-0.3,2-0.3,3-0.5c0.7-1,2-1.4,3-2
				c0.2-0.1,0.3-0.3,0.4-0.5c0.4-0.6,0.9-1.2,1.6-1.6c0.3-0.2,0.7-0.3,1-0.2c0,0.4-0.3,0.8-0.5,1.1c0.2,0,0.4-0.2,0.7-0.1
				c0.1,0.4-0.4,0.6-0.6,0.9c0.1,0,0.7,0.1,0.4,0.2c-0.4,0.2-0.8,0.4-1.1,0.7c0.3,0.1,0.3,0.1,0,0.2c-0.2,0.1-0.5,0.2-0.5,0.4
				c0.2,0.1-0.1,0.3-0.2,0.3c-0.2,0.1-0.5,0.2-0.2,0.4c-0.1,0.2-0.4,0.2-0.6,0.2c0.1,0.2,0.2,0.5-0.1,0.5c-0.6,0.5-1.4,0.8-2.1,0.9
				c1,0.1,2-0.1,2.8-0.6c0.1-0.1,0.7-0.3,0.4-0.4c-0.2-0.1-0.5-0.1-0.5-0.3c0.5-0.3,1-0.2,1.5-0.3c0-0.2-0.4-0.1-0.5-0.2
				c-0.3,0-0.3-0.1,0-0.1c0.4-0.1,0.9-0.1,1.2-0.4c-0.3-0.1-0.6,0-0.9-0.1c0.5-0.2,1.1-0.2,1.6-0.6c0.2-0.2-0.3-0.2-0.4-0.2
				c-0.3,0-0.4-0.1-0.1-0.2c0.6-0.4,1.3-0.7,1.6-1.3c0.1-0.1,0.2-0.5-0.1-0.4c-0.4,0.1-0.7,0.6-1.2,0.4c0.9-0.7,1.7-1.4,2.3-2.4
				c0-0.3-0.4-0.3-0.5-0.1c-0.6,0.5-1.1,1.2-1.8,1.5c0.7-0.7,1.3-1.4,1.7-2.3c0.1-0.2,0.4-0.5,0.2-0.8c-0.2-0.2-0.6,0-0.7,0.2
				c-0.4,0.6-0.8,1.2-1.3,1.7c0.5-0.9,1-1.9,1-3c0-0.2,0-0.5-0.3-0.5c-0.2,0-0.2,0.4-0.3,0.6c-0.2,0.7-0.3,1.5-0.8,2.2
				c0.1-0.6,0.3-1.2,0.1-1.8c-0.1-0.3-0.5-0.2-0.4,0.1c-0.5,2.6-2.3,4.9-4.6,6.3c-1.1,0.6-2.2,1-3.4,1.2c-0.3,0.1-0.7,0-1,0.1
				c-0.7,0.6-1.2,1.5-2.2,1.8c-0.4,0.2-1,0.3-1.3,0.6C40.1,28.8,40.1,28.8,40.1,28.9"/>
			<path class="st1" d="M42.9,26.2c-0.1,0.3-0.2,0.5-0.4,0.8c-0.5-0.5-1.3-0.5-2-0.5c-0.6,0-1.2-0.1-1.6-0.5
				c-0.5-0.4-0.8-0.9-1.4-1.2c-0.5-0.1-0.9-0.3-1.3-0.6c-0.8-0.7-1.3-1.6-2.1-2.3c-0.2-0.1-0.3-0.3-0.5-0.4c-0.2,0-0.1,0.4-0.3,0.2
				c-0.1-0.1-0.4-0.1-0.4,0c0.2,0.3,0.5,0.7,0.5,1.1c-0.2,0-0.5,0-0.5,0c0.2,0.3,0.5,0.6,0.8,0.9c-0.2,0-0.5,0-0.5,0.1
				c0.3,0.3,0.7,0.5,1.1,0.6c0.1,0.1-0.1,0.3,0.1,0.4c0.1,0,0.4,0.1,0.2,0.2c-0.2,0.1-0.1,0.4,0.1,0.4c0.1,0.1,0.4,0.1,0.4,0.2
				c-0.1,0.1-0.5,0.3-0.2,0.4c0.3,0.2,0.6,0.3,0.9,0.3c-0.2,0.1-0.4,0.2-0.5,0.3c0.7,0.4,1.6,0.7,2.4,1c0.3,0.1,0.7,0.2,1,0.3
				c-1-0.1-1.9-0.3-2.8-0.7c-0.5-0.2-0.9-0.4-1.4-0.6c0.2-0.1,0.4-0.1,0.7-0.2c-0.4-0.1-0.9-0.1-1.3-0.4c0.1-0.1,0.3-0.1,0.4-0.2
				c0.2-0.1,0.4-0.1,0-0.1c-0.3-0.1-0.7-0.1-1-0.3c0-0.1,0.3-0.1,0.5-0.1c0.2,0,0.3-0.1,0.5-0.2c-0.5-0.2-1.2-0.1-1.6-0.5
				c-0.1-0.2,0.3,0,0.4-0.1c0.3,0,0.6,0.1,0.8,0c-0.8-0.3-1.6-0.6-2.1-1.3c-0.1-0.1-0.3-0.4-0.1-0.4c0.4,0.1,0.8,0.5,1.3,0.5
				c0.1-0.1-0.3-0.2-0.4-0.4c-0.7-0.6-1.4-1.3-1.9-2c0-0.3,0.4-0.3,0.5-0.1c0.5,0.5,1,1.1,1.7,1.5c0.2,0.1-0.1-0.1-0.2-0.2
				c-0.6-0.7-1.2-1.5-1.6-2.3c-0.1-0.2-0.2-0.4,0-0.5c0.2-0.1,0.5,0,0.6,0.2c0.5,0.6,0.8,1.3,1.4,1.7c-0.5-0.9-1-1.9-1-3
				c0-0.2,0-0.5,0.3-0.5c0.2,0,0.2,0.3,0.3,0.4c0.2,0.8,0.3,1.6,0.8,2.3c-0.1-0.6-0.3-1.2-0.2-1.8c0-0.2,0.2-0.3,0.4-0.1
				c0.1,0.3,0.1,0.6,0.2,0.9c0.6,2.1,2,3.9,3.7,5.1c1.5,1,3.2,1.6,4.9,1.7C42.6,26.2,42.8,26.2,42.9,26.2"/>
			<circle class="st1" cx="40.7" cy="28.8" r="0.1"/>
			<circle class="st2" cx="40.7" cy="28.8" r="0"/>
			<g id="D">
				<g id="E">
					<path class="st1" d="M4.7,2.9c0,0-0.4-0.3-0.5-0.2C4,3,4.8,4.3,4.8,4.8c0,0.8-0.5,1-1.1,1.1c-0.4,0.1-1.1,0-1.1,0
						C2.7,5.6,2.8,5.6,3,5.6C2.8,5.4,2.6,5.2,2.6,4.8c0-0.6,0.3-0.9,0.3-1.6c0-0.4-0.3-0.9-0.3-0.9c0.6,0.1,0.9,0.6,0.7,1
						c0.1,0,0.2,0,0.3-0.1c0,0.1,0,0.3-0.1,0.4c0.1,0,0.1,0,0.2,0c0,0.1-0.1,0.3-0.3,0.4c0.5-0.1,0.8,0.2,0.8,0.6C4.2,4.8,4,5,3.8,5
						C3.7,5,3.6,5,3.5,5c0,0.1,0,0.2,0,0.3c-0.1,0-0.2-0.1-0.2-0.3c-0.1,0-0.2,0-0.3-0.1c0.1-0.1,0.2-0.1,0.3-0.1
						c-0.1-0.2,0-0.3,0.1-0.3c0,0-0.1,0.3,0.1,0.3c0.1,0,0.2,0,0.2-0.2c0-0.1-0.1-0.3-0.4-0.3S3,4.4,3,4.8c0,0.4,0.3,0.6,0.7,0.6
						c0.4,0,0.6-0.2,0.6-0.5c0-0.5-0.7-1.6-0.7-2c0-0.3,0.3-0.5,0.6-0.5c0.4,0,0.7,0.4,0.7,0.4L4.7,2.9L4.7,2.9z"/>
					<path id="F" class="st1" d="M4.8,11.7c0,0.8-0.7,1.2-1.3,1.2c-0.8,0-1.2-0.5-1.2-1.1c0-0.3,0.1-0.6,0.2-0.9l1.8-3.7
						C4.3,7.2,4.4,7,4.4,6.8c0-0.3-0.3-0.6-0.7-0.6c-0.3,0-0.6,0.3-0.6,0.6c0,0.4,0.2,0.6,0.4,0.6c0.3,0,0.4-0.1,0.4-0.3
						c0-0.1-0.1-0.2-0.2-0.2c-0.2,0-0.2,0.3-0.2,0.3C3.4,7.2,3.3,7.1,3.4,7c-0.1,0-0.2-0.1-0.2-0.1c0.1-0.1,0.1-0.1,0.2-0.1
						c-0.1-0.2,0-0.3,0.2-0.3c0,0.1,0,0.1,0,0.2c0.2-0.1,0.6,0,0.6,0.5c0,0.4-0.3,0.8-0.8,0.7c0.1,0.1,0.2,0.2,0.2,0.3
						C3.4,8,3.3,8,3.3,8c0.1,0.1,0.2,0.2,0.1,0.4c-0.1,0-0.2-0.1-0.3-0.1c0.2,0.4,0,0.9-0.7,1.1c0.2-0.3,0.3-0.6,0.3-0.9
						c0-0.9-0.3-1.1-0.3-1.8c0-0.3,0.1-0.6,0.4-0.8v0C2.8,6,2.7,5.9,2.6,5.8c0.4-0.1,1-0.1,1.4,0c0.4,0,0.6,0.3,0.7,0.5
						c0.1,0.1,0.2,0.7,0,1.2l-1.8,3.8c-0.1,0.2-0.1,0.3-0.1,0.5c0,0.5,0.4,0.6,0.7,0.6c0.3,0,0.6-0.2,0.6-0.5c0-0.2-0.1-0.3-0.2-0.3
						c-0.3,0-0.3,0.3-0.3,0.5c-0.2-0.1-0.3-0.3-0.3-0.4c-0.1,0-0.2-0.1-0.3-0.2c0.1-0.1,0.2-0.2,0.3-0.2c-0.1-0.3,0.1-0.4,0.3-0.5
						c-0.1,0.2-0.1,0.4,0.3,0.4c0.3,0,0.5,0,0.6,0.2l0-1.1c0-0.3-0.4-0.3-0.7-0.2C3.8,9.8,4,9.6,4.5,9.7C4.4,9.6,4.3,9.5,4.3,9.3
						c0-0.3,0.2-0.6,0.4-0.7L4.8,11.7L4.8,11.7z"/>
					<g transform="matrix(1 0 0 -1 0 645.08)">
						<path id="F_00000101810323959178161430000011935862123135335601_" class="st1" d="M4.8,14.1c0-0.8-0.7-1.2-1.3-1.2
							c-0.8,0-1.2,0.5-1.2,1.1c0,0.3,0.1,0.6,0.2,0.9l1.8,3.7c0.1,0.1,0.1,0.3,0.1,0.5c0,0.3-0.3,0.6-0.7,0.6
							c-0.3,0-0.6-0.3-0.6-0.6c0-0.4,0.2-0.6,0.4-0.6c0.3,0,0.4,0.1,0.4,0.3c0,0.1-0.1,0.2-0.2,0.2c-0.2,0-0.2-0.3-0.2-0.3
							c-0.1,0-0.2,0.1-0.2,0.3c-0.1,0-0.2,0.1-0.2,0.1c0.1,0.1,0.1,0.1,0.2,0.1c-0.1,0.2,0,0.3,0.2,0.3c0-0.1,0-0.1,0-0.2
							c0.2,0.1,0.6,0,0.6-0.5c0-0.4-0.3-0.8-0.8-0.7c0.1-0.1,0.2-0.2,0.2-0.3c-0.1,0-0.2,0-0.2,0c0.1-0.1,0.2-0.2,0.1-0.4
							c-0.1,0-0.2,0.1-0.3,0.1c0.2-0.4,0-0.9-0.7-1.1c0.2,0.3,0.3,0.6,0.3,0.9c0,0.9-0.3,1.1-0.3,1.8c0,0.3,0.1,0.6,0.4,0.8v0
							c-0.2,0-0.3,0.1-0.4,0.3c0.4,0.1,1,0.1,1.4,0c0.4,0,0.6-0.3,0.7-0.5c0.1-0.1,0.2-0.7,0-1.2l-1.8-3.8c-0.1-0.2-0.1-0.3-0.1-0.5
							c0-0.5,0.4-0.6,0.7-0.6c0.3,0,0.6,0.2,0.6,0.5c0,0.2-0.1,0.3-0.2,0.3c-0.3,0-0.3-0.3-0.3-0.5c-0.2,0.1-0.3,0.3-0.3,0.4
							c-0.1,0-0.2,0.1-0.3,0.2c0.1,0.1,0.2,0.2,0.3,0.2c-0.1,0.3,0.1,0.4,0.3,0.5c-0.1-0.2-0.1-0.4,0.3-0.4c0.3,0,0.5,0,0.6-0.2
							l0,1.1c0,0.3-0.4,0.3-0.7,0.2C3.8,16,4,16.2,4.5,16.1c-0.1,0.1-0.3,0.2-0.3,0.4c0,0.3,0.2,0.6,0.4,0.7L4.8,14.1L4.8,14.1z"/>
					</g>
				</g>
				<g transform="matrix(-1 0 0 1 240 0)">
					<g id="E_00000053521047861220307300000017678988402829880708_">
						<path class="st1" d="M4.7,2.9c0,0,0.4-0.3,0.5-0.2c0.2,0.3-0.6,1.6-0.6,2c0,0.8,0.5,1,1.1,1.1c0.4,0.1,1.1,0,1.1,0
							C6.6,5.6,6.6,5.6,6.3,5.6c0.2-0.1,0.5-0.4,0.5-0.8c0-0.6-0.3-0.9-0.3-1.6c0-0.4,0.3-0.9,0.3-0.9C6.3,2.3,6,2.8,6.2,3.2
							c-0.1,0-0.2,0-0.3-0.1c0,0.1,0,0.3,0.1,0.4c-0.1,0-0.1,0-0.2,0c0,0.1,0.1,0.3,0.3,0.4C5.5,3.8,5.2,4.1,5.2,4.5
							C5.2,4.8,5.4,5,5.6,5C5.7,5,5.8,5,5.8,5c0,0.1,0,0.2,0,0.3C6,5.2,6.1,5.1,6,4.9c0.1,0,0.2,0,0.3-0.1C6.2,4.7,6.1,4.7,6,4.7
							c0.1-0.2,0-0.3-0.1-0.3c0,0,0.1,0.3-0.1,0.3c-0.1,0-0.2,0-0.2-0.2c0-0.1,0.1-0.3,0.4-0.3s0.5,0.2,0.5,0.6
							c0,0.4-0.3,0.6-0.7,0.6C5.3,5.4,5,5.2,5,4.8c0-0.5,0.7-1.6,0.7-2c0-0.3-0.3-0.5-0.6-0.5c-0.4,0-0.7,0.4-0.7,0.4L4.7,2.9
							L4.7,2.9z"/>
						<path id="F_00000163784625199607887120000013560546165521511601_" class="st1" d="M4.6,11.7c0,0.8,0.7,1.2,1.3,1.2
							c0.8,0,1.2-0.5,1.2-1.1c0-0.3-0.1-0.6-0.2-0.9L5.1,7.3C5,7.2,5,7,5,6.8c0-0.3,0.3-0.6,0.7-0.6c0.3,0,0.6,0.3,0.6,0.6
							c0,0.4-0.2,0.6-0.4,0.6c-0.3,0-0.4-0.1-0.4-0.3c0-0.1,0.1-0.2,0.2-0.2c0.2,0,0.2,0.3,0.2,0.3C5.9,7.2,6,7.1,6,7
							c0.1,0,0.2-0.1,0.2-0.1C6.1,6.8,6.1,6.7,6,6.7C6,6.5,6,6.4,5.8,6.4c0,0.1,0,0.1,0,0.2c-0.2-0.1-0.6,0-0.6,0.5
							c0,0.4,0.3,0.8,0.8,0.7C5.9,7.8,5.9,7.9,5.8,8.1c0.1,0,0.2,0,0.2,0C6,8.1,5.9,8.2,5.9,8.4c0.1,0,0.2-0.1,0.3-0.1
							C6,8.8,6.3,9.3,6.9,9.4C6.7,9.2,6.6,8.9,6.6,8.6c0-0.9,0.3-1.1,0.3-1.8c0-0.3-0.1-0.6-0.4-0.8v0c0.2,0,0.3-0.1,0.4-0.3
							c-0.4-0.1-1-0.1-1.4,0C5,5.9,4.8,6.2,4.7,6.3C4.6,6.4,4.5,7,4.7,7.5l1.8,3.8c0.1,0.2,0.1,0.3,0.1,0.5c0,0.5-0.4,0.6-0.7,0.6
							c-0.3,0-0.6-0.2-0.6-0.5c0-0.2,0.1-0.3,0.2-0.3c0.3,0,0.3,0.3,0.3,0.5C6,12,6.1,11.8,6.1,11.7c0.1,0,0.2-0.1,0.3-0.2
							c-0.1-0.1-0.2-0.2-0.3-0.2C6.2,11,6,10.9,5.8,10.8c0.1,0.2,0.1,0.4-0.3,0.4c-0.3,0-0.5,0-0.6,0.2l0-1.1c0-0.3,0.4-0.3,0.7-0.2
							C5.6,9.8,5.4,9.6,4.8,9.7C5,9.6,5.1,9.5,5.1,9.3c0-0.3-0.2-0.6-0.4-0.7L4.6,11.7L4.6,11.7z"/>
						<g transform="matrix(1 0 0 -1 0 645.08)">
							<path id="F_00000175294903291621394940000015536397762407682434_" class="st1" d="M4.6,14.1c0-0.8,0.7-1.2,1.3-1.2
								c0.8,0,1.2,0.5,1.2,1.1c0,0.3-0.1,0.6-0.2,0.9l-1.8,3.7C5,18.6,5,18.8,5,19c0,0.3,0.3,0.6,0.7,0.6c0.3,0,0.6-0.3,0.6-0.6
								c0-0.4-0.2-0.6-0.4-0.6c-0.3,0-0.4,0.1-0.4,0.3c0,0.1,0.1,0.2,0.2,0.2c0.2,0,0.2-0.3,0.2-0.3c0.1,0,0.2,0.1,0.2,0.3
								c0.1,0,0.2,0.1,0.2,0.1C6.1,19,6.1,19.1,6,19.1c0.1,0.2,0,0.3-0.2,0.3c0-0.1,0-0.1,0-0.2c-0.2,0.1-0.6,0-0.6-0.5
								c0-0.4,0.3-0.8,0.8-0.7c-0.1-0.1-0.2-0.2-0.2-0.3c0.1,0,0.2,0,0.2,0c-0.1-0.1-0.2-0.2-0.1-0.4c0.1,0,0.2,0.1,0.3,0.1
								c-0.2-0.4,0-0.9,0.7-1.1c-0.2,0.3-0.3,0.6-0.3,0.9c0,0.9,0.3,1.1,0.3,1.8c0,0.3-0.1,0.6-0.4,0.8v0c0.2,0,0.3,0.1,0.4,0.3
								c-0.4,0.1-1,0.1-1.4,0c-0.4,0-0.6-0.3-0.7-0.5c-0.1-0.1-0.2-0.7,0-1.2l1.8-3.8c0.1-0.2,0.1-0.3,0.1-0.5
								c0-0.5-0.4-0.6-0.7-0.6c-0.3,0-0.6,0.2-0.6,0.5c0,0.2,0.1,0.3,0.2,0.3c0.3,0,0.3-0.3,0.3-0.5C6,13.8,6.1,14,6.1,14.1
								c0.1,0,0.2,0.1,0.3,0.2c-0.1,0.1-0.2,0.2-0.3,0.2C6.2,14.8,6,14.9,5.8,15c0.1-0.2,0.1-0.4-0.3-0.4c-0.3,0-0.5,0-0.6-0.2
								l0,1.1c0,0.3,0.4,0.3,0.7,0.2c-0.1,0.4-0.3,0.6-0.8,0.5c0.1,0.1,0.3,0.2,0.3,0.4c0,0.3-0.2,0.6-0.4,0.7L4.6,14.1L4.6,14.1z"
								/>
						</g>
					</g>
				</g>
			</g>
			<g transform="matrix(1 0 0 -1 0 1000)">
				<g id="D_00000008840044295557946700000008881325495134251689_">
					<g id="E_00000003106174237537232650000013695586835752259745_">
						<path class="st1" d="M4.7,37.1c0,0-0.4,0.3-0.5,0.2c-0.2-0.3,0.6-1.6,0.6-2c0-0.8-0.5-1-1.1-1.1c-0.4-0.1-1.1,0-1.1,0
							c0.1,0.2,0.2,0.2,0.4,0.2c-0.2,0.1-0.5,0.4-0.5,0.8c0,0.6,0.3,0.9,0.3,1.6c0,0.4-0.3,0.9-0.3,0.9c0.6-0.1,0.9-0.6,0.7-1
							c0.1,0,0.2,0,0.3,0.1c0-0.1,0-0.3-0.1-0.4c0.1,0,0.1,0,0.2,0c0-0.1-0.1-0.3-0.3-0.4c0.5,0.1,0.8-0.2,0.8-0.6
							C4.2,35.2,4,35,3.8,35c-0.1,0-0.2,0-0.2,0.1c0-0.1,0-0.2,0-0.3c-0.1,0-0.2,0.1-0.2,0.3c-0.1,0-0.2,0-0.3,0.1
							c0.1,0.1,0.2,0.1,0.3,0.1c-0.1,0.2,0,0.3,0.1,0.3c0,0-0.1-0.3,0.1-0.3c0.1,0,0.2,0,0.2,0.2c0,0.1-0.1,0.3-0.4,0.3
							S3,35.6,3,35.2c0-0.4,0.3-0.6,0.7-0.6c0.4,0,0.6,0.2,0.6,0.5c0,0.5-0.7,1.6-0.7,2c0,0.3,0.3,0.5,0.6,0.5
							c0.4,0,0.7-0.4,0.7-0.4L4.7,37.1L4.7,37.1z"/>
						<path id="F_00000033371646018331059000000001888721206562119056_" class="st1" d="M4.8,28.3c0-0.8-0.7-1.2-1.3-1.2
							c-0.8,0-1.2,0.5-1.2,1.1c0,0.3,0.1,0.6,0.2,0.9l1.8,3.7c0.1,0.1,0.1,0.3,0.1,0.5c0,0.3-0.3,0.6-0.7,0.6
							c-0.3,0-0.6-0.3-0.6-0.6c0-0.4,0.2-0.6,0.4-0.6c0.3,0,0.4,0.1,0.4,0.3c0,0.1-0.1,0.2-0.2,0.2c-0.2,0-0.2-0.3-0.2-0.3
							c-0.1,0-0.2,0.1-0.2,0.3c-0.1,0-0.2,0.1-0.2,0.1c0.1,0.1,0.1,0.1,0.2,0.1c-0.1,0.2,0,0.3,0.2,0.3c0-0.1,0-0.1,0-0.2
							c0.2,0.1,0.6,0,0.6-0.5c0-0.4-0.3-0.8-0.8-0.7c0.1-0.1,0.2-0.2,0.2-0.3c-0.1,0-0.2,0-0.2,0c0.1-0.1,0.2-0.2,0.1-0.4
							c-0.1,0-0.2,0.1-0.3,0.1c0.2-0.4,0-0.9-0.7-1.1c0.2,0.3,0.3,0.6,0.3,0.9c0,0.9-0.3,1.1-0.3,1.8c0,0.3,0.1,0.6,0.4,0.8v0
							c-0.2,0-0.3,0.1-0.4,0.3c0.4,0.1,1,0.1,1.4,0c0.4,0,0.6-0.3,0.7-0.5c0.1-0.1,0.2-0.7,0-1.2l-1.8-3.8c-0.1-0.2-0.1-0.3-0.1-0.5
							c0-0.5,0.4-0.6,0.7-0.6c0.3,0,0.6,0.2,0.6,0.5c0,0.2-0.1,0.3-0.2,0.3c-0.3,0-0.3-0.3-0.3-0.5c-0.2,0.1-0.3,0.3-0.3,0.4
							c-0.1,0-0.2,0.1-0.3,0.2c0.1,0.1,0.2,0.2,0.3,0.2c-0.1,0.3,0.1,0.4,0.3,0.5c-0.1-0.2-0.1-0.4,0.3-0.4c0.3,0,0.5,0,0.6-0.2
							l0,1.1c0,0.3-0.4,0.3-0.7,0.2c0.1,0.4,0.3,0.6,0.8,0.5c-0.1,0.1-0.3,0.2-0.3,0.4c0,0.3,0.2,0.6,0.4,0.7L4.8,28.3L4.8,28.3z"/>
						<g transform="matrix(1 0 0 -1 0 645.08)">
							<path id="F_00000159454746169710309470000014622497052510517649_" class="st1" d="M4.8,25.9c0,0.8-0.7,1.2-1.3,1.2
								c-0.8,0-1.2-0.5-1.2-1.1c0-0.3,0.1-0.6,0.2-0.9l1.8-3.7c0.1-0.1,0.1-0.3,0.1-0.5c0-0.3-0.3-0.6-0.7-0.6
								c-0.3,0-0.6,0.3-0.6,0.6c0,0.4,0.2,0.6,0.4,0.6c0.3,0,0.4-0.1,0.4-0.3c0-0.1-0.1-0.2-0.2-0.2c-0.2,0-0.2,0.3-0.2,0.3
								c-0.1,0-0.2-0.1-0.2-0.3c-0.1,0-0.2-0.1-0.2-0.1c0.1-0.1,0.1-0.1,0.2-0.1c-0.1-0.2,0-0.3,0.2-0.3c0,0.1,0,0.1,0,0.2
								c0.2-0.1,0.6,0,0.6,0.5c0,0.4-0.3,0.8-0.8,0.7c0.1,0.1,0.2,0.2,0.2,0.3c-0.1,0-0.2,0-0.2,0c0.1,0.1,0.2,0.2,0.1,0.4
								c-0.1,0-0.2-0.1-0.3-0.1c0.2,0.4,0,0.9-0.7,1.1c0.2-0.3,0.3-0.6,0.3-0.9c0-0.9-0.3-1.1-0.3-1.8c0-0.3,0.1-0.6,0.4-0.8v0
								c-0.2,0-0.3-0.1-0.4-0.3c0.4-0.1,1-0.1,1.4,0c0.4,0,0.6,0.3,0.7,0.5c0.1,0.1,0.2,0.7,0,1.2l-1.8,3.8
								c-0.1,0.2-0.1,0.3-0.1,0.5c0,0.5,0.4,0.6,0.7,0.6c0.3,0,0.6-0.2,0.6-0.5c0-0.2-0.1-0.3-0.2-0.3c-0.3,0-0.3,0.3-0.3,0.5
								c-0.2-0.1-0.3-0.3-0.3-0.4c-0.1,0-0.2-0.1-0.3-0.2c0.1-0.1,0.2-0.2,0.3-0.2c-0.1-0.3,0.1-0.4,0.3-0.5
								c-0.1,0.2-0.1,0.4,0.3,0.4c0.3,0,0.5,0,0.6,0.2l0-1.1c0-0.3-0.4-0.3-0.7-0.2C3.8,24,4,23.8,4.5,23.9
								c-0.1-0.1-0.3-0.2-0.3-0.4c0-0.3,0.2-0.6,0.4-0.7L4.8,25.9L4.8,25.9z"/>
						</g>
					</g>
					<g transform="matrix(-1 0 0 1 240 0)">
						<g id="E_00000140711843419672908670000007248218774275442571_">
							<path class="st1" d="M4.7,37.1c0,0,0.4,0.3,0.5,0.2c0.2-0.3-0.6-1.6-0.6-2c0-0.8,0.5-1,1.1-1.1c0.4-0.1,1.1,0,1.1,0
								c-0.1,0.2-0.2,0.2-0.4,0.2c0.2,0.1,0.5,0.4,0.5,0.8c0,0.6-0.3,0.9-0.3,1.6c0,0.4,0.3,0.9,0.3,0.9c-0.6-0.1-0.9-0.6-0.7-1
								c-0.1,0-0.2,0-0.3,0.1c0-0.1,0-0.3,0.1-0.4c-0.1,0-0.1,0-0.2,0c0-0.1,0.1-0.3,0.3-0.4c-0.5,0.1-0.8-0.2-0.8-0.6
								c0-0.3,0.2-0.5,0.4-0.5c0.1,0,0.2,0,0.2,0.1c0-0.1,0-0.2,0-0.3c0.1,0,0.2,0.1,0.2,0.3c0.1,0,0.2,0,0.3,0.1
								c-0.1,0.1-0.2,0.1-0.3,0.1c0.1,0.2,0,0.3-0.1,0.3c0,0,0.1-0.3-0.1-0.3c-0.1,0-0.2,0-0.2,0.2c0,0.1,0.1,0.3,0.4,0.3
								s0.5-0.2,0.5-0.6c0-0.4-0.3-0.6-0.7-0.6c-0.4,0-0.6,0.2-0.6,0.5c0,0.5,0.7,1.6,0.7,2c0,0.3-0.3,0.5-0.6,0.5
								c-0.4,0-0.7-0.4-0.7-0.4L4.7,37.1L4.7,37.1z"/>
							<path id="F_00000025422852936058503470000017893740930873532036_" class="st1" d="M4.6,28.3c0-0.8,0.7-1.2,1.3-1.2
								c0.8,0,1.2,0.5,1.2,1.1c0,0.3-0.1,0.6-0.2,0.9l-1.8,3.7C5,32.8,5,33,5,33.2c0,0.3,0.3,0.6,0.7,0.6c0.3,0,0.6-0.3,0.6-0.6
								c0-0.4-0.2-0.6-0.4-0.6c-0.3,0-0.4,0.1-0.4,0.3c0,0.1,0.1,0.2,0.2,0.2c0.2,0,0.2-0.3,0.2-0.3C5.9,32.8,6,32.9,6,33
								c0.1,0,0.2,0.1,0.2,0.1c-0.1,0.1-0.1,0.1-0.2,0.1c0.1,0.2,0,0.3-0.2,0.3c0-0.1,0-0.1,0-0.2c-0.2,0.1-0.6,0-0.6-0.5
								c0-0.4,0.3-0.8,0.8-0.7c-0.1-0.1-0.2-0.2-0.2-0.3c0.1,0,0.2,0,0.2,0c-0.1-0.1-0.2-0.2-0.1-0.4c0.1,0,0.2,0.1,0.3,0.1
								c-0.2-0.4,0-0.9,0.7-1.1c-0.2,0.3-0.3,0.6-0.3,0.9c0,0.9,0.3,1.1,0.3,1.8c0,0.3-0.1,0.6-0.4,0.8v0c0.2,0,0.3,0.1,0.4,0.3
								c-0.4,0.1-1,0.1-1.4,0c-0.4,0-0.6-0.3-0.7-0.5c-0.1-0.1-0.2-0.7,0-1.2l1.8-3.8c0.1-0.2,0.1-0.3,0.1-0.5
								c0-0.5-0.4-0.6-0.7-0.6c-0.3,0-0.6,0.2-0.6,0.5c0,0.2,0.1,0.3,0.2,0.3c0.3,0,0.3-0.3,0.3-0.5C6,28,6.1,28.2,6.1,28.3
								c0.1,0,0.2,0.1,0.3,0.2c-0.1,0.1-0.2,0.2-0.3,0.2C6.2,29,6,29.1,5.8,29.2c0.1-0.2,0.1-0.4-0.3-0.4c-0.3,0-0.5,0-0.6-0.2
								l0,1.1c0,0.3,0.4,0.3,0.7,0.2c-0.1,0.4-0.3,0.6-0.8,0.5c0.1,0.1,0.3,0.2,0.3,0.4c0,0.3-0.2,0.6-0.4,0.7L4.6,28.3L4.6,28.3z"
								/>
							<g transform="matrix(1 0 0 -1 0 645.08)">
								<path id="F_00000064351913307249487260000013397785209856485028_" class="st1" d="M4.6,25.9c0,0.8,0.7,1.2,1.3,1.2
									c0.8,0,1.2-0.5,1.2-1.1c0-0.3-0.1-0.6-0.2-0.9l-1.8-3.7C5,21.4,5,21.2,5,21c0-0.3,0.3-0.6,0.7-0.6c0.3,0,0.6,0.3,0.6,0.6
									c0,0.4-0.2,0.6-0.4,0.6c-0.3,0-0.4-0.1-0.4-0.3c0-0.1,0.1-0.2,0.2-0.2c0.2,0,0.2,0.3,0.2,0.3c0.1,0,0.2-0.1,0.2-0.3
									c0.1,0,0.2-0.1,0.2-0.1C6.1,21,6.1,20.9,6,20.9c0.1-0.2,0-0.3-0.2-0.3c0,0.1,0,0.1,0,0.2c-0.2-0.1-0.6,0-0.6,0.5
									c0,0.4,0.3,0.8,0.8,0.7c-0.1,0.1-0.2,0.2-0.2,0.3c0.1,0,0.2,0,0.2,0c-0.1,0.1-0.2,0.2-0.1,0.4c0.1,0,0.2-0.1,0.3-0.1
									c-0.2,0.4,0,0.9,0.7,1.1c-0.2-0.3-0.3-0.6-0.3-0.9c0-0.9,0.3-1.1,0.3-1.8c0-0.3-0.1-0.6-0.4-0.8v0c0.2,0,0.3-0.1,0.4-0.3
									c-0.4-0.1-1-0.1-1.4,0c-0.4,0-0.6,0.3-0.7,0.5c-0.1,0.1-0.2,0.7,0,1.2l1.8,3.8c0.1,0.2,0.1,0.3,0.1,0.5
									c0,0.5-0.4,0.6-0.7,0.6c-0.3,0-0.6-0.2-0.6-0.5c0-0.2,0.1-0.3,0.2-0.3c0.3,0,0.3,0.3,0.3,0.5C6,26.2,6.1,26,6.1,25.9
									c0.1,0,0.2-0.1,0.3-0.2c-0.1-0.1-0.2-0.2-0.3-0.2C6.2,25.2,6,25.1,5.8,25c0.1,0.2,0.1,0.4-0.3,0.4c-0.3,0-0.5,0-0.6,0.2
									l0-1.1c0-0.3,0.4-0.3,0.7-0.2c-0.1-0.4-0.3-0.6-0.8-0.5c0.1-0.1,0.3-0.2,0.3-0.4c0-0.3-0.2-0.6-0.4-0.7L4.6,25.9L4.6,25.9z"
									/>
							</g>
						</g>
					</g>
				</g>
			</g>
		</g>
	</g>
</g>
</svg>
