<?xml version="1.0" encoding="utf-8"?>
<!-- Generator: Adobe Illustrator 27.0.0, SVG Export Plug-In . SVG Version: 6.00 Build 0)  -->
<svg version="1.1" id="Layer_1" xmlns="http://www.w3.org/2000/svg" xmlns:xlink="http://www.w3.org/1999/xlink" x="0px" y="0px"
	 viewBox="0 0 432.6 103.8" style="enable-background:new 0 0 432.6 103.8;" xml:space="preserve">
<style type="text/css">
	.st0{fill-rule:evenodd;clip-rule:evenodd;fill:#FFFFFF;}
</style>
<path class="st0" d="M375.8,33.5C375.8,33.5,375.8,33.4,375.8,33.5c-5,0-9.9-0.1-14.9,0c-4.3,0.1-5.7,2.7-5.8,6.6
	c-0.1,3.9,1,6.9,5.4,6.9c10.1,0.2,20.1,0.2,30.2,0c5-0.1,5.6-3.6,5.5-7.7c-0.1-4.1-2.2-5.8-6-5.8C385.4,33.4,380.6,33.5,375.8,33.5
	 M375.7,70.3c5,0,9.9,0,14.9,0c5,0,5.9-3.1,5.8-7.3c0-4.2-1.3-6.8-5.9-6.8c-9.7,0-19.5,0-29.2,0c-4.9,0-6.2,2.9-6.2,7.2
	c-0.1,4.5,1.6,7,6.3,7C366.1,70.3,370.9,70.3,375.7,70.3z M404.3,51.2c6.5,7.1,5.2,15.1,3.3,22.9c-1.3,5.1-6,7-10.9,7.1
	c-14.1,0.2-28.2,0.2-42.3,0c-6.6-0.1-10.6-3.9-11.5-10.7c-0.9-6.9-1.6-13.8,4.6-19.6c-5-4.2-4.7-9.9-4.5-15.6
	c0.3-8.2,4.2-12.7,12.4-12.8c13.8-0.3,27.6-0.3,41.3,0c6.7,0.1,10.5,4.1,11.5,10.7C409.5,40.4,408.5,44.9,404.3,51.2z"/>
<path class="st0" d="M282.9,56.1c-1.6,9.3,0.6,13.9,7.2,14.2c8.6,0.4,17.2,0.3,25.9,0.1c4.8-0.1,4.7-4,4.7-7.4c0-3.3,0-6.9-4.6-6.9
	C305.2,56,294.2,56.1,282.9,56.1 M330.4,23.1c0.4,3.4,0.6,6.6-0.1,9.6c-1.8,1.5-3.8,1-5.7,1c-10.4,0-20.8,0-31.3,0
	c-9.2,0-11.7,2.8-10.7,12.3c3,1.2,6.2,0.5,9.4,0.6c9,0.1,18-0.1,26.9,0.1c9.3,0.1,13.5,4.2,14.1,13.4c0,0.5,0,1,0.1,1.4
	c0.5,16.3-2.9,19.8-19.3,19.8c-8,0-16,0.1-24,0C276.7,81,271,75.9,269.8,63c-0.8-8.1-0.9-16.3,0.2-24.5c1.2-9,5.5-13.5,14.1-15.4
	C288.4,22.2,325.5,22.1,330.4,23.1z"/>
<path class="st0" d="M216.2,55.9c2.4-4.5,4.6-8.5,7.1-13.3c0.1,0,0.3,0,0.3,0c2.5,4.7,4.9,9.1,7.2,13.3
	C226,55.9,221.6,55.9,216.2,55.9 M90.3,52.4c0-3.2,0-6.3,0-9.7c5.9,0,11.7-0.1,17.4,0c3,0.1,3.5,2.2,3.6,4.7c0.1,2.7-0.8,4.9-3.9,5
	C101.6,52.4,96.2,52.4,90.3,52.4z M245.1,67.2c-5.3-9.7-10.2-19-15.6-28c-2.8-4.7-9.3-4.3-12.2,0.6c-2.7,4.5-5.1,9.2-7.6,13.9
	c-2.4,4.4-4.8,8.9-7.3,13.5c2.3,0.5,4.7,0.8,7.7,0c1.1-2,2.4-4.6,3-5.6c6.4,0,14.7,0,20.9,0c0.6,1.2,2.2,4.1,3,5.6
	C239.2,67.7,242.2,68,245.1,67.2z M192,60.9c-0.4,0.1-0.8,0-1.1-0.2c-1.1-1.4-2.2-2.7-3.3-4.1c-4.6-6-9.1-12-13.7-18
	c-2.6-3.4-6.3-2.7-9.7-2.4c-1.7,0.1-3,1.3-3,3.2c0,9.2,0,18.5,0,27.6c2.4,0.8,4.2,0.9,6.7-0.2c0-7.5,0-15.2,0-23.1
	c1.5,0,1.9,0.4,2.9,1.7c4.5,5.8,10.4,13.7,14.8,19.7c2.8,3.8,6.6,2.4,10.1,2.5c1.9,0,3-1.4,3-3.1c0.1-9.2,0-18.5,0-27.6
	c-2.5-0.9-4.5-1.3-6.7,0.4C192,44.9,192,53.1,192,60.9z M154.9,36.3c-8.2-0.1-16.7-0.9-25.1,0.6c-4.5,0.8-6.9,3.9-7.1,8.5
	c-0.2,4.5-0.2,9,0,13.5c0.2,4.3,2.3,7.8,6.5,8.4c8.7,1.2,17.4,0.5,26.1,0.4c0.4-2.4,0.8-4.1-0.8-6.2c-6.4,0-13.1,0-19.8,0
	c-4,0-6-1.6-4.9-6.6c8.4,0,16.8,0,25,0c0.7-2.3,1-3.8-0.5-5.6c-7.9,0-16.2,0-24.6,0c-0.8-4.6,1.1-6.4,5.1-6.4c6.8,0,13.7,0,20.3,0
	C155.8,40.1,156,38.4,154.9,36.3z M90.3,58.2c3.2,0,9.2,0,12.9,0c0.8,0,1.5,0.4,2,1c1.7,2.3,3.8,5,6.2,8c2.7,0.6,5.4,0.8,8,0.1
	c-2.7-3.5-4.9-6.5-7.3-9.6c1.1-0.8,2.1-1.3,2.9-2c4.3-3.5,3.3-8.4,2.8-12.9c-0.4-3.6-2.9-5.8-6.4-6.2c-9.2-0.9-18.4-0.4-28-0.2
	c0,10.6,0,20.8,0,30.8c2.2,0.7,4.6,0.8,6.9,0C90.2,64.8,90.2,61.4,90.3,58.2z M265.6,81.2c-11,0-20.3,0-29.6,0
	c-63.5,0-127,0-190.5,0c-15.4,0-21.3-5.7-21.7-21c-0.2-6.2-0.2-12.5,0-18.8c0.5-11.9,6.3-17.8,18.1-18.9c1.6-0.1,3.2-0.1,4.8-0.1
	c71.3,0,142.7,0,214,0c1.1,0,2.2,0,5.1,0c-8.1,4.8-7.8,11.6-7.7,18.4c0.1,8.7,0.2,17.3,0,26C258,72.3,259.1,77.2,265.6,81.2z
	 M50.7,55.9c2.4-4.5,4.6-8.5,7.1-13.3c0.1,0,0.3,0,0.3,0c2.5,4.7,4.9,9.1,7.2,13.3C60.4,55.9,56.1,55.9,50.7,55.9z M79.5,67.2
	c-5.3-9.7-10.2-19-15.6-28c-2.8-4.7-9.3-4.3-12.2,0.6c-2.7,4.5-5.1,9.2-7.6,13.9c-2.4,4.4-4.8,8.9-7.3,13.5c2.3,0.5,4.7,0.8,7.7,0
	c1.1-2,2.4-4.6,3-5.6c6.4,0,14.7,0,20.9,0c0.6,1.2,2.2,4.1,3,5.6C73.6,67.7,76.6,68,79.5,67.2z"/>
<path class="st0" d="M27.5,8.2c-10.6,0-19.3,8.6-19.3,19.3v48.8c0,10.6,8.6,19.3,19.3,19.3H405c10.6,0,19.3-8.6,19.3-19.3V27.5
	c0-10.6-8.6-19.3-19.3-19.3H27.5z M432.6,76.3c0,15.2-12.4,27.5-27.5,27.5H27.5C12.4,103.8,0,91.5,0,76.3V27.5C0,12.3,12.4,0,27.5,0
	H405c15.2,0,27.5,12.4,27.5,27.5L432.6,76.3L432.6,76.3z"/>
</svg>
