<?xml version="1.0" encoding="utf-8"?>
<!-- Generator: Adobe Illustrator 27.0.0, SVG Export Plug-In . SVG Version: 6.00 Build 0)  -->
<svg version="1.1" id="Слой_1" xmlns="http://www.w3.org/2000/svg" xmlns:xlink="http://www.w3.org/1999/xlink" x="0px" y="0px"
	 viewBox="0 0 994.2 164" style="enable-background:new 0 0 994.2 164;" xml:space="preserve">
<style type="text/css">
	.st0{fill:#CC2229;}
	.st1{fill:#FFFFFF;}
</style>
<g>
	<path class="st0" d="M553.4-102h3.3l-0.9-13.3c0-0.7-0.2-2.2-0.2-4c0-0.9,0-1.5,0-2h-0.4c0,1.6-0.2,3.1-0.2,4s-0.2,1.6-0.2,2
		L553.4-102z M543.7-84l6.9-43.6h11.1l5.1,43.6h-9.1l-0.9-11.7h-4.4L551.3-84H543.7z M509.2-84v-43.6h12.4l2.9,22.8
		c0.2,1.8,0.5,4.2,0.7,7.3c0,0.2,0,0.4,0,0.5h0.4c0.2-1.5,0.2-2.7,0.4-4s0.4-2.7,0.5-4.4l3.5-22.3h12v43.6h-8v-23.2
		c0-1.3,0-2.6,0-4.2s0-3.3,0.2-5.3H534c-0.2,2.6-0.4,5.1-0.9,7.5c0,0.2,0,0.2,0,0.2l-4.2,25h-7.5l-4-23.7c-0.2-0.7-0.2-2-0.4-3.5
		s-0.4-3.3-0.4-5.3h-0.4c0,0,0,0.4,0,1.1c0,9.1,0,19.7,0,31.6h-7.1V-84H509.2z M473.6-84v-43.6H486l2.9,22.8
		c0.2,1.8,0.5,4.2,0.7,7.3c0,0.2,0,0.4,0,0.5h0.4c0.2-1.5,0.2-2.7,0.4-4c0.2-1.3,0.4-2.7,0.5-4.4l3.5-22.3h12v43.6h-8v-23.2
		c0-1.3,0-2.6,0-4.2s0-3.3,0.2-5.3h-0.2c-0.2,2.6-0.4,5.1-0.9,7.5c0,0.2,0,0.2,0,0.2l-4.2,25h-7.5l-4-23.7c-0.2-0.7-0.2-2-0.4-3.5
		c-0.2-1.5-0.4-3.3-0.4-5.3h-0.4c0,0,0,0.4,0,1.1c0,9.1,0,19.7,0,31.6h-7.1V-84H473.6z M435.8-94.2v-8.2c0-1.8,0.4-3.3,0.9-4.2
		c0.5-1.1,1.6-2,3.1-2.9c-1.1-1.5-1.6-2.7-2-3.7s-0.5-2-0.5-3.5v-4c0-2.6,0.7-4.6,2.4-5.8c1.6-1.3,4-2,6.9-2c2.7,0,4.7,0.7,6.4,2
		s2.4,3.1,2.4,5.1v4.6c0,1.8-0.5,3.3-1.5,4.6c-0.9,1.3-2.7,2.6-5.5,4.2c0.5,0.9,1.6,2.9,3.3,5.8l0.4,0.7c0-0.4-0.2-0.7-0.2-1.1
		s0-0.7,0-1.3v-0.5v-3.7h7.1v13c0,0.7,0,1.3-0.2,1.8s-0.4,1.1-0.7,1.6c0.4,0.4,0.5,0.5,0.9,0.5c0.4,0.2,0.7,0.2,1.1,0.2
		c0,0,0.2,0,0.4,0c0.2,0,0.2,0,0.4,0v6.8h-4c-0.4,0-0.9-0.2-1.3-0.4s-0.7-0.5-1.3-1.1c-1.1,0.9-2.2,1.5-3.3,1.8
		c-1.3,0.4-2.7,0.5-4.6,0.5c-3.7,0-6.2-0.9-8-2.7C436.7-87.6,435.8-90.4,435.8-94.2z M444.2-102.4v8.4c0,1.3,0.4,2.4,0.9,3.1
		s1.5,1.1,2.4,1.1c0.5,0,1.1-0.2,1.6-0.4s0.9-0.5,1.5-1.1L444.2-102.4z M445.9-112.8c0.7-0.4,1.3-0.9,1.6-1.1
		c0.2-0.4,0.4-0.9,0.4-1.6v-4.7c0-0.7-0.2-1.3-0.4-1.6c-0.2-0.4-0.5-0.4-1.1-0.4c-0.5,0-0.9,0.2-1.1,0.5c-0.2,0.4-0.4,0.9-0.4,1.8
		v4.7c0,0.5,0,1.1,0.2,1.5C445.3-113.7,445.7-113.4,445.9-112.8z M402.2-117.4c0-4,0.7-6.9,2.4-8.8c1.6-1.6,4.2-2.6,7.9-2.6
		c3.5,0,6,0.7,7.7,2.4c1.6,1.6,2.6,4,2.6,7.1v6.6H414v-7.9c0-0.7-0.2-1.3-0.4-1.6c-0.2-0.4-0.5-0.5-1.1-0.5c-0.5,0-0.9,0.2-1.1,0.5
		c-0.2,0.4-0.4,0.9-0.4,1.6v28.5c0,0.7,0.2,1.3,0.4,1.6c0.2,0.4,0.5,0.5,1.1,0.5c0.5,0,0.9-0.2,1.1-0.5c0.2-0.4,0.4-0.9,0.4-1.6
		v-7.7h-2.2v-6.8h11v22.3h-4.4l-0.5-2.7c-1.1,1.3-2.2,2.2-3.3,2.9c-1.3,0.5-2.6,0.9-4,0.9c-2.7,0-4.7-0.9-6-2.9
		c-1.3-1.8-2-4.7-2-8.6v-22.8L402.2-117.4L402.2-117.4z M376.7-84v-43.6h11.9l3.1,18.4c0.2,1.6,0.5,3.5,0.7,5.7
		c0.2,2,0.4,4.4,0.5,7.1h0.4c-0.2-3.1-0.2-5.8-0.4-8c0-2.4-0.2-4-0.2-4.9v-18.1h6.9v43.6h-10.2l-4.6-23.7c-0.2-0.9-0.4-2.4-0.7-4.2
		c-0.2-1.8-0.5-3.8-0.7-6.2h-0.2c0.2,1.8,0.2,3.5,0.4,4.7c0,1.3,0.2,2.6,0.2,3.3V-84H376.7L376.7-84z M365.2-84v-43.6h8.8V-84H365.2
		z M340.5-84l5.3-22.6l-4.6-21.2h8.9l1.8,9.9c0.2,0.9,0.2,1.8,0.4,2.7c0.2,0.9,0.2,1.8,0.4,2.9h0.4c0.2-1.1,0.4-2.2,0.4-3.3
		c0.2-1.1,0.4-1.8,0.4-2.6l2-9.7h7.9l-4.9,19.7l5.1,23.9h-9.1L352.7-98c-0.2-1.3-0.4-2.4-0.4-3.1s-0.2-1.3-0.2-1.8h-0.2
		c-0.2,1.5-0.4,2.9-0.7,4.7c0,0.2,0,0.2,0,0.4l-2.4,13.5h-8.2L340.5-84L340.5-84z M327.9-120.3v28.5c0,0.7,0.2,1.3,0.4,1.6
		c0.2,0.4,0.5,0.5,1.1,0.5c0.5,0,0.9-0.2,1.1-0.5c0.2-0.4,0.4-0.9,0.4-1.6v-28.5c0-0.7-0.2-1.3-0.4-1.6c-0.2-0.4-0.5-0.5-1.1-0.5
		c-0.5,0-0.9,0.2-1.1,0.5C328.1-121.6,327.9-121,327.9-120.3z M319.2-117.4c0-4,0.7-6.9,2.4-8.8c1.6-1.6,4.2-2.6,7.9-2.6
		c3.7,0,6.2,0.9,7.9,2.6c1.6,1.6,2.4,4.6,2.4,8.8v23c0,4-0.7,6.9-2.4,8.8c-1.6,1.6-4.2,2.6-7.9,2.6c-3.7,0-6.2-0.9-7.9-2.6
		c-1.6-1.6-2.4-4.6-2.4-8.8V-117.4z M296.7-84v-43.6h10.2c3.5,0,6,0.5,7.7,1.8c1.6,1.3,2.6,3.1,2.6,5.7v5.1c0,2.4-0.5,4-1.5,5.1
		c-0.9,1.1-2.7,1.8-5.3,2.4v0.2c2.2,0.2,4,0.9,5.1,2s1.6,2.9,1.6,5.1v6.8c0,3.5-0.7,5.8-2.4,7.3c-1.6,1.5-4.4,2.2-8.2,2.2L296.7-84
		L296.7-84L296.7-84z M308.4-112.6v-6.9c0-0.9-0.2-1.6-0.5-2c-0.4-0.4-1.1-0.5-2.4-0.5v12c1.3,0,2-0.2,2.4-0.5
		C308.2-111,308.4-111.7,308.4-112.6z M308.4-92.6v-9.1c0-0.9-0.2-1.5-0.5-1.8c-0.4-0.4-0.9-0.5-1.8-0.5h-0.5v14.1h0.5
		c0.9,0,1.5-0.2,1.8-0.5C308.2-91.1,308.4-91.6,308.4-92.6z"/>
	<path class="st1" d="M410.3-255c0.9,0.2,1.8,0.2,2.4-0.2c0.7-0.4,1.5-0.9,2.4-1.5c0.7-0.5,1.3-1.1,1.6-1.6c0.4-0.7,0.7-1.3,1.1-1.5
		c0.4-0.7,0.5-1.6,0.4-2.6c0-0.9-0.2-1.6-0.5-2.6c-0.4-0.9-0.7-1.6-1.1-2.4c-0.4-0.7-0.7-1.3-1.1-1.6c-0.9-1.5-1.6-2.2-2-2
		c-0.5,0.2-0.5,1.1,0.2,2.7c0.4,0.9,0.7,1.6,0.9,2.2c0,0.5,0.4,1.1,0.4,2c0.2,0.7,0,1.5-0.4,2c-0.5,0.7-1.5,0.9-2.9,0.7
		c-2.9-0.2-6.9-0.7-11.7-1.5c-4.7-0.7-10.2-1.6-16.2-2.6c2-2.4,3.8-4.6,5.3-6.8c0.7-0.9,0.7-1.8,0.4-2.6c-0.5-0.9-1.5-1.5-2.7-1.3
		c-1.3,0.2-2.9,0.7-4.7,1.6c-1.8,0.9-3.3,1.8-4.4,2.6c-0.7,0.4-1.1,0.7-1.1,1.1s0.5,0.5,1.5,0.2c0.5-0.2,1.1-0.2,1.6-0.4
		c0.5,0,1.1,0,1.5-0.2c0.4,0,0.5,0,0.7,0.4c0,0.4,0,0.7-0.4,1.1s-0.9,0.9-1.3,1.5c-0.5,0.7-1.3,1.5-1.8,2.2
		c-6.9-1.1-14.2-2.2-21.9-3.3c-7.7-0.9-15-1.8-22.1-2.6c-7.1-0.7-13.7-1.1-19.5-1.3c-5.8-0.2-10.6,0-14.1,0.7
		c-2,0.4-4.4,1.1-6.9,2.2c-2.7,1.1-5.1,2.4-7.1,4s-3.5,3.7-4.2,5.8c-0.9,2.2-0.5,4.7,1.1,7.3c1.6,2.9,3.7,5.5,5.7,7.9
		c2.2,2.6,4.7,4.9,7.7,7.7c0.5,0.4,1.1,0.9,1.5,1.1c0.5,0.4,0.9,0.5,1.1,0.4c0.2,0,0.2-0.2-0.2-0.5c-0.4-0.5-0.7-1.3-1.6-2.2
		c-2-2.2-4.2-4.9-6.4-8c-2.4-3.1-4.2-6.2-5.7-9.5c-1.1-2.6-1.3-4.7-0.4-6.4c0.9-1.7,2.4-3.1,4.2-4c2-1.1,4-1.8,6.4-2.2
		c2.4-0.5,4.4-0.9,6.2-1.1c4.6-0.4,9.9-0.4,15.9-0.2c6,0.4,12.2,1.1,18.6,1.6c6.6,0.9,13.3,1.8,19.9,2.9c6.8,1.1,13.1,2.4,19.4,3.7
		c-2.2,3.5-4.9,7.7-8,12.6c-3.1,4.9-6.4,10.2-9.7,15.9c-3.3,5.7-6.6,11.5-9.7,17.5c-3.3,6-6,11.7-8.6,17.2s-4.6,10.4-6,14.6
		c-1.5,4.6-2.2,8-2.2,10.6c0,1.1,0.2,1.8,0.7,2.2c0.7,0.5,1.3,0.5,1.8,0.4c0.7,0,1.3-0.4,1.6-0.9c0.4-0.5,0.5-1.1,0.2-1.8
		c-0.4-0.9-0.7-1.8-1.1-3.1s-0.4-2.6,0.2-4c0.9-2.9,2.2-6.4,4-10.4c2-4,4-8.4,6.4-13c2.6-4.7,5.3-9.5,8.2-14.6c2.9-5.1,6-10,8.9-15
		c3.1-4.9,6.2-9.7,9.1-14.2c2.9-4.6,5.8-8.8,8.6-12.6c6.6,1.5,12.4,2.7,17.7,3.8C403.5-256.1,407.5-255.4,410.3-255 M424-175.1
		c0.2,0,0.5-0.2,1.1-0.4c0.5-0.2,1.3-0.4,2.2-0.5c1.8-0.4,2.9-0.9,3.1-1.3c1.5-1.8,2.9-3.3,4-4.6c1.3-1.5,2.4-2.4,3.3-3.3
		c3.7-3.3,8-6.6,13-9.7c2.4-1.5,4.2-2.6,5.7-3.3c1.6-0.9,2.7-1.5,3.7-1.6c0.7-0.2,1.3-0.2,1.6-0.2c1.3,0.2,2,0.9,2,2.4
		c0,0.9-0.2,1.5-0.5,2.2c-1.1,2.7-2.4,5.7-4.2,8.6c-2,2.9-4.2,6-6.8,9.1c-0.4,0.4-0.4,0.7,0.2,1.5c0.7,0.7,1.3,0.9,1.6,0.7
		c0.4-0.2,1.1-0.4,1.6-0.5c0.5-0.2,1.5-0.5,2.7-0.7c0.9-0.2,1.6-0.4,2-0.7c0.5-0.2,0.9-0.4,1.1-0.5c3.7-4.2,11.9-10,24.8-17.3
		c1.1-0.5,2-0.7,2.6-0.7c1.1,0.2,1.8,0.9,1.8,2.2c0,1.1-0.4,2-0.9,3.1c-2.9,6.6-8,13.3-15.2,20.1c-0.4,0.9-0.4,1.8-0.2,2.7
		c-1.1,0.9-2,1.6-3.1,2.4c-0.4,0.2-0.4,0.4-0.4,0.7c0,0.7,0.5,1.3,1.5,1.5c0.4,0,0.7,0,1.3-0.2c8.8-4.7,19.9-8.2,33-10.2
		c12.6-1.6,25.2-2,37.8-0.5c0.7,0,1.6,0.2,2.4,0.2c0.7,0.2,1.6,0.4,2.2,0.5c5.8,1.3,10.4,3.3,13.7,6c3.1,2.6,4.7,5.3,4.7,7.9
		c0,0.9-0.2,2-0.9,3.1c-0.7,1.5-1.5,2.4-2,2.6c-0.7,0.2-1.1,0.4-1.1,0.7c0,0.2,0.2,0.4,0.5,0.5c0.4,0,1.1,0,1.6-0.2
		c1.6-0.2,2.6-1.1,3.3-2.4c0.4-0.9,0.5-1.8,0.5-2.9c0-3.7-2.4-7.3-7.1-10.8c-2.4-1.8-5.1-3.3-8-4.2c-2.9-1.1-6.4-2-10-2.6
		c-4.6-0.7-9.7-1.1-15.2-1.1s-11.9,0.4-18.6,0.9c-9.7,0.9-17.5,2.7-23.9,4c-0.5,0-0.9,0.2-1.3,0.2c-0.4,0.2-0.7,0.2-1.1,0
		c-0.5-0.2-0.9-0.5-0.9-1.1c0-0.7,0.5-1.5,1.3-2.6c3.1-4,5.7-7.7,8-11.1c2.4-3.5,4.4-6.9,6-10c0.5-0.5,0.9-0.9,1.3-1.1
		c0.4-0.4,0.7-0.7,1.1-0.9c0.4-1.6-0.2-2.6-1.6-2.7c-0.4,0-0.9,0-1.5,0.2c-4.4,1.1-9.1,3.1-14.4,5.5c-5.3,2.6-11,6-17,10
		c-0.4,0.4-0.7,0.4-1.3,0.2c-0.7,0-1.3-0.5-1.3-1.5c0-0.5,0.4-1.3,0.7-1.8c2-3.1,3.3-5.7,4.2-7.5c1.1-1.8,1.6-3.1,1.6-4
		s-0.4-1.5-1.3-2c-2.4-1.1-6.4-0.4-11.9,2c-7.3,3.1-13.7,6.9-19,11.1c-0.5,0.4-1.1,0.5-1.5,0.5c-0.9-0.2-0.9-1.1,0.4-2.7
		c2.6-3.8,5.5-7.3,8.9-10.6c2.9-2.7,4.7-4.4,5.3-4.6c0.7-0.4,0.9-0.7,0.5-0.9s-1.1-0.2-2-0.2c-0.9,0.2-1.6,0.5-2.2,0.9
		c-1.5,1.1-3.1,2.7-5.1,4.6c-2,2-4.2,4.6-6.8,7.5c-2.4,2.9-4.7,5.7-6.6,8c-2,2.6-3.5,4.7-4.7,6.6c-0.7,1.3-1.3,2-1.5,2.6
		c-0.2,0.4-0.2,0.9,0,1.5C423.6-175.3,423.8-175.1,424-175.1z M390.4-179.3c5.5-2.6,12-6.2,19.5-11.3c3.8-2.6,7.1-5.1,10-7.1
		c2.9-2.2,5.5-4.4,7.5-6.4c0.2,0,0.4-0.2,0.4-0.2c0.7,0.2,0.7,0.5,0.2,1.3c-1.5,1.8-2.9,3.8-4.4,6.2s-2.9,4.7-4.4,7.3
		c-1.3,2.2-2.6,4.7-3.7,7.7c-1.3,2.9-2.4,5.8-3.5,8.8c-1.1,3.1-2,5.8-2.4,8.4c-0.7,2.6-1.1,4.7-1.3,6.4c-0.2,2,0.2,3.8,0.7,5.5
		c0.5,1.6,2,2.9,3.5,4c1.5,0.9,2.9,1.8,4.6,2.6c1.6,0.7,3.7,1.3,5.7,1.5c1.5,0.2,2.7,0.2,3.8,0.2c1.1-0.2,2.4-0.4,3.7-0.5
		c2.4-0.5,5.1-1.5,7.9-2.9c2.9-1.5,6.2-3.3,9.9-5.5c3.8-2.4,7.3-5.1,10-7.5c2.9-2.6,5.3-4.9,7.3-7.5c0.4-0.4,0.5-0.9,0.5-1.3
		c0-0.2,0-0.2-0.2-0.4c-0.2,0-0.7,0.2-1.5,0.9c-2,2-4.6,4.4-7.3,6.8c-2.9,2.4-6,4.6-9.7,6.8c-7.3,4.4-13.3,7.1-17.9,8
		c-2.9,0.5-6,0.7-9.1,0.5c-3.1-0.4-5.7-1.1-7.5-2.6s-2.7-3.5-2.7-6.2c0-0.4,0-0.7,0-1.1c0-0.4,0.2-0.7,0.2-1.1c0.4-2.2,1.1-4.9,2-8
		c1.1-3.1,2.2-6.4,3.7-9.9s3.1-6.9,4.7-10.2c1.6-3.5,3.5-6.4,5.3-8.9c2.4-3.3,4.7-6.4,7.1-9.5c2.6-3.1,5.1-6.2,7.5-9.5
		c0.2-0.2,0-0.4-0.4-0.9c-0.4-0.4-0.5-0.5-0.9-0.7c-0.4,0-0.5,0-0.7,0.2c-0.5,0.7-1.8,1.1-3.3,1.1c-0.2,0.2-1.1-0.2-2.4-0.4
		c-1.1-0.5-2.2-0.7-3.1-1.1c-1.1-0.4-2.2-0.5-3.1-0.7c-0.9,0-1.8,0-2.7,0c-0.9,0.2-1.8,0.2-2.6,0.4c-3.3,0.9-6.9,2.4-11,4.4
		c-1.1,0.5-2.2,1.3-3.3,2c-1.5,0.4-2.9,0.5-4.2,0.7c-1.5,0-2.9,0-4.9,0s-4.2-0.2-6.4-0.4c-2.2-0.2-4.7-0.4-7.1-0.4
		c-2.4-0.2-4.7-0.4-7.1-0.4c4.2-0.4,8.2-1.1,11.5-2.4s5.7-2.9,6.9-4.9c0.7-1.1,1.3-2.4,0.9-3.8c0-1.5-0.5-2.7-1.1-3.8
		c-0.7-1.3-1.8-2.2-3.1-2.7c-1.3-0.7-2.9-1.1-4.4-0.5c-3.1,0.9-6.4,2.6-10,4.9c-3.8,2.4-7.3,5.5-10.8,8.9s-6.4,7.3-8.8,11.5
		s-3.8,8.2-4,12.6c-0.2,1.5,0.4,3.1,1.3,4.4c0.9,1.5,2,2.6,3.3,3.8c1.3,1.1,2.7,1.8,4.4,2.4c1.5,0.7,2.9,0.9,4.2,0.7
		c1.5-0.2,3.1-0.4,4.7-0.9c1.6-0.4,3.5-1.1,4.9-1.6c1.6-0.5,2.9-1.3,4.4-1.8c0.9-0.5,1.6-0.9,2.4-1.3c-0.2,0.7-0.4,1.5-0.4,2.2
		c0,2.7,1.1,4.2,3.3,4.2C388.2-178.5,389.1-178.7,390.4-179.3z M404.1-207.4c-1.8,1.3-3.7,2.7-5.7,4.4c-7.5,6.2-12,11.7-13.7,16.2
		c-0.2,0-0.4,0.2-0.5,0.2c-2.4,1.1-5.1,2-8.2,2.7c-3.3,0.9-6.4,1.5-9.3,1.6c-1.1,0-2.2-0.2-3.3-0.2c-1.1-0.2-2-0.7-2.9-1.3
		s-1.5-1.6-2-2.7c-0.5-1.1-0.7-2.6-0.7-4.2c0.2-1.8,0.5-3.7,1.3-5.3c0.5-1.6,1.5-3.5,2.4-4.9c0.9-1.6,2-3.1,2.9-4.4
		c1.1-1.5,2.2-2.7,3.1-3.8c2.6,0.2,5.5,0.4,9.1,0.5c3.5,0.2,6.9,0.4,10.4,0.5c3.5,0,6.6,0.4,9.5,0.4c2.9,0.2,5.1,0.2,6.6,0
		C403.5-207.2,403.9-207.2,404.1-207.4z M392.4-189.1c1.1-2.4,2.9-4.9,4.7-7.5c2.2-2.6,4.6-5.1,7.5-7.9c6.2-5.7,11.5-8.6,15.5-9.3
		c1.1-0.2,2-0.2,2.9,0c1.6,0.2,3.1,0.7,4.2,1.5c1.3,0.9,1.6,1.8,1.6,2.6c0,0.4-0.2,0.5-0.4,0.7c-6,6-11.9,11.1-17.3,15.2
		c-5.3,4.2-10.6,7.5-15.3,9.9c-0.5,0.4-1.3,0.5-2,0.4c-1.6-0.2-2.4-1.1-2.4-2.9C391.8-187.3,392-188.2,392.4-189.1z M393.1-218.9
		c-1.1,1.3-2.4,2.6-4.2,3.5c-1.8,1.1-3.8,2-6,2.6c-2.2,0.7-4.4,1.3-6.9,1.6c-2.4,0.4-4.7,0.4-6.9,0.4c2.9-2.7,6-5.3,9.3-7.7
		c3.3-2.6,6.4-4.6,9.7-5.8c1.3-0.7,2.4-0.7,3.3-0.9c1.1,0,1.8,0.4,2.4,0.9c0.5,0.5,0.7,1.3,0.7,2.2C394.6-221.1,394-220,393.1-218.9
		z"/>
	<path class="st1" d="M39.5-159.2c4.6-5.7,9.1-11.5,13.5-17.2c4.6-5.7,9.1-11.3,13.7-16.8c6.4-8,12.6-14.8,18.3-20.8
		c5.7-6,11-11.1,15.9-15.3c13.1-11.5,24.2-17.9,33.3-18.8c0.7,0,1.5-0.2,2.4-0.2c0.4,0,0.9,0,1.5,0c-6.9,11.7-13.9,24.6-20.6,39.3
		c0,0.2,0,0.2,0,0.4c-1.3,2.6-2.2,5.1-3.1,7.7c-1.8,0.4-4,0.5-6,0.9c-2.2,0.2-4.7,0.5-7.1,0.9c-2.6,0.4-4.7,0.7-7.1,0.9
		c4.2-1.1,8.2-2.7,11.5-4.7c3.5-2,5.7-4.2,6.9-6.4c0.7-1.3,1.3-2.6,0.9-3.8c0-1.5-0.5-2.6-1.1-3.7c-0.7-1.1-1.8-1.8-3.1-2.2
		c-1.3-0.4-2.9-0.4-4.4,0.4c-3.1,1.5-6.4,3.8-10,6.9c-3.8,3.1-7.3,6.9-10.8,11.1s-6.4,8.6-8.8,13.3c-2.6,4.7-3.8,9.1-4,13.3
		c-0.2,1.5,0.2,2.9,1.1,4.2s2,2.2,3.3,3.1c1.3,0.9,2.7,1.3,4.2,1.5c1.5,0.4,2.9,0.2,4.2-0.2c1.6-0.4,3.1-1.1,4.7-1.8
		s3.3-1.8,4.9-2.7c1.5-0.9,2.9-1.8,4.2-2.7c1.3-1.1,2.4-1.8,3.3-2.6c0.7-0.5,0.9-0.7,0.5-0.9c-0.4-0.4-0.9-0.2-1.6,0.4
		c-2.4,1.5-5.1,3.1-8.2,4.6c-3.3,1.5-6.4,2.7-9.1,3.7c-1.3,0.4-2.2,0.4-3.3,0.4c-1.3,0-2.2-0.2-2.9-0.7c-0.9-0.4-1.5-1.3-2-2.4
		c-0.5-0.9-0.7-2.4-0.5-4c0.2-1.8,0.5-3.7,1.1-5.5c0.7-1.8,1.6-3.7,2.6-5.5c0.9-1.8,2-3.5,2.9-4.9c1.3-1.6,2.2-3.1,3.1-4.4
		c2.6-0.4,5.5-0.9,9.1-1.3c3.5-0.5,6.9-0.9,10.4-1.5s6.6-0.9,9.5-1.5c0.2,0,0.5,0,0.7-0.2c-0.5,1.5-0.9,2.9-1.3,4.2
		c-1.1,4.6-1.6,8.8-1.5,13c0.2,3.7,0.9,6.2,2.6,7.9c1.6,1.6,3.8,2.4,6.2,2.6c2.6,0,5.3-0.7,8.4-2.2c3.1-1.5,6.2-3.7,9.1-6.4
		c0.4-0.4,0.7-0.7,1.3-1.1c-1.3,2.9-2,5.5-2,7.5c0,0.5,0.2,1.1,0.5,1.6c0.4,0.5,0.9,0.9,1.5,1.3c0.5,0.2,1.3,0.5,2,0.5
		c0.5,0.2,1.3,0.2,2,0c7.7-1.6,16.4-6.9,26.7-15.5c5.1-4.4,8.9-8.2,11.5-11.7s4-6.9,4.2-9.9c0-0.2,0-0.4-0.2-0.5s-0.2-0.5-0.4-0.7
		s-0.2-0.5,0-0.7c0.7-0.9,2.6-1.5,5.3-1.6c1.3,0,2-0.4,2-0.9c0-0.2-0.5-0.4-2-0.4c-3.7,0.2-6.9,0.4-9.7,0.4c-2.9,0-5.3,0.2-7.3,0.4
		c-0.2-0.2-0.4-0.2-0.5-0.2c0-0.2-0.4-0.2-0.4-0.2c-2.6-1.1-4.4-1.8-5.8-1.6c-2,0.4-3.8,1.3-5.7,3.1c-0.7,0.4-1.1,0.5-1.5,0.5
		c-0.2,0-1.6,0.2-4.9,0.5c-2,0.2-3.1,0.5-3.5,1.1c-0.2,0.4-0.4,0.7-0.4,0.9c0,0.4,0.4,0.9,1.3,1.3c0.7,0.5,1.5,0.9,2.4,1.1
		c0.5,0,0.5,0.4,0.4,1.1c-6.4,7.7-11,14.1-13.9,19.5c-0.2,0.2-0.4,0.4-0.5,0.7c-0.9,0.9-2,1.8-3.1,2.7c-2,1.6-4.4,3.1-6.6,4
		c-2.4,1.3-4.6,1.8-6.6,1.8c-2.2,0-3.8-0.7-5.1-2.2c-1.5-1.5-2-4-1.8-7.7c0.2-3.1,0.5-6.8,1.5-11c0.4-1.3,0.7-2.7,1.1-4
		c0.2,0,0.4,0,0.7-0.2c2.4-0.7,4.6-1.6,6.4-2.9c2-1.5,3.3-2.7,4.2-3.7c0.4-0.5,0.5-0.9,0.4-1.1c-0.4,0-0.7,0-1.3,0.7
		c-1.1,0.9-2.4,2-4.2,3.1c-2,1.1-3.8,1.6-5.5,2.2h-0.2c0.7-2,1.3-4.2,2.2-6c13.1-3.7,26.1-7.7,38.7-12c12.8-4.2,25.2-8.8,37.6-13.7
		c36-13.7,58.1-27.2,66.3-41.4c1.5-2.7,2.6-5.7,2.9-8.6c1.1-9.3-3.7-17.5-13.1-24.6c-10-7.9-20.9-11.2-33.5-9.9
		c-14.4,1.5-28.5,7.9-42,19c-13.7,11.3-26.8,27.9-39.6,49.1c-2-0.4-4-0.2-6.4,0c-12.2,1.3-28.3,12.2-48.2,32.7
		c-6,6.2-12.8,14.2-20.4,23.6c-7.7,9.5-16.2,20.6-25.7,33.2c-1.1,1.5-2,2.2-2.7,2.4s-1.3-0.4-1.5-1.8c-0.2-1.1-0.2-2.2,0-3.3
		c1.1-5.8,6-19.4,15.2-40.7c4.2-9.9,7.3-17.9,9.5-24.3c2.2-6.4,3.3-11,3.5-13.7c0.2-3.3-1.3-5.8-4-7.5c-2.6-1.8-5.7-2.2-9.3-1.3
		c-10,2.9-20.3,10.4-30.9,21.9C7.2-216.7,1.1-205.9,0-196.4c-0.2,1.5,0.2,3.1,1.5,4.7c0.7,0.9,1.3,1.5,1.8,1.8
		c0.7,0.4,1.3,0.7,1.6,0.7c0.7,0.4,1.5,0.5,2.4,0.4c1.3-0.5,2-1.1,2-1.8c0-0.4-0.4-0.5-1.3-0.5c-0.7,0-1.3,0-1.8,0
		c-0.5,0.2-0.9,0-1.3,0c-2-0.5-2.7-2.4-2.4-5.7c0.7-7.5,6-17,15.5-28.1c10.4-11.9,21-19.7,31.8-23.2c0.4,0,0.9-0.2,1.3-0.4
		c0.4-0.2,0.7-0.2,1.3-0.2c3.8-0.7,5.7,0.7,5.7,4c0,0.5,0,1.1,0,1.6c-0.2,0.4-0.2,0.7-0.2,0.9s0,0.4,0,0.4
		c-0.2,5.3-4.9,18.1-14.1,38.5c-4.7,10.6-8,19.2-10.6,25.9c-2.4,6.9-3.8,11.9-4,15.3c0,0.7,0.2,1.3,0.4,2.2c0.4,0.7,0.7,1.5,1.1,1.8
		c0.5,0.5,1.3,1.1,1.8,1.3c0.7,0.4,1.5,0.4,2.4,0.2C36.7-156.4,38-157.5,39.5-159.2 M218.9-175.6c6.8-1.3,14.2-4.9,22.8-11.1
		c0.5,0,1.3,0,1.8,0c1.6,0,3.1,0,4.2,0c4.4,0.2,6.4,1.8,6.4,4.4c0,3.5-2.6,7.3-7.7,11.7c-0.9,0.7-1.3,1.3-1.3,1.6
		c0,0.2,0.2,0.2,0.2,0.2c0.5,0,1.3-0.4,1.8-0.9c4.6-3.3,7.3-5.8,8.4-7.9c0.2-0.4,0.4-0.9,0.5-1.1c0.2-0.5,0.2-0.9,0.2-1.5
		c0-1.1-0.2-2-0.7-2.9s-1.3-1.6-2-2.6c-0.9-0.7-1.8-1.5-2.7-2c-1.1-0.5-2-0.9-2.9-1.1c-0.9,0-2.2-0.2-3.5-0.2
		c0.4-0.2,0.5-0.5,0.9-0.7c5.3-4,9.1-7.7,11.5-11.1c2.6-3.5,4-6.8,4.2-9.7c0-0.2,0-0.4-0.2-0.5c-0.2-0.2-0.2-0.5-0.4-0.7
		c-0.2-0.2-0.2-0.5,0-0.7c0.7-0.9,2.6-1.5,5.3-1.5c1.3,0,2-0.2,2-0.7c0-0.2-0.7-0.4-2-0.4c-3.7,0-6.9,0-9.7,0
		c-2.9-0.2-5.3,0-7.3-0.2c-0.2-0.2-0.4-0.2-0.5-0.2c0-0.2-0.4-0.2-0.4-0.2c-2.6-1.3-4.4-2-5.8-2c-2,0.2-3.8,1.1-5.7,2.7
		c-0.5,0.4-1.1,0.5-1.5,0.5c-0.2,0-1.6,0-4.9,0.2c-2,0.2-3.1,0.4-3.3,0.7c-0.4,0.4-0.4,0.7-0.4,0.9c0,0.5,0.4,0.9,1.3,1.3
		c0.7,0.5,1.5,0.9,2.4,1.3c0.5,0,0.5,0.4,0.2,1.1c-7.5,8.4-12.4,15.5-15.2,21.2c-5.1,0.5-10,1.6-15,2.6c0-0.2,0-0.2-0.2-0.4
		c0,0,0,0,0-0.2c-0.5-0.5-0.7-1.3-0.7-2c-0.2,0-0.2,0-0.2,0.2s-0.2,0.2-0.4,0.2c-0.4-0.9-0.9-1.3-1.3-1.6c-0.5-0.4-1.5-0.7-2.6-1.5
		c-0.5,0.2-0.7,0-0.7-0.7c0-0.5,0.2-0.9,0.4-1.1c0.5-0.9,1.6-2.4,3.1-4.2s2.7-3.7,4.2-5.7s2.6-4.2,3.8-6.2c1.3-2,1.8-3.8,2-5.7
		c0.2-0.7,0-1.6-0.2-2.4c-0.4-0.9-0.7-1.8-1.1-2.4c-0.5-0.7-1.1-1.3-1.6-1.6c-0.7-0.4-1.3-0.5-2-0.4c-1.3,0.4-2.6,1.1-4,2.4
		c-1.6,1.3-2.9,2.6-4.4,4c-1.5,1.6-2.9,3.1-3.8,4.6c-1.3,1.5-2.2,2.6-2.7,3.5c-0.4,0.5-0.7,1.3-0.5,1.8s0.5,0.4,1.3-0.4
		c0.7-0.9,1.6-2.2,2.7-3.3c1.1-1.3,2.2-2.4,3.1-3.5c1.1-1.1,2.2-2.2,3.3-3.1c1.1-0.9,2-1.5,2.9-1.8c0.9-0.2,1.6,0.2,2,0.9
		c0.5,0.7,0.7,2.2,0.4,4c-0.4,1.5-1.3,3.7-2.4,5.8s-2.6,4.6-3.8,6.9c-1.5,2.2-2.9,4.4-4.2,6.4c-1.5,2-2.6,3.3-3.5,4.2
		c-0.7,0.7-0.9,1.3-0.7,1.8c0.4,0.5,0.7,0.7,1.3,0.5c1.3-0.4,2.4-0.4,3.8,0c1.5,0.4,2.4,1.1,2.9,2.4c-0.5,0.2-0.9,0.2-1.5,0.4
		c-25.2,7.9-50,14.8-73.2,25.6c-34.7,17-55.5,33.2-62.3,48.4c-1.3,3.1-2,6-2,8.9c0,9.1,5.3,16.4,15.7,22.3
		c10.2,5.7,21.5,7.5,34.3,5.1c18.1-3.3,34.9-13.9,50.4-32.1c15.3-18.1,29.6-43.8,42.4-77c4.4-1.1,9.1-2,14.6-2.6
		c-0.7,2-1.1,3.8-1.3,5.5c0,0.5,0.2,1.1,0.5,1.6c0.4,0.5,0.9,1.1,1.5,1.3c0.5,0.4,1.3,0.7,2,0.7
		C217.7-175.6,218.4-175.6,218.9-175.6z M217.3-181.8c0.5-1.3,1.3-2.6,2-3.8c5.7-0.5,12-1.1,19-1.3c0.2,0,0.2,0,0.4,0
		c-6.9,5.5-13,8.6-18.1,9.5c-2.7,0.5-4.2,0-4.2-2C216.4-180,216.7-180.9,217.3-181.8z M220.4-188c4.7-8.2,10.8-15.5,18.3-21.9
		c1.3-0.9,2.2-1.3,2.2-1.1c1.5-0.5,3.3-1.1,5.1-1.1c1.8-0.4,3.8-0.4,5.8-0.2c3.8,0.2,5.5,1.6,4.9,4c-1.3,5.7-6.4,11.9-15,19.2
		c0,0-0.2,0-0.2,0.2c-1.1,0-2.2,0-3.3,0C232.6-188.9,226.8-188.6,220.4-188z M62.3-106.8c5.7-14.1,22.6-28.8,50.9-44.4
		c23.6-12.4,50.9-22.5,82.2-30.5c-3.8,10.6-8.2,20.8-13,30.3c-4.7,9.7-10.2,19-15.9,27.9c-19,29-38.7,45.1-59.5,48.2
		c-12.2,2-23,0.5-32.5-4.6c-9.1-4.9-13.7-11.3-13.7-19.4c0-1.3,0.2-2.6,0.4-3.8C61.4-104.2,61.7-105.7,62.3-106.8z M140.4-176.3
		c5.1-11.1,12.2-21,21.4-29.6c1.3-0.9,2.2-1.3,2.2-1.3c1.5-0.7,3.3-1.1,5.1-1.5s3.8-0.5,5.8-0.5c3.8,0,5.5,1.5,4.9,3.7
		c-1.3,5.8-6.4,12.2-15,19.9c-8.2,7.5-15.3,11.9-21.2,13.3c-2.7,0.7-4.2,0.2-4.2-1.6C139.7-174.5,139.9-175.6,140.4-176.3z
		 M261.3-278.4c-7.1,13.1-25.4,25.9-54.8,38.5c-12.4,5.5-25.6,10.6-39.6,15.5c-14.1,4.9-29,9.9-44.7,14.4c0.2-0.4,0.5-0.9,0.5-1.3
		c0.2-0.4,0.4-0.9,0.5-1.3H123c4.7-10.4,9.9-20.3,15.5-29.9c5.5-9.5,11.7-18.6,18.3-27.4c21.4-28.8,42.5-44.2,63.5-46
		c12.2-0.9,22.8,2,31.6,8.2c8.6,6.2,12.4,13.3,11.5,21.5c-0.2,1.3-0.4,2.6-0.7,3.7C262.2-281,261.8-279.7,261.3-278.4z M109.4-209.9
		c-1.1,1.5-2.6,2.9-4.2,4.4c-1.8,1.5-3.8,2.7-6,3.8c-2.2,1.3-4.4,2.2-6.9,3.1c-2.4,0.7-4.7,1.3-6.9,1.6c2.9-3.5,6.2-6.6,9.3-9.5
		c3.3-3.1,6.4-5.8,9.7-7.9c1.3-0.9,2.4-1.3,3.3-1.5c1.1-0.2,1.8,0,2.4,0.4c0.5,0.5,0.7,1.1,0.7,2.2
		C110.7-212.5,110.3-211.2,109.4-209.9z"/>
</g>
<g>
	<path class="st0" d="M1.2-429.6h21.9l5.3,64.4h0.4l5.3-64.4h20.6l-12.3,97.5H13.6L1.2-429.6z"/>
	<path class="st0" d="M57.2-356v-49.7c0-16,9.6-25.7,25.7-25.7c15.6,0,25.2,9.7,25.2,25.7v28.2H78.9v24.3c0,4.6,1.1,6.3,4,6.3
		s4-1.8,4-6.3v-13.4h21.2v10.6c0,16-9.6,25.7-25.2,25.7C66.8-330.3,57.2-340,57.2-356z M86.9-393v-15.5c0-4.6-1.1-6.3-4-6.3
		s-4,1.8-4,6.3v15.5H86.9z"/>
	<path class="st0" d="M114.3-458.9H136v126.8h-21.7V-458.9z"/>
	<path class="st0" d="M142.5-355.7V-406c0-15.7,9.8-25.4,25.7-25.4S194-421.7,194-406v50.4c0,15.7-9.8,25.4-25.7,25.4
		S142.5-340,142.5-355.7z M172.2-353.2v-55.3c0-4.6-1.1-6.3-4-6.3s-4,1.8-4,6.3v55.3c0,4.6,1.1,6.3,4,6.3S172.2-348.6,172.2-353.2z"
		/>
	<path class="st0" d="M197.4-346.5l26.6-67.3h-24.8v-15.8h48v14.3l-26.6,67.4h26.6v15.8h-49.8V-346.5z"/>
	<path class="st0" d="M251-355.7V-406c0-15.7,9.8-25.4,25.7-25.4c15.9,0,25.7,9.7,25.7,25.4v50.4c0,15.7-9.8,25.4-25.7,25.4
		C260.8-330.3,251-340,251-355.7z M280.7-353.2v-55.3c0-4.6-1.1-6.3-4-6.3s-4,1.8-4,6.3v55.3c0,4.6,1.1,6.3,4,6.3
		C279.6-346.9,280.7-348.6,280.7-353.2z"/>
	<g>
		<path class="st0" d="M352.1-341.1h-0.4v9h-20.8v-126.8h21.7v36.1h0.4c2.9-5.6,7.6-8.6,14.1-8.6c10,0,15.2,7.4,15.2,20.6v59.9
			c0,13.2-5.3,20.6-15.2,20.6C359.9-330.3,354.8-334,352.1-341.1z M360.6-351.5v-58.8c0-2.6-0.9-4.6-3.3-4.6c-2.9,0-4.7,2.6-4.7,9
			v50c0,6.3,1.8,9,4.7,9C359.7-346.9,360.6-348.8,360.6-351.5z"/>
		<path class="st0" d="M388.3-355.7V-406c0-15.7,9.8-25.4,25.7-25.4c15.9,0,25.7,9.7,25.7,25.4v50.4c0,15.7-9.8,25.4-25.7,25.4
			C398.1-330.3,388.3-340,388.3-355.7z M418-353.2v-55.3c0-4.6-1.1-6.3-4-6.3s-4,1.8-4,6.3v55.3c0,4.6,1.1,6.3,4,6.3
			S418-348.6,418-353.2z"/>
		<path class="st0" d="M454.4-384l-13-45.6h22.5l4.9,24.3h0.4l5.1-24.3H495L482-384l14.5,51.9h-22.6l-6.2-30.5h-0.4l-6.3,30.5h-21
			L454.4-384z"/>
		<path class="st0" d="M500.1-458.9h21.7v21.8h-21.7L500.1-458.9L500.1-458.9z M500.1-429.6h21.7v97.5h-21.7L500.1-429.6
			L500.1-429.6z"/>
		<path class="st0" d="M529.4-429.6H550v9h0.4c2.7-7,7.8-10.7,15-10.7c10,0,15,7.4,15,20.6v78.7h-21.7v-78.2c0-2.6-0.7-4.6-3.1-4.6
			c-2.9,0-4.5,2.6-4.5,9v73.8h-21.7V-429.6z"/>
		<path class="st0" d="M587.7-331.2v-3.5h21v6c0,3,1.4,4.4,4,4.4c2.9,0,4-1.8,4-6.2v-18.1h-0.4c-2.9,5.6-7.6,8.6-14.1,8.6
			c-10,0-15.2-7.4-15.2-20.6v-50.2c0-13.2,5.3-20.6,15.2-20.6c7.2,0,12.3,3.7,15,10.7h0.4v-9h20.8v96.7c0,16.2-9.2,25.2-25.5,25.2
			C596.8-307.8,587.7-316.4,587.7-331.2z M616.7-365.5v-40.3c0-6.3-1.8-9-4.7-9c-2.4,0-3.3,1.9-3.3,4.6v49.1c0,2.6,0.9,4.6,3.3,4.6
			C614.9-356.6,616.7-359.2,616.7-365.5z"/>
	</g>
</g>
<g>
	<path class="st0" d="M0.1,16h23.3l5.3,86.5H29L34.3,16h22L43.7,141.4H12.7L0.1,16z"/>
	<path class="st0" d="M60.5,16H107v18.9H83.4v29.6h20.4v18.9H83.4v39.1H107v18.9H60.5V16z"/>
	<path class="st0" d="M112.2,16h22.9v106.5h21.8v18.9h-44.7V16z"/>
	<path class="st0" d="M160.2,115.2V42.2c0-17.4,10.5-28,27.1-28c16.9,0,27.1,10.5,27.1,28v73.1c0,17.4-10.2,28-27.1,28
		C170.8,143.2,160.2,132.7,160.2,115.2z M191.5,117.2v-77c0-4.9-1.1-6.7-4.2-6.7s-4.2,1.8-4.2,6.7v77c0,4.9,1.1,6.7,4.2,6.7
		S191.5,122.1,191.5,117.2z"/>
	<path class="st0" d="M218.2,124.1l28.3-89.2H220V16h50.9v17.3l-28.3,89.2h28.3v18.9h-52.7V124.1z"/>
	<path class="st0" d="M275,115.2V42.2c0-17.4,10.5-28,27.1-28c16.9,0,27.1,10.5,27.1,28v73.1c0,17.4-10.2,28-27.1,28
		C285.6,143.2,275,132.7,275,115.2z M306.3,117.2v-77c0-4.9-1.1-6.7-4.2-6.7s-4.2,1.8-4.2,6.7v77c0,4.9,1.1,6.7,4.2,6.7
		S306.3,122.1,306.3,117.2z"/>
	<path class="st0" d="M373.2,34.9h-15.3V16h53.4v18.9h-15.3v106.5h-22.9V34.9z"/>
	<path class="st0" d="M415.5,16H462v18.9h-23.6v29.6h20.4v18.9h-20.4v39.1H462v18.9h-46.5V16z"/>
	<path class="st0" d="M477.5,16h32.2l12.9,125.4h-23.3l-1.6-24.2h-9.4l-1.6,24.2h-22L477.5,16z M496.9,98.3l-3.8-62.1h-0.4
		l-3.8,62.1H496.9z"/>
	<path class="st0" d="M526.9,16H560l5.8,58.1h0.4L572,16h35.8v125.4h-22.5V36h-0.4l-10.5,105.4h-17.3L546.5,36h-0.4v105.4h-19.3V16z
		"/>
	<path class="st0" d="M641.2,16h26.7c18,0,27.1,9.3,27.1,27.4v7.5c0,11.1-3.5,17.8-10.2,21.4v0.4c7.3,3.5,10.9,10.4,10.9,21.8V114
		c0,18.2-9.1,27.4-27.1,27.4h-27.4V16z M665.9,64.9c4.9,0,6.2-1.8,6.2-8.7V43.6c0-6.9-1.3-8.7-6.2-8.7h-1.8v30H665.9z M666.6,122.5
		c4.9,0,6.2-1.8,6.2-8.7V92.5c0-6.9-1.3-8.7-6.2-8.7h-2.5v38.7H666.6z"/>
	<path class="st0" d="M700.8,115.2V42.2c0-17.4,10.5-28,27.1-28c16.9,0,27.1,10.5,27.1,28v73.1c0,17.4-10.2,28-27.1,28
		C711.3,143.2,700.8,132.7,700.8,115.2z M732,117.2v-77c0-4.9-1.1-6.7-4.2-6.7s-4.2,1.8-4.2,6.7v77c0,4.9,1.1,6.7,4.2,6.7
		S732,122.1,732,117.2z"/>
	<path class="st0" d="M770.9,76.3L757.1,16h23.6l5.3,31.3h0.4l5.5-31.3h22L800,76.3l14.9,65.1h-23.6l-6.4-36.9h-0.4l-6.4,36.9H756
		L770.9,76.3z"/>
	<path class="st0" d="M818.9,16h22.9v125.4h-22.9V16z"/>
	<path class="st0" d="M849.8,16h27.8l10.5,70.7h0.4V16h19.3v125.4h-26.3l-12-82H869v82h-19.3V16z"/>
	<path class="st0" d="M915,120.7V42c0-17.3,10.5-27.8,26.9-27.8c16.5,0,26.7,10.5,26.7,27.8v13.8h-22.4V40.2c0-4.9-1.1-6.7-4.2-6.7
		s-4.2,1.8-4.2,6.7v79c0,2.9,0.9,4.7,3.6,4.7c3.6,0,4.9-2.7,4.9-9.6V88.5h-4.2V69.4H969v72h-19.6v-9.3h-0.7c-2.7,7.5-8,11.1-16,11.1
		C921.4,143.2,915,134.7,915,120.7z"/>
</g>
<text transform="matrix(1 0 0 1 -5.078125e-02 -550.2569)" class="st0" style="font-family:'KanedaGothic-ExtraBold'; font-size:181.7096px;">VELOZO TEAM BOXING</text>
</svg>
