<?xml version="1.0" encoding="UTF-8"?>
<svg id="Layer_1" data-name="Layer 1" xmlns="http://www.w3.org/2000/svg" viewBox="0 0 361.55 103.8">
  <defs>
    <style>
      .cls-1 {
        fill: #fff;
      }
    </style>
  </defs>
  <path class="cls-1" d="M230.39,83.3V20.36c1.39-.08,2.62-.2,3.84-.2,18.57-.01,37.15,.04,55.72-.06,2.42-.01,3.93,.65,5.25,2.73,3.28,5.18,6.83,10.2,10.69,15.92,3.59-5.32,7-10.07,10.06-15.04,1.63-2.65,3.47-3.81,6.68-3.64,5.28,.29,10.59,.08,16.96,.08-8.07,10.17-15.66,19.72-23.4,29.48,7.91,11.02,15.74,21.93,24.17,33.67-4.78,0-8.92-.49-12.9,.1-7.82,1.16-12.71-1.5-15.67-8.95-1.88-4.72-5.03-8.94-7.93-13.92-4.08,6.63-8.07,12.71-11.61,19.04-1.65,2.95-3.6,3.83-6.9,3.8-16.68-.17-33.36-.08-50.03-.08-1.51,0-3.01,0-4.92,0Zm46.33-37.64c0,3.47-.13,6.57,.04,9.67,.14,2.5-.86,3.31-3.29,3.26-5.55-.12-11.11-.03-16.66-.03-8.92,0-8.83,0-8.77,9.08,.02,2.58,.75,3.55,3.43,3.51,7.82-.13,15.66,.07,23.48-.15,1.48-.04,3.35-1.07,4.3-2.24,3.4-4.2,6.46-8.67,9.67-13.02,3.97-5.37,4-5.37,.11-10.62-2.91-3.94-5.13-9.35-9.06-11.31-4.08-2.03-9.85-.73-14.88-.79-5.52-.06-11.04-.01-17-.01,0,3.26,.19,6-.05,8.71-.28,3.12,.83,4.12,4,4.03,8.05-.21,16.1-.07,24.67-.07Z"/>
  <path class="cls-1" d="M149.73,20.04c8.89,0,17.59-.08,26.28,.13,.85,.02,2.11,1.8,2.4,2.96,2.79,11.49,5.41,23.02,8.1,34.53,.19,.82,.49,1.61,1.53,2.49,3.1-13.32,6.19-26.64,9.3-40h27.45v62.88h-14.76V33.1c-.3-.05-.59-.1-.89-.16-.38,1.21-.8,2.41-1.14,3.64-3.92,14.32-7.9,28.62-11.66,42.98-.78,3-2.09,4.12-5.2,3.84-4.12-.38-9.36,1.09-12.11-.94-2.56-1.89-2.54-7.3-3.57-11.19-3.08-11.67-6.12-23.36-9.18-35.04-.27-1.05-.61-2.08-1.6-3.03v49.82h-14.93V20.04Z"/>
  <path class="cls-1" d="M93.85,20.07c3.93,0,7.31-.06,10.68,.01,8.7,.18,17.48-.22,26.09,.77,11.91,1.38,17.44,11.73,13.05,22.9-1.9,4.83-5.82,7.01-11.06,8.08,8.43,2.45,9.13,3.42,10.11,11.78,.75,6.45,1.77,12.87,2.73,19.69-4.55,0-9.07,.11-13.58-.11-.75-.04-1.9-1.49-2.05-2.43-.8-4.83-1.3-9.7-1.99-14.55-.7-4.93-2.36-6.63-7.33-6.96-3.87-.26-7.76-.05-12.04-.05v24.07c-4.61,0-8.84,.15-13.04-.16-.6-.04-1.48-2.3-1.49-3.54-.1-17.47-.07-34.93-.07-52.4,0-2.22,0-4.44,0-7.09Zm14.69,27.21c5.43-.28,10.46-.33,15.43-.88,3.6-.4,5.47-2.88,5.62-6.5,.15-3.7-1.68-6.53-5.44-7.01-5.08-.65-10.24-.6-15.6-.86v15.25Z"/>
  <path class="cls-1" d="M87.86,20.08v62.93h-17.85v-11.99c-7.38,0-14.53-.08-21.67,.1-.93,.02-2.26,1.28-2.66,2.26-3.68,8.97-10.52,11.53-19.59,9.99-1.32-.22-2.7-.03-4.9-.03,3.23-4.41,5.99-8.23,8.79-12.02,11.89-16.09,23.83-32.14,35.64-48.29,1.57-2.15,3.17-3.13,5.9-3.02,5.28,.22,10.57,.06,16.35,.06Zm-15.37,15.81c-.32-.1-.65-.2-.97-.3-5.03,7.47-10.06,14.94-15.38,22.85h14.53c.62-7.66,1.22-15.11,1.82-22.55Z"/>
</svg>