<?xml version="1.0" encoding="UTF-8"?>
<svg id="Layer_1" data-name="Layer 1" xmlns="http://www.w3.org/2000/svg" viewBox="0 0 431.62 103.8">
  <defs>
    <style>
      .cls-1 {
        fill: #fff;
      }
    </style>
  </defs>
  <path class="cls-1" d="M93.66,51.19c97.03-.19,194.07-.37,291.1-.56,.09-.69,.19-1.38,.28-2.07l-12.48-4.41c.03-.13,.06-.27,.1-.4,7.3,1.35,14.61,2.71,23.19,4.3-5.41-6.21-10.04-11.53-14.66-16.84,.13-.14,.26-.27,.4-.41,3.23,2.75,6.46,5.49,9.68,8.24l.74-.52c-3.83-7.82-7.66-15.65-11.5-23.47,.24-.13,.48-.26,.72-.4,4.72,7.03,9.44,14.07,14.16,21.1,.32-.11,.64-.23,.97-.34-.25-2.48-.51-4.96-.76-7.44,.2-.06,.41-.11,.61-.17,1.88,5.03,3.77,10.07,6.11,16.32,2.25-5.78,4.05-10.39,5.85-15.01,.15,.03,.31,.07,.46,.1-.25,2.21-.5,4.42-.74,6.63,.33,.15,.65,.29,.98,.44,3.69-5.21,7.38-10.43,11.07-15.64,.19,.1,.37,.2,.56,.3-2.77,5.88-5.54,11.75-8.3,17.63,.21,.21,.43,.42,.64,.63,1.26-.7,2.53-1.4,3.79-2.1,.17,.12,.34,.25,.5,.37-2.59,3.29-5.19,6.58-8.39,10.65,4.74-.68,8.34-1.2,12.79-1.84-1.3,1.4-1.97,2.14-2.99,3.24,2.7,.59,4.86,1.07,7.02,1.55,0,.35-.02,.7-.02,1.05-2.28,.63-4.56,1.26-7.7,2.13,2.04,1.31,3.3,2.11,5.19,3.32-4.72-.77-8.75-1.43-12.77-2.08-.23,.31-.47,.62-.7,.93,2.64,3.35,5.28,6.7,7.91,10.05-.09,.16-.18,.32-.27,.47-1.24-.71-2.47-1.42-3.71-2.13l-.98,.61c2.72,5.84,5.44,11.68,8.16,17.51-.18,.12-.35,.23-.53,.35-3.69-5.27-7.37-10.55-11.06-15.82-.4,.14-.79,.29-1.19,.43,.42,2.9,.85,5.8,1.44,9.88-2.46-6.42-4.51-11.76-6.55-17.09l-1.01,.18c-1.85,5.1-3.7,10.2-5.55,15.3-.22-.05-.45-.09-.67-.14,.3-2.49,.6-4.99,.9-7.48-.31-.18-.63-.37-.94-.55-4.75,7.05-9.5,14.09-14.25,21.14-.22-.12-.44-.25-.66-.37,3.79-7.8,7.59-15.61,11.38-23.41-.27-.18-.54-.36-.81-.54-2.42,2.06-4.84,4.12-7.26,6.18-.23-.2-.46-.4-.7-.59,3.86-4.54,7.71-9.08,11.57-13.62-.13-.34-.26-.69-.39-1.03-6.65,1.29-13.3,2.58-19.95,3.87-.06-.18-.11-.37-.17-.55,3.61-1.36,7.22-2.73,10.83-4.09-.02-.5-.04-1-.06-1.5-48.59-.27-97.19-.12-145.78-.19-48.57-.07-97.13-.02-145.7-.02,.03-.7,.07-1.39,.1-2.09Z"/>
  <path class="cls-1" d="M260.37,54.46h20.95c-.5,2.28-1.25,4.35-1.32,6.44-.04,1.34,.92,2.72,1.42,4.08,1.47-.64,3.68-.89,4.26-2,1.27-2.42,1.71-5.28,2.6-8.33h20.46c-.73,3.85-1.43,7.73-2.22,11.6-1.1,5.37-4.73,8.69-10.09,8.76-10.51,.13-21.02,.13-31.53,0-5.77-.07-8.17-3.51-6.86-9.09,.87-3.72,1.53-7.5,2.32-11.45Z"/>
  <path class="cls-1" d="M56.42,54.44h21.11c-.53,2.41-1.27,4.6-1.4,6.83-.07,1.2,.78,3.41,1.45,3.51,1.31,.19,3.58-.39,4.06-1.35,1.35-2.71,1.99-5.76,2.99-8.91h20.3c-.74,3.97-1.43,7.86-2.2,11.73-1.04,5.25-4.82,8.72-10.09,8.78-10.66,.12-21.33,.11-31.99-.03-4.58-.06-6.78-2.57-6.31-7.17,.45-4.4,1.34-8.75,2.07-13.39Z"/>
  <path class="cls-1" d="M206.11,54.35c14.37,0,28.57,0,42.77,0,2.8,0,3.47,1.78,3.28,4.17-.41,5.28-.84,10.56-1.3,16.43-5.71,0-11.87,.15-18-.17-.87-.05-2.26-2.4-2.27-3.7-.02-2.62,1.01-5.24,1.08-7.87,.04-1.55-.96-3.12-1.49-4.69-1.6,1.15-3.98,1.97-4.62,3.51-1.16,2.8-1.52,6.02-1.79,9.09-.26,2.95-1.37,4.12-4.44,4.01-5.57-.21-11.16-.06-17.41-.06,1.47-7.27,2.8-13.86,4.18-20.72Z"/>
  <path class="cls-1" d="M157.35,49.59h-47.86c1.22-5.97,2.29-11.69,3.65-17.33,.16-.66,1.88-1.34,2.89-1.34,12.44-.07,24.88-.12,37.32,.04,4.39,.06,6.66,2.84,6.36,7.29-.13,1.89-.69,3.76-1.08,5.63-.39,1.85-.83,3.69-1.28,5.71Zm-27.6-1.55c4.71,1.29,7.46,0,8.24-3.74,.23-1.09-1.7-3.69-2.84-3.82-6.13-.72-2.81,5.03-5.4,7.57Z"/>
  <path class="cls-1" d="M261.7,49.48c.74-4.04,1.15-7.43,2-10.7,1.16-4.45,5.09-7.79,9.61-7.86,10.67-.17,21.36-.17,32.03,.01,4.79,.08,7.08,2.81,6.53,7.54-.42,3.64-1.42,7.22-2.21,11.04h-20.3c.34-1.66,1.08-3.26,.87-4.73-.21-1.5-1.35-2.86-2.08-4.28-1.43,.77-3.43,1.2-4.17,2.4-1.12,1.81-1.36,4.16-2.05,6.57h-20.23Z"/>
  <path class="cls-1" d="M180.42,56.69c-.54,3.11-.94,5.43-1.45,8.39h22.01c-.72,3.25-1.15,5.83-1.93,8.31-.23,.72-1.44,1.59-2.21,1.59-13.45,.1-26.9,.07-40.88,.07,1.32-6.52,2.4-12.45,3.81-18.3,.24-.98,1.88-2.3,2.88-2.31,13.04-.13,26.09-.06,39.13-.02,.22,0,.45,.29,1.45,.99-4.02,2.22-7.94,1.02-11.57,1.23-3.78,.22-7.58,.05-11.24,.05Z"/>
  <path class="cls-1" d="M29.11,65.14h21.76c-.68,3.34-1.28,6.28-1.95,9.57H6.06c1.4-6.8,2.77-13.48,4.17-20.24H30.75c-.53,3.43-1.03,6.72-1.64,10.67Z"/>
  <path class="cls-1" d="M183,46.59c6.85,1.58,14.19-.91,21,1.33-.03,.45-.05,.9-.08,1.35h-42.5c1.03-5.5,2-11.1,3.19-16.64,.15-.7,1.45-1.65,2.22-1.66,13.44-.1,26.88-.07,40.74-.07-.75,3.23-1.37,5.91-2.14,9.27-5.56,0-11.27,0-16.99,0-5.46,.01-5.76,.37-5.44,6.42Z"/>
  <path class="cls-1" d="M320.86,54.47h33.41c-3.7,6.67-7.22,13.02-10.76,19.36-.14,.25-.4,.61-.61,.62-6.16,.11-12.31,.22-18.47,.16-.34,0-.83-1.43-.96-2.24-.9-5.83-1.72-11.67-2.62-17.89Z"/>
  <path class="cls-1" d="M104.14,75.05c1.43-6.71,2.64-12.77,4.08-18.77,.19-.79,1.55-1.85,2.38-1.85,14.59-.11,29.19-.08,44.49-.08-3.8,4.59-8.33,3.91-12.62,3.95-4.43,.04-8.86,0-13.79,0-1,4.54-1.8,9-3.04,13.33-.37,1.31-1.9,3.21-2.98,3.26-5.88,.32-11.8,.15-18.52,.15Z"/>
  <path class="cls-1" d="M78.5,49.62h-20.68c1.18-5.85,2.21-11.4,3.51-16.89,.18-.78,1.68-1.75,2.59-1.77,5.73-.16,11.46-.08,17.93-.08-1.17,6.54-2.24,12.53-3.35,18.74Z"/>
  <path class="cls-1" d="M35.52,30.91c-1.31,6.6-2.46,12.37-3.69,18.53H11.17c1.14-5.47,2.21-10.95,3.5-16.37,.2-.84,1.41-2.04,2.18-2.06,6.02-.17,12.05-.09,18.67-.09Z"/>
  <path class="cls-1" d="M109.78,30.89c-1.42,6.77-2.66,12.65-3.92,18.69h-20.25c.99-5.54,1.86-10.9,3-16.21,.21-.96,1.54-2.35,2.4-2.38,6.02-.21,12.06-.11,18.77-.11Z"/>
  <path class="cls-1" d="M231.48,30.89c-1.35,6.64-2.52,12.4-3.77,18.52h-20.55c1.11-5.19,2.1-10.39,3.39-15.51,.29-1.14,1.62-2.84,2.53-2.88,5.86-.26,11.73-.13,18.39-.13Z"/>
  <path class="cls-1" d="M316.91,30.89c6.87,0,12.76-.1,18.63,.11,.91,.03,2.39,1.39,2.54,2.31,.91,5.33,1.5,10.71,2.23,16.28h-20.1c-1.05-5.96-2.11-11.94-3.31-18.7Z"/>
  <path class="cls-1" d="M230.35,49.76c2.4-4.87,4.62-9.49,6.94-14.05,1.59-3.13,4.02-4.94,7.74-4.85,4.65,.11,9.31,.03,13.89,.03-3.25,5.42-6.45,10.33-9.17,15.48-1.27,2.4-2.52,3.59-5.35,3.45-4.58-.23-9.17-.06-14.06-.06Z"/>
  <path class="cls-1" d="M367.53,30.84c-3.74,6.58-6.91,12.33-10.31,17.94-.42,.69-2.03,.88-3.1,.93-2.78,.12-5.57,.04-9.16,.04,3.44-6.34,6.44-12.19,9.84-17.81,.55-.92,2.85-.96,4.37-1.06,2.44-.17,4.91-.04,8.34-.04Z"/>
</svg>