<?xml version="1.0" encoding="utf-8"?>
<!-- Generator: Adobe Illustrator 27.0.0, SVG Export Plug-In . SVG Version: 6.00 Build 0)  -->
<svg version="1.1" id="Слой_1" xmlns="http://www.w3.org/2000/svg" xmlns:xlink="http://www.w3.org/1999/xlink" x="0px" y="0px"
	 viewBox="0 0 56.7 56.7" style="enable-background:new 0 0 56.7 56.7;" xml:space="preserve">
<style type="text/css">
	.st0{fill:none;stroke:#FFFFFF;stroke-width:2.5;stroke-linecap:round;stroke-miterlimit:10;}
	.st1{fill:none;stroke:#FFFFFF;stroke-width:2.5;stroke-miterlimit:10;}
	.st2{fill:#FFFFFF;}
</style>
<g>
	<g>
		<line class="st0" x1="-90.8" y1="21" x2="-116.3" y2="10.3"/>
		<line class="st0" x1="-90.8" y1="23.5" x2="-116.3" y2="16.3"/>
		<line class="st0" x1="-90.8" y1="25.9" x2="-116.3" y2="22.3"/>
		<line class="st0" x1="-90.8" y1="28.3" x2="-116.3" y2="28.3"/>
	</g>
	<g>
		<line class="st0" x1="-90.8" y1="35.7" x2="-116.3" y2="46.4"/>
		<line class="st0" x1="-90.8" y1="33.2" x2="-116.3" y2="40.4"/>
		<line class="st0" x1="-90.8" y1="30.8" x2="-116.3" y2="34.4"/>
	</g>
	<path class="st1" d="M-83.5,35.7c1.9,0,3.8-0.8,5.2-2.1c1.4-1.4,2.2-3.2,2.2-5.2c0-4.1-3.3-7.3-7.3-7.3h-7.3v14.7L-83.5,35.7
		L-83.5,35.7z"/>
	<line class="st1" x1="-106.2" y1="14.6" x2="-106.2" y2="42.1"/>
</g>
<g>
	<path class="st2" d="M33,12.7c2.1,0.3,3.7,1.2,5,2.8c1.3,1.6,1.9,3.5,2.3,5.4c0.4,2,0.6,3.9,1,5.9c0.1,0.6,0,1.1-0.3,1.6
		c-1.9,3.2-4.3,5.9-7,8.3c-1.8,1.6-3.7,3.1-5.8,4.3c-0.3,0.2-0.5,0.2-0.8,0.1c-3.3-1.1-6.6-2.3-9.7-3.9c-2-1.1-3.9-2.3-5.6-3.8
		c-3-2.8-4.3-6.2-3.6-10.3c1-5.6,3.8-9.9,8.7-12.9c2.2-1.3,4.6-2,7.2-1.9c3.1,0.1,5.5,1.5,6.9,4.2c0.4,0.8,0.5,1.8,0.8,2.7
		c0.3,0.8,0.5,1.7,0.8,2.5c0.2,0.5,0.5,0.9,0.9,1.2c0.3,0.3,0.6,0.3,0.9,0c0.3-0.3,0.4-0.6,0.2-0.9c-1-1.1-1.2-2.6-1.5-3.9
		C33.2,13.6,33.1,13.2,33,12.7z"/>
	<path class="st2" d="M29,42.2c5.4-3.4,9.9-7.9,13.3-13.3c1.5,0.9,2.9,2,3.9,3.5c0.7,1.1,1.4,2.3,2,3.4c0.5,0.9,0.4,1.8-0.1,2.7
		c-1.3,2.6-3.2,4.7-5.4,6.6c-1.3,1.1-2.6,2.1-4.2,2.9c-0.9,0.5-1.8,0.5-2.8,0.1c-2.7-1.2-4.8-2.9-6.4-5.4
		C29.2,42.6,29.1,42.4,29,42.2z"/>
</g>
</svg>
